<?xml version="1.0" encoding="iso-8859-1"?>
<!-- Generator: Adobe Illustrator 18.0.0, SVG Export Plug-In . SVG Version: 6.00 Build 0)  -->
<!DOCTYPE svg PUBLIC "-//W3C//DTD SVG 1.1//EN" "http://www.w3.org/Graphics/SVG/1.1/DTD/svg11.dtd">
<svg version="1.1" id="Capa_1" xmlns="http://www.w3.org/2000/svg" xmlns:xlink="http://www.w3.org/1999/xlink" x="0px" y="0px"
	 viewBox="0 0 32 32" style="enable-background:new 0 0 32 32;" xml:space="preserve">
<g id="_x31_0_2_">
	<g>
		<path style="fill-rule:evenodd;clip-rule:evenodd;" d="M21.717,10.283c-0.394-0.394-1.032-0.394-1.425,0l-4.297,4.297
			l-4.237-4.237c-0.391-0.391-1.024-0.391-1.414,0c-0.391,0.391-0.391,1.024,0,1.414l4.237,4.237l-4.266,4.266
			c-0.394,0.394-0.394,1.032,0,1.425c0.394,0.393,1.032,0.393,1.425,0l4.266-4.266l4.237,4.237c0.391,0.391,1.024,0.391,1.414,0
			c0.391-0.391,0.391-1.024,0-1.414l-4.237-4.237l4.297-4.297C22.111,11.315,22.111,10.676,21.717,10.283z M16,0
			C7.163,0,0,7.163,0,16s7.163,16,16,16c8.836,0,16-7.164,16-16S24.837,0,16,0z M16,30C8.268,30,2,23.732,2,16S8.268,2,16,2
			s14,6.268,14,14S23.732,30,16,30z"/>
	</g>
</g>
<g>
</g>
<g>
</g>
<g>
</g>
<g>
</g>
<g>
</g>
<g>
</g>
<g>
</g>
<g>
</g>
<g>
</g>
<g>
</g>
<g>
</g>
<g>
</g>
<g>
</g>
<g>
</g>
<g>
</g>
</svg>
