<?xml version="1.0" encoding="utf-8"?>
<!-- Generator: Adobe Illustrator 16.0.4, SVG Export Plug-In . SVG Version: 6.00 Build 0)  -->
<!DOCTYPE svg PUBLIC "-//W3C//DTD SVG 1.1//EN" "http://www.w3.org/Graphics/SVG/1.1/DTD/svg11.dtd">
<svg version="1.1" id="Layer_2" xmlns="http://www.w3.org/2000/svg" xmlns:xlink="http://www.w3.org/1999/xlink" x="0px" y="0px"
	 width="126px" height="126px" viewBox="0 0 126 126" enable-background="new 0 0 126 126" xml:space="preserve">
<path fill="#fff" d="M109.174,35.482c-0.565-0.774-1.466-1.232-2.424-1.232h-67.5c-0.131,0-0.261,0.008-0.387,0.025l-2.778-8.008
	c-0.288-0.828-0.922-1.488-1.737-1.809l-14-5.5c-1.543-0.604-3.284,0.154-3.89,1.695c-0.605,1.542,0.153,3.284,1.695,3.89
	l12.715,4.995l15.564,44.862c-0.687,0.239-1.269,0.766-1.534,1.504l-4.5,12.5c-0.276,0.766-0.162,1.618,0.307,2.284
	s1.231,1.062,2.045,1.062h2.311c-1.432,1.594-2.311,3.693-2.311,6c0,4.963,4.038,9,9,9s9-4.037,9-9c0-2.307-0.879-4.406-2.311-6
	h19.622c-1.432,1.594-2.311,3.693-2.311,6c0,4.963,4.037,9,9,9s9-4.037,9-9c0-2.307-0.879-4.406-2.311-6h2.811
	c1.381,0,2.5-1.119,2.5-2.5s-1.119-2.5-2.5-2.5H46.307l2.787-7.741c0.36,0.151,0.749,0.241,1.156,0.241h44
	c1.304,0,2.459-0.843,2.856-2.084l12.5-39C109.899,37.253,109.738,36.256,109.174,35.482z M51.75,101.75c-2.206,0-4-1.794-4-4
	s1.794-4,4-4s4,1.794,4,4S53.956,101.75,51.75,101.75z M84.75,101.75c-2.206,0-4-1.794-4-4s1.794-4,4-4s4,1.794,4,4
	S86.956,101.75,84.75,101.75z M100.475,47H85.167v-6.75h17.471L100.475,47z M96.067,60.75h-10.9V53h13.385L96.067,60.75z
	 M65.333,60.75V53h13.834v7.75H65.333z M79.167,66.75v6.5H65.333v-6.5H79.167z M45.359,53h13.974v7.75H48.048L45.359,53z M65.333,47
	v-6.75h13.834V47H65.333z M59.333,40.25V47H43.277l-2.342-6.75H59.333z M50.13,66.75h9.203v6.5h-6.948L50.13,66.75z M85.167,73.25
	v-6.5h8.978l-2.083,6.5H85.167z"/>
</svg>
