<?xml version="1.0" encoding="utf-8"?>
<!-- Generator: Adobe Illustrator 16.0.0, SVG Export Plug-In . SVG Version: 6.00 Build 0)  -->
<!DOCTYPE svg PUBLIC "-//W3C//DTD SVG 1.1//EN" "http://www.w3.org/Graphics/SVG/1.1/DTD/svg11.dtd">
<svg version="1.1" id="Layer_1" xmlns="http://www.w3.org/2000/svg" xmlns:xlink="http://www.w3.org/1999/xlink" x="0px" y="0px"
	 width="500px" height="370px" viewBox="0 0 500 370" enable-background="new 0 0 500 370" xml:space="preserve">
<g>
	<g>
		<path fill="#808080" d="M477.311,251.072c-0.812,0-1.638-0.193-2.405-0.603c-13.891-7.362-29.901-15.813-47.577-25.114
			l-34.404-18.068c-8.514-4.465-16.783-8.789-24.539-12.857l-61.031-32.037c-3.346-1.684-10.328-4.497-19.537-4.497
			c-3.344,0-6.383,0.041-9.063,0.082c-10.022,0.152-16.631,0.244-23.237-2.314c-2.765-1.07-4.873-3.375-6.484-6.271
			c-1.61,2.896-3.731,5.2-6.501,6.271c-6.611,2.561-13.225,2.468-23.232,2.314c-2.671-0.041-5.72-0.082-9.075-0.082
			c-4.497,0-8.902,0.652-13.154,1.947l-148.09,76.966c-7.745,4.078-15.387,8.127-22.78,12.043c-2.513,1.336-5.634,0.377-6.974-2.143
			c-1.336-2.52-0.365-5.629,2.156-6.977c7.393-3.916,15.038-7.953,22.803-12.054l148.93-77.402l0.438-0.144
			c5.374-1.703,10.981-2.56,16.671-2.56c3.426,0,6.506,0.041,9.229,0.081c9.125,0.143,14.638,0.225,19.362-1.604
			c2.102-1.102,4.61-10.573,5.068-19.118h10.3c0.459,8.545,2.979,18.018,5.088,19.118c4.711,1.825,10.217,1.743,19.334,1.604
			c2.713-0.04,5.791-0.081,9.218-0.081c10.8,0,19.146,3.059,24.232,5.618l0.076,0.041l61.037,32.06
			c7.76,4.067,16.01,8.381,24.555,12.856l34.425,18.078c17.684,9.299,33.681,17.754,47.589,25.125
			c2.521,1.347,3.478,4.457,2.142,6.984C480.947,250.082,479.156,251.072,477.311,251.072"/>
		<path fill="#808080" d="M249.023,140.925c-2.85,0-5.17-2.305-5.17-5.159v-35.44c-0.233-2.545-1.381-19.022,6.903-28.873
			c1.611-1.901,3.771-3.895,6.072-5.985c9.438-8.667,21.193-19.444,12.354-37.896c-4.065-8.488-13.511-14.214-24.083-14.604
			c-10.666-0.377-20.088,4.758-25.217,13.757c-3.365,5.878-4.986,13.296-4.845,22.045c0.063,2.845-2.207,5.199-5.047,5.251
			c-0.035,0-0.076,0-0.097,0c-2.81,0-5.114-2.248-5.153-5.067c-0.194-10.625,1.875-19.822,6.179-27.337
			c7.056-12.4,19.984-19.477,34.557-18.962c14.562,0.536,27.222,8.372,33.006,20.461c12.136,25.338-4.647,40.745-14.685,49.948
			c-2.121,1.953-3.956,3.636-5.149,5.037c-4.971,5.92-4.936,17.451-4.489,21.402l0.016,0.565v35.696
			C254.173,138.622,251.868,140.925,249.023,140.925"/>
		<path fill="#808080" d="M238.847,140.121c-1.703,0-3.385-0.847-4.375-2.396c-1.509-2.417-0.795-5.608,1.622-7.127l20.348-12.858
			c2.412-1.529,5.594-0.806,7.123,1.611c1.498,2.396,0.782,5.588-1.616,7.105l-20.357,12.868
			C240.733,139.866,239.786,140.121,238.847,140.121"/>
		<path fill="#808080" d="M249.023,142.853c-1.703,0-3.385-0.856-4.369-2.406c-1.514-2.416-0.801-5.599,1.616-7.117l10.171-6.434
			c2.412-1.521,5.594-0.807,7.11,1.6c1.511,2.417,0.808,5.599-1.604,7.118l-10.185,6.434
			C250.921,142.587,249.962,142.853,249.023,142.853"/>
		<path fill="#808080" d="M238.847,130.962c-1.703,0-3.385-0.855-4.375-2.405c-1.509-2.417-0.795-5.599,1.622-7.117l20.348-12.868
			c2.412-1.507,5.594-0.795,7.123,1.611c1.498,2.405,0.782,5.598-1.616,7.116l-20.357,12.858
			C240.733,130.708,239.786,130.962,238.847,130.962"/>
		<path fill="#808080" d="M238.847,121.796c-1.703,0-3.385-0.847-4.375-2.396c-1.509-2.406-0.795-5.6,1.622-7.128l20.348-12.855
			c2.412-1.514,5.594-0.801,7.123,1.616c1.498,2.396,0.782,5.588-1.616,7.109L241.591,121
			C240.733,121.542,239.786,121.796,238.847,121.796"/>
		<path fill="#808080" d="M238.847,112.64c-1.703,0-3.385-0.847-4.375-2.396c-1.509-2.416-0.795-5.601,1.622-7.119l20.348-12.857
			c2.412-1.529,5.594-0.807,7.123,1.604c1.498,2.401,0.782,5.588-1.616,7.107l-20.357,12.864
			C240.733,112.384,239.786,112.64,238.847,112.64"/>
		<path fill="#808080" d="M238.847,103.486c-1.703,0-3.385-0.846-4.375-2.406c-1.509-2.406-0.795-5.593,1.622-7.117L256.441,81.1
			c2.412-1.524,5.594-0.796,7.123,1.615c1.498,2.396,0.783,5.582-1.616,7.112l-20.357,12.863
			C240.733,103.231,239.786,103.486,238.847,103.486"/>
		<path fill="#808080" d="M238.847,94.33c-1.703,0-3.385-0.852-4.375-2.401c-1.509-2.417-0.795-5.604,1.622-7.122l10.105-6.389
			c2.417-1.52,5.598-0.806,7.127,1.605c1.52,2.401,0.79,5.588-1.621,7.111l-10.116,6.396
			C240.733,94.075,239.786,94.33,238.847,94.33"/>
	</g>
	<g>
		<g>
			<path fill="#808080" d="M31.649,286.281c5.517,0,10.028,4.508,10.028,10.022v12.031c0,4.347-2.674,8.188-6.434,9.859
				c4.094,1.512,7.018,5.438,7.018,10.032v14.865c0,5.52-4.513,10.035-10.026,10.035H16.524v-66.85h15.125V286.281z M31.231,316.105
				c2.256-0.998,6.184-3.252,6.184-7.604v-12.193c0-3.012-2.505-5.938-5.766-5.938H20.703v25.734H31.231z M38.083,328.23
				c0-4.681-4.678-6.941-6.936-7.941H20.703v28.662h11.448c3.342,0,5.932-2.674,5.932-5.854V328.23z"/>
		</g>
		<g>
			<path fill="#808080" d="M78.592,349.787c3.845,0,6.938-3.088,6.938-6.934v-6.019h4.178v6.019c0,6.18-4.93,11.112-11.115,11.112
				h-1.837c-6.185,0-11.115-4.936-11.115-11.112v-26.248c0-6.179,4.93-11.113,11.115-11.113h1.837
				c6.185,0,11.115,4.936,11.115,11.113v10.789h-19.89v15.459c0,3.846,3.092,6.934,6.937,6.934H78.592z M85.529,323.294v-6.688
				c0-3.845-3.092-6.935-6.938-6.935h-1.837c-3.844,0-6.937,3.09-6.937,6.935v6.688H85.529z"/>
		</g>
		<g>
			<path fill="#808080" d="M134.226,286.281h4.181v55.654c0,6.68-5.349,12.03-12.035,12.03H124.7
				c-6.684,0-12.032-5.354-12.032-12.03v-55.654h4.178v55.654c0,4.342,3.51,7.852,7.854,7.852h1.672c4.346,0,7.854-3.51,7.854-7.852
				V286.281z"/>
		</g>
		<g>
			<path fill="#808080" d="M165.043,331.402c-1.338,0-2.424-1.092-2.424-2.428c0-1.337,1.086-2.509,2.424-2.509
				c1.336,0,2.506,1.172,2.506,2.509C167.549,330.311,166.38,331.402,165.043,331.402z"/>
		</g>
		<g>
			<path fill="#808080" d="M209.154,316.605c0-4.345-2.588-6.935-6.934-6.935c-4.35,0-6.938,3.011-6.938,6.935v1.674h-4.176v-1.674
				c0-6.679,4.926-11.113,11.115-11.113c6.18,0,11.109,4.436,11.109,11.113v36.524h-4.176v-5.18c0,0-7.438,6.016-11.869,6.016
				c-4.426,0-8.025-3.6-8.025-8.024v-5.771c0-5.844,3.514-10.278,8.28-12.114l11.614-3.671L209.154,316.605L209.154,316.605z
				 M193.441,345.941c0,1.918,1.922,3.846,3.844,3.846c4.431,0,11.869-6.934,11.869-6.934V328.73l-9.859,3.09
				c-3.932,1.498-5.854,4.68-5.854,8.352V345.941z"/>
		</g>
		<g>
			<path fill="#808080" d="M261.613,342.854c0,6.098-4.934,11.112-11.115,11.112h-1.842c-2.671,0-5.098-0.918-6.934-2.428v14.623
				h-4.18v-59.834h4.18v5.18c0,0,7.439-6.016,11.869-6.016c4.427,0,8.021,3.6,8.021,8.022L261.613,342.854L261.613,342.854z
				 M241.723,342.854c0,3.846,3.09,6.934,6.934,6.934h1.842c3.845,0,6.938-3.088,6.938-6.934v-29.336
				c0-2.336-1.93-3.847-3.847-3.847c-4.43,0-11.869,6.854-11.869,6.854L241.723,342.854L241.723,342.854z"/>
		</g>
		<g>
			<path fill="#808080" d="M309.895,342.854c0,6.098-4.931,11.112-11.113,11.112h-1.842c-2.672,0-5.1-0.918-6.935-2.428v14.623
				h-4.181v-59.834h4.181v5.18c0,0,7.438-6.016,11.869-6.016c4.426,0,8.021,3.6,8.021,8.022V342.854L309.895,342.854z
				 M290.005,342.854c0,3.846,3.091,6.934,6.935,6.934h1.841c3.845,0,6.938-3.088,6.938-6.934v-29.336
				c0-2.336-1.928-3.847-3.844-3.847c-4.433,0-11.869,6.854-11.869,6.854V342.854z"/>
		</g>
		<g>
			<path fill="#808080" d="M351.909,316.605c0-4.345-2.591-6.935-6.937-6.935c-4.35,0-6.938,3.011-6.938,6.935v1.674h-4.177v-1.674
				c0-6.679,4.927-11.113,11.113-11.113c6.182,0,11.109,4.436,11.109,11.113v36.524h-4.176v-5.18c0,0-7.438,6.016-11.869,6.016
				c-4.426,0-8.025-3.6-8.025-8.024v-5.771c0-5.844,3.516-10.278,8.281-12.114l11.613-3.671L351.909,316.605L351.909,316.605z
				 M336.197,345.941c0,1.918,1.922,3.846,3.844,3.846c4.432,0,11.869-6.934,11.869-6.934V328.73l-9.859,3.09
				c-3.932,1.498-5.854,4.68-5.854,8.352V345.941L336.197,345.941z"/>
		</g>
		<g>
			<path fill="#808080" d="M380.716,353.13v-46.803h4.181v5.18c0,0,7.436-6.016,11.868-6.016c4.428,0,8.021,3.6,8.021,8.022v8.441
				h-4.177v-8.441c0-2.338-1.928-3.846-3.846-3.846c-4.436,0-11.867,6.854-11.867,6.854v36.605h-4.182L380.716,353.13
				L380.716,353.13z"/>
		</g>
		<g>
			<path fill="#808080" d="M438.194,349.787c3.845,0,6.935-3.088,6.935-6.934v-6.019h4.182v6.019c0,6.18-4.936,11.112-11.113,11.112
				h-1.84c-6.188,0-11.114-4.936-11.114-11.112v-26.248c0-6.179,4.93-11.113,11.114-11.113h1.84c6.181,0,11.113,4.936,11.113,11.113
				v10.789h-19.895v15.459c0,3.846,3.096,6.934,6.938,6.934H438.194z M445.128,323.294v-6.688c0-3.845-3.09-6.935-6.935-6.935h-1.84
				c-3.846,0-6.938,3.09-6.938,6.935v6.688H445.128z"/>
		</g>
		<g>
			<path fill="#808080" d="M472.686,289.289h4.177v56.652c0,1.674,3.183,3.846,5.519,3.846v4.182c-4.426,0-9.691-3.6-9.691-8.023
				L472.686,289.289L472.686,289.289z"/>
		</g>
	</g>
</g>
</svg>
