<?xml version="1.0" encoding="utf-8"?>
<!-- Generator: Adobe Illustrator 16.0.0, SVG Export Plug-In . SVG Version: 6.00 Build 0)  -->
<!DOCTYPE svg PUBLIC "-//W3C//DTD SVG 1.1//EN" "http://www.w3.org/Graphics/SVG/1.1/DTD/svg11.dtd">
<svg version="1.1" id="Layer_1" xmlns="http://www.w3.org/2000/svg" xmlns:xlink="http://www.w3.org/1999/xlink" x="0px" y="0px"
	 width="100px" height="100px" viewBox="0 0 100 100" enable-background="new 0 0 100 100" xml:space="preserve">
<g>
	<path fill="#808080" d="M50.017,11.762c14.316,0,28.631,0.002,42.945-0.003c0.897-0.001,1.779,0.076,2.63,0.376
		c2.645,0.931,4.199,3.462,3.959,6.09c-0.258,2.841-2.326,5.005-5.089,5.384c-0.472,0.064-0.946,0.099-1.424,0.099
		c-28.631,0.005-57.261,0.004-85.892,0.003c-0.83,0-1.649-0.047-2.457-0.271c-2.529-0.699-4.453-3.109-4.296-6.043
		c0.145-2.736,2.153-4.996,4.876-5.478c0.654-0.115,1.328-0.147,1.993-0.148c8.333-0.009,16.669-0.006,25.003-0.006
		c5.917,0,11.834,0,17.751,0C50.017,11.764,50.017,11.763,50.017,11.762z"/>
	<path fill="#808080" d="M50.002,76.294c14.314,0,28.63,0.002,42.946-0.003c0.8,0,1.587,0.057,2.354,0.283
		c2.605,0.767,4.452,3.195,4.256,6.07c-0.233,3.418-2.91,5.278-5.178,5.506c-0.441,0.045-0.888,0.088-1.331,0.088
		C64.419,88.242,35.79,88.24,7.159,88.24c-0.828,0-1.651-0.035-2.457-0.27c-2.694-0.779-4.47-3.261-4.315-6.031
		c0.153-2.734,2.149-5.006,4.867-5.488c0.654-0.114,1.328-0.149,1.992-0.149c8.334-0.01,16.669-0.006,25.004-0.008
		C38.169,76.294,44.085,76.294,50.002,76.294L50.002,76.294z"/>
	<path fill="#808080" d="M99.621,50.021c0,5.375,0.006,10.752-0.006,16.127c-0.001,0.633-0.036,1.274-0.148,1.896
		c-0.516,2.87-2.965,4.887-5.867,4.864c-2.947-0.021-5.371-2.109-5.82-5.034c-0.074-0.473-0.115-0.95-0.115-1.425
		c-0.003-10.943,0-21.887,0.003-32.828c0-0.832,0.076-1.653,0.335-2.447c0.785-2.416,3.064-4.219,5.914-4.084
		c2.826,0.133,5.091,2.158,5.553,4.902c0.104,0.623,0.141,1.266,0.141,1.898c0.013,5.375,0.009,10.752,0.009,16.128
		C99.615,50.021,99.62,50.021,99.621,50.021z"/>
	<path fill="#808080" d="M22.33,50.025c0.001-5.472-0.005-10.942,0.008-16.414c0.002-0.632,0.049-1.276,0.18-1.894
		c0.547-2.573,2.836-4.718,5.969-4.631c2.945,0.08,5.351,2.313,5.684,5.2c0.073,0.631,0.088,1.271,0.089,1.904
		c0.006,9.543,0.003,19.087,0.004,28.631c0,1.177,0.042,2.354,0.005,3.528c-0.023,0.728-0.076,1.472-0.261,2.17
		c-0.721,2.733-3.159,4.5-5.959,4.386c-2.768-0.114-5.024-2.027-5.563-4.765c-0.122-0.619-0.151-1.264-0.155-1.896
		c-0.014-2.703-0.002-5.407-0.001-8.111S22.33,52.729,22.33,50.025z"/>
	<path fill="#808080" d="M65.859,49.938c0-5.438-0.006-10.879,0.008-16.317c0.002-0.602,0.051-1.211,0.158-1.799
		c0.472-2.512,2.717-4.817,5.981-4.734c2.983,0.075,5.388,2.337,5.702,5.286c0.068,0.632,0.079,1.27,0.081,1.905
		c0.004,9.512,0.002,19.021,0.004,28.533c0,1.178,0.017,2.354,0.015,3.53c0,0.767-0.063,1.523-0.279,2.265
		c-0.773,2.672-3.178,4.408-5.938,4.299c-2.771-0.108-5.03-2.021-5.569-4.756c-0.123-0.615-0.156-1.262-0.156-1.895
		c-0.014-5.438-0.008-10.879-0.008-16.318H65.859z"/>
	<path fill="#808080" d="M12.443,49.968c0,5.375,0,10.751,0,16.127c0,0.827-0.011,1.649-0.233,2.46
		c-0.715,2.611-3.249,4.687-6.476,4.317c-2.767-0.313-5.001-2.662-5.186-5.507c-0.022-0.35-0.021-0.698-0.021-1.051
		c0-10.879,0.002-21.758,0.004-32.637c0.001-0.7,0.018-1.396,0.188-2.083c0.677-2.734,3.202-4.722,6.173-4.493
		c3.418,0.264,5.338,2.957,5.505,5.497c0.034,0.508,0.031,1.018,0.031,1.525c0.002,5.279,0.002,10.561,0.002,15.842
		C12.436,49.968,12.44,49.968,12.443,49.968z"/>
	<path fill="#808080" d="M44.062,49.927c0.001-5.438,0.001-10.879,0.001-16.317c0-0.668,0.024-1.33,0.183-1.988
		c0.648-2.688,3.127-4.733,6.153-4.52c3.015,0.214,5.316,2.532,5.529,5.475c0.04,0.57,0.034,1.145,0.034,1.718
		c0.001,9.956,0.001,19.913,0,29.868c0,1.019,0.003,2.037-0.014,3.054c-0.015,0.809-0.233,1.565-0.567,2.299
		c-0.883,1.941-3.076,3.657-5.997,3.368c-2.418-0.237-4.489-1.979-5.101-4.368c-0.132-0.521-0.191-1.064-0.213-1.603
		c-0.035-0.825-0.008-1.652-0.008-2.479C44.062,59.596,44.062,54.762,44.062,49.927z"/>
</g>
</svg>
