<?xml version="1.0" encoding="utf-8"?>
<!-- Generator: Adobe Illustrator 16.0.0, SVG Export Plug-In . SVG Version: 6.00 Build 0)  -->
<!DOCTYPE svg PUBLIC "-//W3C//DTD SVG 1.1//EN" "http://www.w3.org/Graphics/SVG/1.1/DTD/svg11.dtd">
<svg version="1.1" id="Layer_1" xmlns="http://www.w3.org/2000/svg" xmlns:xlink="http://www.w3.org/1999/xlink" x="0px" y="0px"
	 width="100px" height="100px" viewBox="0 0 100 100" enable-background="new 0 0 100 100" xml:space="preserve">
<path fill="#808080" d="M91.574,49.507c2.295-3.113,4.592-6.226,6.885-9.34c0.166-0.226,0.332-0.452,0.479-0.689
	c0.313-0.5,0.485-1.047,0.504-1.636c0.043-1.359-0.746-2.587-1.991-3.121c-1.229-0.524-2.63-0.252-3.595,0.693
	c-0.227,0.222-0.412,0.476-0.6,0.729c-1.921,2.606-3.843,5.213-5.765,7.817c-0.113,0.153-0.201,0.327-0.359,0.438
	c-0.024-0.007-0.047-0.005-0.053-0.016c-0.66-0.882-1.317-1.765-1.978-2.649c-0.062-0.08-0.056-0.158,0.006-0.236
	c0.076-0.098,0.146-0.197,0.219-0.297c0.372-0.51,0.751-1.012,1.113-1.527c0.444-0.635,0.653-1.344,0.621-2.125
	c-0.063-1.491-1.242-2.818-2.722-3.041c-1.223-0.184-2.237,0.208-3.063,1.12c-0.113,0.127-0.18,0.302-0.358,0.382
	c-0.201-0.217-0.385-0.448-0.601-0.648c-1.797-1.695-4.731-0.896-5.414,1.524c-0.051,0.185-0.071,0.377-0.116,0.563
	c-0.047,0.191-0.047,0.379,0.004,0.569c0.099,0.37,0.188,0.742,0.282,1.114c-0.014,0.247,0.14,0.425,0.262,0.613
	c0.339,0.531,0.73,1.022,1.107,1.525c0.146,0.195,0.244,0.377,0.063,0.611c-0.521,0.681-1.03,1.367-1.526,2.064
	c-0.172,0.243-0.324,0.211-0.481-0.021c-0.453-0.664-0.953-1.295-1.437-1.937c-0.218-0.291-0.187-0.521,0.035-0.793
	c0.353-0.435,0.688-0.883,1.006-1.342c0.217-0.312,0.469-0.617,0.44-1.038c0.019-0.102,0.031-0.206,0.056-0.306
	c0.123-0.502,0.139-1.011,0.014-1.508c-0.314-1.233-1.08-2.068-2.313-2.413c-1.208-0.34-2.279-0.038-3.189,0.825
	c-0.188,0.18-0.352,0.384-0.525,0.574c-0.275-0.106-0.376-0.392-0.573-0.58c-1.063-1.029-2.646-1.25-3.921-0.527
	c-1.281,0.726-1.914,2.183-1.572,3.628c0.021,0.103,0.039,0.204,0.056,0.307c-0.026,0.421,0.224,0.728,0.44,1.038
	c0.318,0.459,0.651,0.911,1.006,1.342c0.25,0.299,0.229,0.543,0.006,0.836c-0.465,0.611-0.946,1.213-1.371,1.854
	c-0.225,0.338-0.395,0.256-0.584-0.02c-0.248-0.359-0.502-0.715-0.766-1.063c-0.893-1.181-0.883-1.175-0.008-2.373
	c0.293-0.403,0.674-0.767,0.746-1.298c0.04-0.135,0.078-0.268,0.119-0.4c0.16-0.541,0.245-1.074,0.104-1.646
	c-0.188-0.761-0.55-1.398-1.154-1.892c-1.295-1.058-3.155-0.972-4.354,0.202c-0.197,0.192-0.371,0.408-0.555,0.61
	c-0.174-0.068-0.232-0.227-0.332-0.344c-0.613-0.707-1.375-1.119-2.314-1.196c-2.16-0.181-3.921,1.862-3.429,3.971
	c0.117,0.505,0.337,0.955,0.64,1.369c0.394,0.537,0.789,1.072,1.183,1.608c0.146,0.201,0.146,0.207,0,0.408
	c-0.61,0.832-1.228,1.662-1.842,2.491c-0.026,0.036-0.073,0.06-0.131,0.101c-0.082-0.104-0.161-0.194-0.231-0.291
	c-0.531-0.719-1.062-1.438-1.59-2.155c-0.053-0.071-0.104-0.142-0.157-0.211c-0.071-0.097-0.066-0.188,0.007-0.286
	c0.229-0.307,0.46-0.617,0.687-0.929c0.238-0.324,0.491-0.64,0.702-0.981c0.498-0.804,0.704-1.658,0.467-2.607
	c-0.39-1.564-1.896-2.641-3.499-2.478c-0.921,0.093-1.655,0.519-2.253,1.209c-0.097,0.113-0.156,0.265-0.31,0.33
	c-0.197-0.218-0.373-0.438-0.573-0.631c-1.653-1.601-4.396-1.045-5.288,1.075c-0.263,0.624-0.364,1.268-0.191,1.949
	c0.132,0.519,0.35,0.986,0.661,1.416c0.38,0.523,0.768,1.043,1.148,1.565c0.164,0.228,0.166,0.232,0.007,0.451
	c-0.601,0.818-1.204,1.636-1.807,2.453c-0.04,0.052-0.081,0.111-0.195,0.087c-0.629-0.853-1.271-1.728-1.919-2.599
	c-0.087-0.117-0.087-0.209,0.001-0.325c0.358-0.477,0.714-0.954,1.061-1.438c0.174-0.241,0.348-0.485,0.484-0.747
	c0.88-1.671,0.206-3.695-1.485-4.5c-1.341-0.636-2.906-0.293-3.913,0.853c-0.113,0.129-0.183,0.302-0.361,0.385
	c-0.199-0.217-0.385-0.447-0.598-0.647c-1.798-1.696-4.734-0.899-5.415,1.521c-0.052,0.184-0.073,0.378-0.12,0.564
	c-0.047,0.189-0.048,0.377,0.004,0.569c0.099,0.37,0.189,0.742,0.283,1.114c-0.015,0.247,0.141,0.425,0.262,0.613
	c0.339,0.531,0.731,1.022,1.109,1.525c0.146,0.195,0.241,0.377,0.063,0.611c-0.519,0.681-1.03,1.368-1.525,2.064
	c-0.174,0.243-0.325,0.211-0.484-0.021c-0.443-0.649-0.929-1.269-1.404-1.896c-0.224-0.293-0.244-0.537,0.004-0.836
	c0.355-0.43,0.688-0.882,1.009-1.341c0.217-0.312,0.468-0.618,0.438-1.038c0.024-0.119,0.049-0.238,0.072-0.357
	c0.231-1.23-0.068-2.305-1.003-3.148c-0.934-0.842-2.032-1.053-3.229-0.682c-0.672,0.209-1.201,0.632-1.63,1.187
	c-0.188,0.245-0.195,0.238-0.378,0.021c-0.112-0.134-0.221-0.271-0.344-0.396c-1.159-1.166-2.951-1.31-4.271-0.348
	c-1.295,0.946-1.712,2.683-0.978,4.129c0.134,0.263,0.305,0.51,0.478,0.751c0.347,0.484,0.705,0.958,1.058,1.439
	c0.148,0.205,0.15,0.211,0.009,0.404c-0.561,0.762-1.12,1.523-1.682,2.284c-0.272,0.367-0.249,0.408-0.563-0.016
	c-1.95-2.65-3.904-5.3-5.856-7.948c-0.196-0.27-0.39-0.542-0.639-0.766c-1.017-0.912-2.179-1.168-3.457-0.68
	c-1.834,0.699-2.616,2.821-1.703,4.567c0.153,0.293,0.352,0.565,0.547,0.833c2.334,3.172,4.673,6.342,7.009,9.513
	c0.101,0.138,0.228,0.263,0.274,0.435c-0.109,0.154-0.212,0.297-0.314,0.437C6.628,52.951,4.8,55.429,2.972,57.91
	c-0.582,0.789-1.169,1.574-1.745,2.365c-0.479,0.66-0.7,1.399-0.656,2.221c0.084,1.527,1.348,2.861,2.867,3.02
	c1.208,0.125,2.2-0.289,2.98-1.209c0.226-0.268,0.424-0.557,0.632-0.84c1.87-2.537,3.738-5.074,5.609-7.609
	c0.067-0.092,0.105-0.229,0.26-0.227c0.539,0.65,1.833,2.432,2.033,2.803c-0.1,0.138-0.2,0.281-0.304,0.422
	c-0.363,0.492-0.736,0.979-1.089,1.48c-0.574,0.814-0.766,1.727-0.53,2.695c0.6,2.455,3.563,3.324,5.411,1.641
	c0.219-0.199,0.409-0.424,0.613-0.637c0.279,0.156,0.423,0.449,0.654,0.654c1.072,0.955,2.626,1.127,3.855,0.412
	c1.264-0.734,1.879-2.17,1.547-3.601c-0.022-0.103-0.037-0.205-0.056-0.31c0.024-0.438-0.243-0.758-0.472-1.082
	c-0.333-0.471-0.686-0.93-1.038-1.385c-0.163-0.209-0.183-0.399-0.026-0.619c0.496-0.698,1.038-1.362,1.525-2.067
	c0.131-0.19,0.272-0.205,0.412-0.006c0.491,0.7,1.031,1.366,1.526,2.065c0.174,0.246,0.129,0.439-0.042,0.66
	c-0.395,0.512-0.796,1.021-1.139,1.57c-0.146,0.232-0.33,0.459-0.313,0.762c-0.021,0.102-0.041,0.203-0.064,0.307
	c-0.119,0.478-0.178,0.947-0.071,1.445c0.173,0.807,0.55,1.471,1.189,1.982c1.282,1.025,3.123,0.939,4.316-0.203
	c0.199-0.189,0.377-0.404,0.58-0.623c0.197,0.213,0.375,0.428,0.575,0.619c1.339,1.283,3.456,1.217,4.702-0.146
	c1.017-1.108,1.144-2.736,0.307-4.029c-0.2-0.309-0.43-0.598-0.646-0.893c-0.277-0.381-0.557-0.76-0.829-1.129
	c0.245-0.406,1.758-2.461,2.069-2.813c0.041,0.028,0.092,0.055,0.12,0.092c0.625,0.844,1.246,1.689,1.871,2.533
	c0.087,0.115,0.089,0.217-0.001,0.326c-0.088,0.11-0.166,0.227-0.25,0.338c-0.354,0.479-0.724,0.944-1.056,1.438
	c-0.551,0.815-0.774,1.703-0.536,2.688c0.427,1.781,2.28,2.886,4.05,2.396c0.683-0.188,1.235-0.563,1.696-1.088
	c0.099-0.111,0.162-0.264,0.314-0.324c0.213,0.23,0.401,0.459,0.617,0.66c1.594,1.467,4.148,1.018,5.135-0.91
	c0.344-0.67,0.483-1.377,0.306-2.135c-0.12-0.502-0.315-0.963-0.617-1.377c-0.402-0.551-0.812-1.1-1.214-1.648
	c-0.146-0.199-0.147-0.207-0.002-0.406c0.6-0.815,1.203-1.635,1.804-2.45c0.041-0.06,0.07-0.123,0.125-0.228
	c0.74,1.006,1.424,1.935,2.111,2.869c-0.103,0.146-0.188,0.277-0.278,0.404c-0.354,0.479-0.709,0.955-1.063,1.434
	c-0.222,0.297-0.394,0.617-0.515,0.969c-0.732,2.109,0.813,4.314,3.047,4.343c1.025,0.014,1.863-0.392,2.553-1.14
	c0.115-0.127,0.188-0.297,0.363-0.381c0.203,0.215,0.392,0.443,0.605,0.642c1.803,1.666,4.713,0.87,5.391-1.509
	c0.136-0.473,0.226-0.953,0.074-1.442c-0.062-0.199-0.091-0.408-0.134-0.613c0.021-0.303-0.166-0.526-0.312-0.76
	c-0.332-0.537-0.715-1.037-1.108-1.529c-0.229-0.28-0.228-0.506-0.017-0.791c0.479-0.646,0.979-1.276,1.438-1.938
	c0.174-0.246,0.318-0.23,0.479,0.006c0.455,0.664,0.953,1.295,1.438,1.938c0.22,0.289,0.188,0.521-0.032,0.793
	c-0.354,0.437-0.688,0.883-1.007,1.342c-0.218,0.313-0.472,0.619-0.442,1.039c-0.023,0.119-0.047,0.238-0.068,0.357
	c-0.137,0.723-0.088,1.426,0.229,2.1c0.959,2.035,3.617,2.529,5.25,0.974c0.178-0.17,0.326-0.365,0.488-0.547
	c0.055-0.063,0.124-0.063,0.18,0c0.178,0.192,0.336,0.401,0.526,0.582c1.063,0.989,2.642,1.164,3.886,0.438
	c1.258-0.734,1.871-2.17,1.539-3.598c-0.021-0.102-0.035-0.205-0.055-0.309c0.025-0.438-0.242-0.756-0.473-1.08
	c-0.332-0.472-0.685-0.931-1.037-1.387c-0.162-0.21-0.182-0.398-0.026-0.617c0.495-0.699,1.038-1.363,1.524-2.068
	c0.132-0.189,0.272-0.205,0.412-0.01c0.492,0.703,1.033,1.369,1.529,2.067c0.172,0.246,0.127,0.439-0.044,0.66
	c-0.395,0.515-0.798,1.021-1.14,1.572c-0.146,0.231-0.331,0.457-0.313,0.76c-0.021,0.104-0.041,0.205-0.064,0.308
	c-0.119,0.479-0.18,0.946-0.071,1.446c0.177,0.806,0.552,1.472,1.188,1.982c1.283,1.024,3.125,0.938,4.318-0.205
	c0.198-0.191,0.377-0.402,0.578-0.623c0.198,0.217,0.377,0.43,0.576,0.621c1.355,1.299,3.502,1.211,4.738-0.188
	c0.979-1.109,1.093-2.721,0.266-3.994c-0.209-0.322-0.449-0.623-0.678-0.934c-0.268-0.365-0.536-0.73-0.814-1.109
	c0.697-0.947,1.381-1.873,2.064-2.803c0.201,0.121,0.287,0.299,0.398,0.451c1.899,2.578,3.799,5.156,5.695,7.734
	c0.229,0.311,0.454,0.625,0.743,0.883c0.873,0.779,1.892,1.057,3.021,0.777c2.078-0.511,3.096-2.781,2.121-4.688
	c-0.148-0.299-0.35-0.563-0.549-0.832c-2.316-3.142-4.633-6.279-6.949-9.42c-0.082-0.114-0.162-0.23-0.25-0.337
	c-0.095-0.114-0.084-0.217,0.006-0.325C91.41,49.735,91.492,49.622,91.574,49.507z M21.068,50.141
	c-0.62,0.845-1.243,1.691-1.868,2.537c-0.1,0.135-0.164,0.146-0.241,0.039c-0.651-0.889-1.301-1.779-1.949-2.668
	c-0.009-0.015-0.009-0.031-0.013-0.048c0.474-0.729,1.781-2.471,2.068-2.754c0.281,0.281,1.627,2.076,2.069,2.761
	C21.115,50.049,21.099,50.101,21.068,50.141z M31.438,52.863c-0.72-0.978-1.394-1.891-2.05-2.783
	c-0.009-0.047-0.016-0.064-0.014-0.08c0.002-0.019,0.008-0.035,0.018-0.051c0.652-0.888,1.307-1.774,1.96-2.662
	c0.019-0.023,0.056-0.032,0.082-0.049c0.277,0.277,1.665,2.131,2.089,2.795C32.85,50.947,32.168,51.871,31.438,52.863z
	 M43.845,52.82c-0.068-0.053-0.117-0.076-0.146-0.111c-0.625-0.846-1.246-1.689-1.871-2.537c-0.066-0.092-0.104-0.176-0.026-0.282
	c0.654-0.886,1.308-1.771,2.011-2.726c0.722,0.979,1.404,1.906,2.102,2.848C45.214,50.959,44.531,51.889,43.845,52.82z
	 M56.232,52.797c-0.135-0.025-0.18-0.109-0.229-0.178c-0.581-0.789-1.163-1.576-1.744-2.367c-0.186-0.251-0.181-0.232,0.008-0.49
	c0.571-0.775,1.144-1.55,1.715-2.324c0.062-0.082,0.106-0.185,0.252-0.209c0.675,0.917,1.359,1.846,2.052,2.784
	C57.588,50.959,56.906,51.885,56.232,52.797z M70.371,50.401c-0.548,0.748-1.098,1.496-1.646,2.242
	c-0.145,0.191-0.184,0.193-0.309,0.027c-0.646-0.871-1.288-1.746-1.957-2.657c0.693-0.944,1.37-1.857,2.039-2.767
	c0.051,0.006,0.102-0.004,0.111,0.016c0.684,0.909,1.361,1.821,2.047,2.739C70.555,50.145,70.465,50.275,70.371,50.401z
	 M82.92,50.168c-0.637,0.857-1.27,1.714-1.904,2.57c-0.02,0.024-0.06,0.035-0.123,0.068c-0.68-0.921-1.361-1.847-2.061-2.792
	c0.689-0.938,1.373-1.865,2.063-2.797c0.061,0.039,0.115,0.056,0.144,0.094c0.626,0.844,1.247,1.69,1.872,2.532
	C82.992,49.956,83.01,50.047,82.92,50.168z"/>
</svg>
