<?xml version="1.0" encoding="utf-8"?>
<!-- Generator: Adobe Illustrator 16.0.0, SVG Export Plug-In . SVG Version: 6.00 Build 0)  -->
<!DOCTYPE svg PUBLIC "-//W3C//DTD SVG 1.1//EN" "http://www.w3.org/Graphics/SVG/1.1/DTD/svg11.dtd">
<svg version="1.1" id="Layer_1" xmlns="http://www.w3.org/2000/svg" xmlns:xlink="http://www.w3.org/1999/xlink" x="0px" y="0px"
	 width="100px" height="100px" viewBox="0 0 100 100" enable-background="new 0 0 100 100" xml:space="preserve">
<g>
	<path fill="#808080" d="M96.479,72.464c-0.084-0.946-0.215-1.886-0.412-2.817c-0.389-1.828-0.983-3.594-1.629-5.344
		c-1.108-3.01-2.765-5.703-4.766-8.191c-0.484-0.604-1.039-1.139-1.645-1.625c-0.506-0.403-1.049-0.747-1.688-0.914
		c-0.052-0.014-0.098-0.036-0.148-0.057c-0.094-0.039-0.142-0.106-0.127-0.209c0.066-0.557,0.004-1.108-0.015-1.666
		c-0.03-1.024-0.172-2.037-0.419-3.032c-0.488-1.949-1.326-3.744-2.373-5.45c-0.865-1.414-1.939-2.667-3.01-3.925
		c-0.838-0.989-1.795-1.854-2.777-2.694c-0.326-0.28-0.681-0.526-1.044-0.756c-1.269-0.796-2.63-1.383-4.058-1.824
		c-0.223-0.069-0.451-0.108-0.68-0.161c-0.1-0.021-0.219,0.029-0.283-0.066c-0.082-0.655-0.152-1.296-0.246-1.934
		c-0.178-1.174-0.455-2.325-0.908-3.422c-1.928-4.649-5.225-7.95-9.84-9.938c-0.59-0.254-1.202-0.469-1.857-0.504
		c-0.262-0.013-0.271-0.022-0.287-0.28c-0.039-0.683-0.162-1.354-0.319-2.018c-0.261-1.083-0.665-2.118-1.067-3.153
		c-0.229-0.585-0.48-1.16-0.829-1.686c-0.102-0.152-0.147-0.325-0.202-0.495c-0.287-0.87-0.64-1.713-1.068-2.521
		c-1.391-2.614-2.111-3.499-4.427-5.401c-1.082-0.887-2.332-1.389-3.746-1.43c-0.115-0.004-0.177-0.04-0.251-0.144
		c-0.325-0.465-0.908-0.422-1.165,0.073c-0.049,0.095-0.082,0.199-0.11,0.302c-0.116,0.405-0.115,0.816-0.033,1.226
		c0.178,0.891,0.585,1.649,1.321,2.209c0.073,0.056,0.124,0.113,0.143,0.213c0.137,0.72-0.014,1.39-0.342,2.027
		c-0.229,0.447-0.502,0.869-0.826,1.256c-0.334,0.397-0.673,0.794-1.013,1.187c-0.895,1.029-1.802,2.049-2.636,3.127
		c-1.175,1.521-2.07,3.186-2.573,5.045c-0.163,0.605-0.306,1.217-0.452,1.826c-0.031,0.131-0.08,0.22-0.214,0.279
		c-0.774,0.341-1.479,0.803-2.177,1.276c-2.792,1.896-5.262,4.155-7.488,6.683c-1.628,1.851-2.873,3.934-3.657,6.279
		c-0.44,1.319-0.724,2.664-0.711,4.06c0.006,0.627,0.019,1.252,0.029,1.925c-0.097,0-0.148,0.007-0.2-0.001
		c-0.624-0.089-1.211,0.033-1.772,0.312c-0.177,0.088-0.357,0.166-0.53,0.261c-1.55,0.852-2.958,1.897-4.22,3.134
		c-1.525,1.497-2.717,3.24-3.712,5.119c-0.666,1.257-1.171,2.578-1.505,3.961c-0.411,1.696-0.623,3.42-0.673,5.162
		c-0.021,0.737-0.017,1.474-0.012,2.207c0.008,1.151,0.155,2.289,0.396,3.414c0.094,0.438,0.208,0.87,0.317,1.305
		c0.027,0.107-0.005,0.179-0.109,0.205c-0.401,0.112-0.768,0.297-1.1,0.549c-1.471,1.105-2.785,2.371-3.851,3.88
		C7.099,69.85,6.727,70.4,6.369,70.958C5.28,72.645,4.5,74.462,4.041,76.42c-0.366,1.559-0.563,3.141-0.604,4.739
		c-0.042,1.688-0.032,3.373,0.334,5.032c0.244,1.106,0.537,2.196,1.18,3.153c0.24,0.357,0.465,0.718,0.551,1.148
		c0.022,0.12,0.095,0.231,0.157,0.341c0.583,1.021,1.287,1.943,2.193,2.7c1.311,1.092,2.688,2.096,4.147,2.979
		c2.187,1.323,4.556,2.173,7.067,2.611c1.84,0.321,3.697,0.454,5.57,0.365c1.581-0.072,3.143-0.271,4.678-0.646
		c1.48-0.36,2.933-0.817,4.382-1.282c0.393-0.127,0.787-0.23,1.201-0.276c0.641-0.071,1.279-0.179,1.917-0.267
		c0.586-0.084,1.171-0.17,1.759-0.244c0.409-0.051,0.82-0.088,1.231-0.119c0.411-0.034,0.826-0.101,1.234-0.07
		c0.413,0.027,0.818-0.029,1.227-0.021c1.058,0.023,2.116,0.017,3.174,0.047c1.973,0.056,3.946,0.063,5.918,0.043
		c1.258-0.012,2.515-0.057,3.768,0.037c1.626,0.121,3.251,0.293,4.876,0.433c1.25,0.103,2.501,0.196,3.756,0.272
		c0.931,0.056,1.859,0.074,2.794,0.099c1.76,0.043,3.516-0.019,5.264-0.229c1.602-0.192,3.188-0.488,4.767-0.83
		c1.507-0.328,2.983-0.76,4.38-1.434c0.661-0.321,1.309-0.668,1.979-0.969c1.246-0.564,2.412-1.258,3.514-2.069
		c0.766-0.565,1.497-1.173,2.214-1.796c1.778-1.553,3.386-3.254,4.737-5.197c0.935-1.348,1.714-2.772,2.25-4.328
		c0.521-1.52,0.82-3.084,0.896-4.684C96.607,74.795,96.582,73.629,96.479,72.464z M25.416,39.229c0.16-1.354,0.336-2.704,0.69-4.023
		c0.544-2.03,1.456-3.885,2.691-5.585c1.324-1.823,2.873-3.439,4.513-4.973c1.459-1.362,3.042-2.565,4.719-3.646
		c0.102-0.067,0.191-0.163,0.363-0.18c0,0.521-0.005,1.022,0.001,1.523c0.006,0.457,0.109,0.888,0.399,1.256
		c0.021,0.026,0.058,0.038,0.099,0.064c0.375-0.341,0.505-0.802,0.6-1.273c0.153-0.755,0.285-1.514,0.438-2.27
		c0.209-1.036,0.455-2.066,0.795-3.068c0.571-1.68,1.455-3.193,2.535-4.594c0.482-0.623,0.994-1.225,1.495-1.835
		c0.456-0.554,0.925-1.097,1.37-1.659c0.525-0.664,0.965-1.381,1.23-2.191c0.188-0.576,0.252-1.155,0.027-1.737
		c-0.038-0.097-0.006-0.16,0.058-0.239c0.208-0.255,0.22-0.371,0.036-0.605C47.3,3.97,47.103,3.76,46.91,3.547
		c-0.306-0.336-0.529-0.721-0.701-1.139c-0.026-0.065-0.048-0.135-0.061-0.206c-0.013-0.082,0.036-0.151,0.114-0.142
		c0.231,0.027,0.464,0.057,0.687,0.117c1.002,0.27,1.906,0.724,2.665,1.445c0.521,0.493,1.05,0.977,1.563,1.479
		c0.634,0.62,1.105,1.358,1.564,2.112c1.2,1.989,1.954,4.14,2.366,6.419c0.213,1.164,0.382,2.335,0.644,3.489
		c0.078,0.332,0.153,0.662,0.278,0.981c0.104,0.263,0.216,0.524,0.191,0.821c0.459-1.195,0.459-1.195,0.566-3.088
		c0.125,0.005,0.123,0.107,0.143,0.189c0.164,0.721,0.228,1.449,0.262,2.186c0.138,2.917-0.448,5.702-1.486,8.411
		c-0.588,1.53-1.342,2.971-2.303,4.299c-0.178,0.248-0.362,0.492-0.559,0.727c-1.248,1.483-2.554,2.912-3.982,4.226
		c-0.542,0.499-1.118,0.954-1.718,1.381c-0.438,0.311-0.877,0.621-1.322,0.925c-0.176,0.12-0.359,0.239-0.554,0.327
		c-1.698,0.766-3.396,1.528-5.099,2.283c-0.949,0.422-1.928,0.771-2.905,1.123c-1.313,0.476-2.636,0.929-3.928,1.457
		c-0.875,0.357-1.77,0.544-2.698,0.665c-0.625,0.082-1.25,0.101-1.875,0.153c-0.242,0.021-0.449-0.029-0.65-0.182
		c-0.299-0.229-0.627-0.416-0.905-0.673c-0.542-0.497-0.895-1.116-1.168-1.786c-0.237-0.58-0.419-1.181-0.578-1.788
		C25.42,39.585,25.394,39.408,25.416,39.229z M95.137,75.648c-0.143,3.106-1.115,5.928-2.882,8.487
		c-1.272,1.841-2.753,3.492-4.403,4.994c-1.564,1.429-3.166,2.813-4.846,4.104c-0.222,0.168-0.449,0.262-0.723,0.319
		c-0.736,0.161-1.463,0.351-2.188,0.55c-2.094,0.572-4.209,1.054-6.344,1.429c-1.463,0.259-2.939,0.45-4.43,0.51
		c-2.156,0.087-4.305,0.017-6.452-0.11c-0.7-0.041-1.397-0.067-2.097-0.119c-1.32-0.1-2.644-0.196-3.965-0.315
		c-1.701-0.155-3.404-0.164-5.109-0.14c-0.502,0.01-1.004,0.021-1.505,0.029c-1.901,0.037-3.803,0.037-5.703,0.117
		c-1.38,0.061-2.762-0.006-4.14,0.074c-0.394,0.021-0.787,0.053-1.185,0.08c0.046-0.137,0.171-0.156,0.279-0.203
		c0.771-0.34,1.54-0.682,2.313-1.016c2.586-1.114,5.055-2.461,7.515-3.827c0.141-0.077,0.284-0.151,0.431-0.216
		c4.261-1.943,8.358-4.193,12.373-6.599c3.038-1.817,5.909-3.866,8.677-6.069c1.275-1.018,2.542-2.047,3.756-3.143
		c2.004-1.804,3.889-3.718,5.543-5.854c0.877-1.139,1.697-2.313,2.342-3.603c0.271-0.547,0.523-1.103,0.734-1.676
		c0.061-0.164,0.113-0.338,0.156-0.513c0.039-0.16,0.014-0.319-0.061-0.471c-0.095-0.193-0.354-0.234-0.49-0.063
		c-0.103,0.126-0.178,0.268-0.254,0.408c-0.25,0.459-0.489,0.918-0.738,1.375c-0.907,1.66-2.028,3.171-3.234,4.619
		c-1.773,2.133-3.758,4.052-5.861,5.848c-2.926,2.494-5.987,4.806-9.229,6.871c-2.539,1.617-5.15,3.121-7.799,4.557
		c-2.285,1.234-4.613,2.391-6.928,3.566c-1.245,0.636-2.505,1.246-3.718,1.938c-1.826,1.041-3.756,1.853-5.677,2.688
		c-0.509,0.222-1.02,0.438-1.53,0.66c-1.381,0.602-2.818,1.049-4.259,1.48c-0.617,0.184-1.256,0.289-1.884,0.438
		c-0.821,0.195-1.622,0.455-2.392,0.8c-0.531,0.235-1.076,0.386-1.659,0.407c-0.429,0.021-0.857,0.074-1.286,0.115
		c-1.631,0.148-3.262,0.115-4.889-0.031c-2.993-0.271-5.852-1.032-8.511-2.463c-0.979-0.527-1.913-1.129-2.832-1.758
		c-0.636-0.434-1.283-0.859-1.86-1.371c-1.057-0.942-1.941-2.014-2.447-3.358c-0.032-0.084-0.041-0.204-0.1-0.242
		c-0.31-0.199-0.259-0.526-0.322-0.813c-0.32-1.455-0.507-2.933-0.573-4.42c-0.049-1.113,0.018-2.225,0.087-3.334
		c0.199-3.221,1.035-6.246,2.742-9.013c0.708-1.146,1.442-2.267,2.38-3.247c0.634-0.662,1.316-1.271,2.017-1.859
		c0.235-0.196,0.5-0.346,0.769-0.488c0.074-0.038,0.153-0.006,0.163,0.076c0.082,0.732,0.461,1.349,0.805,1.968
		c0.396,0.713,1.028,1.188,1.783,1.489c1.012,0.403,2.063,0.593,3.154,0.554c0.215-0.009,0.431-0.013,0.644-0.027
		c0.419-0.032,0.806-0.146,1.123-0.45c-0.28-0.289-0.604-0.451-0.975-0.552c-0.606-0.163-1.217-0.295-1.838-0.393
		c-0.587-0.093-1.158-0.24-1.715-0.44c-0.606-0.217-1.086-0.601-1.487-1.109c-0.386-0.486-0.633-1.02-0.777-1.627
		c-0.307-1.293-0.525-2.598-0.636-3.925c-0.098-1.183-0.109-2.364-0.062-3.547c0.079-2.012,0.314-4.003,0.923-5.936
		c0.314-0.994,0.717-1.95,1.209-2.869c0.782-1.46,1.7-2.828,2.811-4.06c1.4-1.548,3.054-2.762,4.912-3.703
		c0.384-0.194,0.781-0.369,1.23-0.342c0.089,0.006,0.181,0.002,0.267,0.019c0.276,0.055,0.477,0.157,0.542,0.491
		c0.116,0.585,0.384,1.116,0.683,1.63c0.19,0.328,0.421,0.623,0.691,0.89c0.612,0.604,1.417,0.801,2.199,1.048
		c0.592,0.025,1.184,0.069,1.774,0.013c1.108-0.106,2.213-0.264,3.267-0.626c0.734-0.252,1.49-0.377,2.24-0.544
		c3.964-0.876,7.654-2.381,10.958-4.773c0.043-0.031,0.086-0.064,0.131-0.094c2.136-1.372,3.901-3.146,5.548-5.056
		c0.34-0.394,0.717-0.756,1.06-1.146c1.985-2.245,3.282-4.858,4.104-7.723c0.313-1.088,0.574-2.186,0.717-3.309
		c0.076-0.621,0.156-1.245,0.145-1.876c-0.006-0.251-0.002-0.502,0.004-0.753c0.002-0.113,0.067-0.167,0.168-0.142
		c0.139,0.038,0.276,0.08,0.412,0.128c0.963,0.345,1.877,0.799,2.774,1.289c0.427,0.233,0.801,0.544,1.188,0.835
		c1.104,0.834,2.164,1.722,3.071,2.77c2.015,2.328,3.349,4.985,3.823,8.052c0.189,1.228,0.299,2.458,0.255,3.697
		c-0.06,1.617-0.319,3.21-0.741,4.772c-0.301,1.127-0.697,2.223-1.125,3.307c-0.093,0.232-0.219,0.451-0.348,0.666
		c-0.359,0.599-0.729,1.194-1.1,1.787c-0.459,0.733-1.031,1.377-1.619,2.007c-0.539,0.577-1.109,1.122-1.688,1.661
		c-1.935,1.805-4.034,3.393-6.24,4.845c-2.698,1.774-5.479,3.403-8.399,4.79c-1.896,0.9-3.837,1.688-5.793,2.436
		c-4.166,1.601-8.426,2.914-12.727,4.101c-1.554,0.428-3.105,0.862-4.658,1.299c-0.45,0.124-0.875,0.313-1.306,0.492
		c-0.264,0.106-0.522,0.239-0.813,0.269l0,0c0.031,0.035,0.062,0.071,0.092,0.106c0.089-0.004,0.179-0.017,0.269-0.013
		c1.447,0.068,2.855-0.194,4.262-0.485c3.127-0.642,6.18-1.556,9.219-2.521c3.193-1.019,6.335-2.17,9.413-3.498
		c3.446-1.485,6.741-3.259,9.884-5.31c1.293-0.844,2.547-1.742,3.789-2.653c1.306-0.957,2.478-2.068,3.659-3.166
		c0.529-0.487,1.033-0.998,1.539-1.507c0.879-0.882,1.631-1.86,2.224-2.958c0.468-0.868,0.957-1.722,1.423-2.592
		c0.854-1.607,1.469-3.308,1.854-5.086c0.223-1.019,0.315-2.055,0.309-3.099c-0.008-0.65-0.042-0.655,0.607-0.414
		c1.277,0.469,2.547,0.962,3.696,1.712c0.849,0.553,1.595,1.213,2.277,1.955c0.905,0.975,1.748,1.998,2.588,3.027
		c1.425,1.754,2.545,3.685,3.324,5.81c0.526,1.444,0.774,2.937,0.85,4.472c0.078,1.63-0.164,3.219-0.508,4.796
		c-0.313,1.438-0.677,2.861-1.065,4.281c-0.074,0.278-0.109,0.555-0.084,0.832c0.102,0.043,0.147-0.021,0.188-0.074
		c0.115-0.161,0.246-0.315,0.33-0.489c0.75-1.552,1.426-3.132,1.91-4.787c0.173-0.584,0.301-1.183,0.393-1.783
		c0.018-0.122,0.004-0.256,0.145-0.369c0.166,0.115,0.347,0.229,0.515,0.361c0.894,0.698,1.705,1.485,2.354,2.422
		c0.98,1.414,1.924,2.855,2.735,4.377c0.808,1.506,1.415,3.096,1.944,4.717c0.4,1.227,0.797,2.453,1.053,3.722
		c0.189,0.933,0.328,1.87,0.404,2.818C95.148,73.712,95.18,74.68,95.137,75.648z"/>
	<path fill="#808080" d="M22.946,68.26c0.005,0.002,0.011,0.004,0.016,0.004h0.001C22.957,68.262,22.951,68.262,22.946,68.26z"/>
	<path fill="#808080" d="M22.963,68.264c0.075,0.021,0.15,0.021,0.226,0.017c0.103-0.021,0.199-0.074,0.293-0.14l0,0
		C23.304,68.117,23.157,68.191,22.963,68.264z"/>
	<path fill="#808080" d="M23.189,68.279c-0.073,0.014-0.148,0.012-0.227-0.017c-0.033,0.015-0.066,0.025-0.102,0.036
		c0.427,0.055,0.427,0.055,0.714-0.052C23.446,68.238,23.317,68.268,23.189,68.279z"/>
</g>
</svg>
