<?xml version="1.0" encoding="utf-8"?>
<!-- Generator: Adobe Illustrator 16.0.0, SVG Export Plug-In . SVG Version: 6.00 Build 0)  -->
<!DOCTYPE svg PUBLIC "-//W3C//DTD SVG 1.1//EN" "http://www.w3.org/Graphics/SVG/1.1/DTD/svg11.dtd">
<svg version="1.1" id="Layer_1" xmlns="http://www.w3.org/2000/svg" xmlns:xlink="http://www.w3.org/1999/xlink" x="0px" y="0px"
	 width="100px" height="100px" viewBox="0 0 100 100" enable-background="new 0 0 100 100" xml:space="preserve">
<g>
	<path fill="#808080" d="M90.135,81.65c0.286-1.026,0.76-1.974,1.273-2.898c0.271-0.486,0.617-0.943,0.82-1.458
		c0.195-0.496,0.244-1.048,0.373-1.569c0.395-1.569,0.801-3.137,1.193-4.703c0.318-1.263,0.576-2.535,0.74-3.824
		c0.156-1.231,0.201-2.471,0.216-3.71c0.008-0.8-0.019-1.601-0.076-2.396c-0.014-0.179,0.015-0.396-0.118-0.516
		c-0.218-0.19-0.258-0.563-0.611-0.611c-0.859-0.463-1.536-1.144-2.178-1.858c-0.384-0.432-0.734-0.887-1.099-1.328
		c-0.14,0.037-0.073,0.133-0.071,0.195c0.029,0.859,0.065,1.719,0.098,2.577c0.006,0.14,0.005,0.279-0.008,0.42
		c-0.061,0.646-0.187,1.283-0.193,1.931c-0.158-0.004-0.17-0.094-0.192-0.166c-0.089-0.284-0.153-0.578-0.264-0.856
		c-0.494-1.253-0.748-2.567-0.958-3.891c-0.21-1.321-0.395-2.648-0.553-3.979c-0.123-1.032-0.196-2.069-0.28-3.104
		c-0.13-1.633-0.281-3.265-0.446-4.896c-0.142-1.412-0.349-2.814-0.598-4.212c-0.104-0.59-0.15-1.189-0.223-1.785
		c-0.008-0.078-0.021-0.159-0.01-0.237c0.04-0.309,0.342-0.462,0.629-0.331c0.154,0.07,0.27,0.182,0.342,0.324
		c0.108,0.214,0.218,0.43,0.291,0.656c0.584,1.81,1.006,3.654,1.222,5.549c0.247,2.187,0.427,4.376,0.601,6.568
		c0.037,0.458,0.088,0.916,0.135,1.373c0.021,0.198,0.058,0.392,0.162,0.571c0.977,1.658,2.037,3.25,3.478,4.56
		c0.34,0.31,0.67,0.63,1.001,0.949c0.145,0.139,0.284,0.282,0.413,0.434c0.207,0.245,0.343,0.517,0.457,0.825
		c0.378,1.055,0.464,2.141,0.495,3.244c0.07,2.516-0.225,4.986-0.827,7.426c-0.441,1.783-1.001,3.534-1.544,5.288
		c-0.061,0.19-0.127,0.379-0.184,0.57c-0.336,1.136-0.809,2.212-1.41,3.23c-0.03,0.052-0.045,0.122-0.09,0.154
		c-0.34,0.263-0.396,0.664-0.515,1.035c-0.341,1.086-0.662,2.178-1.093,3.233c-0.189,0.465-0.401,0.916-0.707,1.315
		c-0.286,0.373-0.602,0.701-1.12,0.711c-0.12,0.002-0.172,0.09-0.19,0.194c-0.055,0.313-0.097,0.63-0.158,0.941
		c-0.191,0.965-0.506,1.887-0.95,2.768c-0.507,0.999-1.037,1.981-1.564,2.969c-0.116,0.22-0.518,0.4-0.229,0.761
		c0.012,0.017-0.021,0.076-0.044,0.104c-0.11,0.112-0.211,0.247-0.342,0.329c-0.242,0.153-0.438,0.349-0.612,0.569
		c-0.074,0.091-0.164,0.175-0.263,0.242c-0.168,0.117-0.348,0.209-0.551,0.069c-0.133-0.09-0.267-0.047-0.402-0.008
		c-1.373,0.384-2.78,0.547-4.191,0.686c-0.996,0.102-1.994,0.129-2.993,0.148c-1.144,0.022-2.276-0.076-3.411-0.188
		c-0.935-0.092-1.865-0.218-2.8-0.313c-0.698-0.072-1.364-0.297-2.053-0.424c-0.06-0.011-0.116-0.029-0.173-0.046
		c-0.367-0.104-0.684-0.042-1.014,0.179c-0.597,0.398-1.229,0.746-1.85,1.108c-0.155,0.09-0.309,0.194-0.477,0.252
		c-0.554,0.195-1.035,0.513-1.527,0.817c-0.459,0.281-0.934,0.537-1.418,0.775c-0.866,0.426-1.781,0.577-2.735,0.517
		c-0.858-0.06-1.717-0.11-2.569-0.205c-0.612-0.067-1.235-0.089-1.819-0.331c-0.229-0.096-0.456-0.156-0.481-0.456
		c-0.011-0.103-0.104-0.11-0.185-0.101c-2.101,0.234-4.034-0.347-5.906-1.217c-0.634-0.295-1.24-0.643-1.834-1.015
		c-0.103-0.063-0.191-0.104-0.33-0.06c-1.088,0.373-2.221,0.485-3.36,0.528c-1.042,0.039-2.069,0.173-3.098,0.326
		c-0.888,0.134-1.773,0.308-2.679,0.282c-0.481-0.016-0.958-0.061-1.42-0.201c-0.095-0.027-0.202-0.042-0.282-0.095
		c-0.407-0.267-0.877-0.376-1.321-0.55c-0.502-0.196-0.991-0.424-1.462-0.689c-1.026-0.582-2.032-1.193-3.022-1.836
		c-0.792-0.514-1.54-1.077-2.083-1.896c-0.459,0.166-0.91,0.097-1.367,0.045c-0.615-0.072-1.234-0.114-1.852-0.155
		c-0.64-0.043-1.273-0.121-1.89-0.306c-0.138-0.041-0.273-0.057-0.413-0.057c-1.035-0.01-2.012-0.271-2.95-0.699
		c-0.144-0.064-0.296-0.117-0.446-0.172c-0.774-0.275-1.502-0.644-2.189-1.1c-1.018-0.676-1.996-1.401-2.861-2.268
		c-0.24-0.24-0.46-0.502-0.68-0.76c-0.461-0.543-0.776-1.161-0.933-1.857c-0.093-0.406-0.175-0.819-0.273-1.228
		c-0.288-1.183-0.604-2.36-0.865-3.55c-0.28-1.279-0.818-2.458-1.312-3.658c-0.144-0.351-0.292-0.699-0.421-1.056
		c-0.088-0.241-0.189-0.485-0.13-0.759c0.025-0.119-0.035-0.232-0.077-0.346c-1.116-3.023-1.904-6.139-2.576-9.285
		c-0.417-1.953-0.87-3.9-1.31-5.849c-0.167-0.739-0.345-1.478-0.515-2.217c-0.106-0.46-0.026-0.901,0.072-1.359
		c0.198-0.938,0.729-1.671,1.341-2.364c0.569-0.646,1.174-1.258,1.805-1.844c0.923-0.854,1.854-1.704,2.783-2.556
		c0.189-0.174,0.358-0.332,0.419-0.622c0.079-0.367,0.414-0.571,0.737-0.742c0.337-0.182,0.704-0.283,1.077-0.354
		c0.628-0.121,1.254-0.254,1.899-0.242c0.102,0.001,0.214-0.017,0.21-0.148c-0.015-0.718,0.005-1.433,0.135-2.148
		c-0.204-0.051-0.311,0.104-0.458,0.132c-0.201,0.036-0.382-0.022-0.473-0.175c-0.103-0.171-0.093-0.351,0.013-0.511
		c0.123-0.185,0.305-0.313,0.5-0.42c0.35-0.194,0.695-0.396,1.053-0.57c0.753-0.368,1.513-0.721,2.272-1.079
		c0.198-0.095,0.404-0.174,0.597-0.277c2.044-1.106,4.211-1.918,6.417-2.629c2.281-0.735,4.583-1.397,6.915-1.947
		c0.837-0.197,1.684-0.345,2.551-0.303c0.141,0.006,0.281,0.005,0.419,0.025c0.291,0.044,0.55,0.128,0.842-0.112
		c0.229-0.188,0.577-0.103,0.858,0.035c0.513,0.249,0.945,0.58,1.209,1.113c0.319,0.646,0.593,1.31,0.808,1.997
		c0.023,0.074,0.024,0.163,0.142,0.182c0.079-0.064,0.028-0.162,0.024-0.244c-0.069-1.037-0.195-2.07-0.139-3.111
		c0.042-0.766-0.122-1.513-0.189-2.268c-0.1-1.135-0.223-2.268-0.321-3.402c-0.116-1.354-0.228-2.708-0.319-4.063
		c-0.08-1.176-0.115-2.355-0.196-3.531c-0.118-1.696-0.124-3.396-0.147-5.095c-0.015-1.099,0.044-2.198,0.105-3.296
		c0.037-0.679,0.062-1.357,0.061-2.037c0-0.76-0.001-1.521,0.015-2.279c0.004-0.279,0.052-0.557,0.085-0.834
		c0.017-0.14,0.046-0.277,0.151-0.383c0.161-0.161,0.226-0.376,0.315-0.575c0.674-1.516,1.638-2.832,2.77-4.033
		c0.233-0.247,0.461-0.491,0.663-0.771c0.332-0.46,0.802-0.776,1.291-1.054c0.877-0.498,1.819-0.819,2.818-0.958
		c1.609-0.222,3.227-0.229,4.847-0.14c0.842,0.047,1.664,0.177,2.486,0.355c0.578,0.127,1.045,0.462,1.606,0.664
		c-0.905,0.387-1.813,0.454-2.728,0.468c-1.44,0.022-2.879,0.063-4.318,0.089c-1.165,0.021-2.31,0.158-3.427,0.507
		c-0.369,0.115-0.682,0.302-0.975,0.56c-1.345,1.185-2.526,2.506-3.439,4.054c-0.385,0.653-0.72,1.336-1.091,1.997
		c-0.104,0.188-0.128,0.373-0.119,0.575c0.019,0.439,0.023,0.88,0.056,1.318c0.074,1.038,0.098,2.077,0.096,3.117
		c-0.002,1.38-0.02,2.761,0.028,4.138c0.061,1.718,0.179,3.432,0.275,5.147c0.054,0.978,0.112,1.955,0.173,2.932
		c0.1,1.596,0.218,3.19,0.301,4.786c0.086,1.678,0.11,3.357,0.047,5.038c-0.01,0.277-0.026,0.562,0.006,0.837
		c0.286,2.492,0.223,4.992,0.209,7.49c-0.012,2.181,0.013,4.359,0.105,6.538c0.094,2.236,0.11,4.477,0.182,6.715
		c0.054,1.699,0.144,3.396,0.212,5.095c0.023,0.599,0.024,1.198,0.046,1.798c0.012,0.323-0.027,0.639-0.065,0.958
		c-0.009,0.082-0.034,0.154-0.137,0.193c-0.163-0.295-0.287-0.604-0.354-0.938c-0.258-1.293-0.449-2.599-0.578-3.912
		c-0.187-1.932-0.232-3.869-0.271-5.808c-0.038-1.92-0.061-3.839-0.129-5.757c-0.062-1.7-0.064-3.398-0.032-5.098
		c0.015-0.739,0.049-1.479,0.074-2.217c0.004-0.145,0.008-0.287-0.192-0.296c-0.41-0.408-0.847-0.794-1.073-1.35
		c-0.255-0.63-0.52-1.255-0.764-1.888c-0.244-0.636-0.5-1.263-0.818-1.864c-0.076-0.143-0.153-0.276-0.287-0.376
		c-0.102-0.076-0.207-0.122-0.332-0.084c-1.306,0.386-2.67,0.488-3.983,0.84c-3.278,0.877-6.551,1.77-9.712,3.023
		c-0.705,0.28-1.395,0.595-2.089,0.9c-1.113,0.492-2.225,0.989-3.335,1.487c-0.26,0.116-0.26,0.123-0.242,0.403
		c0.044,0.737,0.024,1.48,0.161,2.211c0.029,0.157,0.018,0.34,0.166,0.436c0.256,0.165,0.234,0.33,0.048,0.529
		c-0.074,0.081-0.029,0.188-0.022,0.288c0.081,1.138,0.263,2.262,0.434,3.388c0.218,1.441,0.436,2.885,0.681,4.322
		c0.291,1.714,0.605,3.423,0.916,5.132c0.199,1.102,0.416,2.198,0.609,3.301c0.048,0.274,0.04,0.558,0.05,0.838
		c0.007,0.191,0.001,0.386,0.001,0.56c-0.152,0.061-0.179-0.043-0.22-0.095c-0.655-0.831-0.997-1.814-1.353-2.79
		c-0.696-1.902-1.112-3.873-1.434-5.869c-0.312-1.936-0.559-3.875-0.785-5.821c-0.095-0.813-0.194-1.629-0.189-2.45
		c0.001-0.079-0.003-0.159-0.011-0.238c-0.009-0.117-0.067-0.187-0.19-0.169c-0.514,0.077-1.025,0.16-1.54,0.235
		c-0.339,0.052-0.596,0.182-0.839,0.466c-0.44,0.514-0.962,0.957-1.459,1.422c-0.775,0.724-1.556,1.438-2.333,2.158
		c-0.108,0.103-0.21,0.209-0.338,0.338c0.212,0.042,0.297-0.089,0.404-0.161c0.708-0.486,1.422-0.966,2.165-1.399
		c0.742-0.434,1.508-0.82,2.319-1.11c0.204-0.073,0.411-0.166,0.638-0.133c0.053,0.007,0.108,0.043,0.151,0.079
		c0.065,0.052,0.015,0.108-0.009,0.159c-0.075,0.146-0.198,0.249-0.324,0.348c-0.535,0.42-1.084,0.82-1.664,1.177
		c-0.067,0.042-0.134,0.087-0.207,0.12c-1.328,0.583-2.499,1.408-3.577,2.371c-0.165,0.146-0.336,0.284-0.508,0.42
		c-0.692,0.545-1.356,1.123-1.984,1.737c-0.131,0.131-0.179,0.25-0.106,0.425c0.07,0.166,0.117,0.339,0.181,0.508
		c0.635,1.688,1.034,3.442,1.415,5.198c0.843,3.886,1.808,7.74,2.852,11.574c0.273,1.004,0.519,2.014,0.643,3.048
		c0.02,0.161,0.066,0.311,0.13,0.458c0.11,0.257,0.22,0.515,0.316,0.775c0.104,0.284,0.239,0.52,0.497,0.715
		c0.343,0.26,0.487,0.677,0.624,1.073c0.281,0.813,0.53,1.636,0.738,2.468c0.146,0.582,0.303,1.16,0.428,1.746
		c0.104,0.485,0.337,0.89,0.659,1.258c0.609,0.694,1.303,1.295,2.032,1.86c1.156,0.896,2.404,1.651,3.642,2.423
		c0.152,0.094,0.314,0.18,0.455,0.288c0.397,0.313,0.863,0.41,1.348,0.417c0.842,0.014,1.676,0.092,2.51,0.194
		c0.396,0.048,0.796,0.067,1.195,0.101c0.573,0.047,1.143,0.121,1.752,0.289c-0.159-0.521-0.398-0.933-0.637-1.339
		c-0.342-0.586-0.713-1.155-1.069-1.733c-0.116-0.188-0.231-0.373-0.335-0.567c-0.066-0.121-0.119-0.254-0.16-0.388
		c-0.065-0.213-0.01-0.389,0.137-0.478c0.125-0.077,0.294-0.059,0.442,0.067c0.121,0.104,0.236,0.218,0.336,0.342
		c0.442,0.541,0.883,1.083,1.314,1.636c0.579,0.739,1.091,1.529,1.588,2.326c0.216,0.347,0.485,0.634,0.811,0.87
		c0.275,0.199,0.556,0.393,0.84,0.577c2.077,1.354,4.237,2.563,6.44,3.7c0.247,0.125,0.481,0.152,0.748,0.107
		c0.965-0.166,1.93-0.33,2.899-0.474c0.572-0.084,1.148-0.155,1.725-0.194c0.958-0.063,1.916-0.102,2.874-0.148
		c0.057-0.004,0.135,0.008,0.137-0.07c0.002-0.048-0.033-0.107-0.068-0.146c-0.182-0.192-0.406-0.326-0.654-0.41
		c-0.32-0.112-0.646-0.209-0.967-0.314c-0.152-0.048-0.312-0.083-0.449-0.161c-0.287-0.159-0.3-0.55-0.041-0.756
		c0.165-0.132,0.357-0.172,0.563-0.172c0.755-0.006,1.465,0.157,2.115,0.557c0.614,0.373,1.235,0.734,1.845,1.112
		c1.502,0.932,3.112,1.625,4.788,2.175c0.949,0.312,1.885,0.656,2.771,1.117c0.37,0.19,0.751,0.262,1.151,0.278
		c1.139,0.043,2.277,0.074,3.418,0.049c0.794-0.018,1.54-0.186,2.244-0.555c0.867-0.457,1.705-0.955,2.494-1.539
		c0.528-0.394,1.104-0.725,1.655-1.082c1.444-0.932,2.884-1.871,4.335-2.789c0.523-0.332,1.073-0.617,1.615-0.918
		c0.139-0.075,0.29-0.135,0.443-0.174c0.238-0.063,0.471-0.235,0.734-0.086c0.03,0.25-0.076,0.467-0.171,0.685
		c-0.09,0.202-0.19,0.396-0.347,0.558c-0.471,0.492-0.955,0.967-1.536,1.334c-0.438,0.277-0.87,0.567-1.306,0.85
		c-0.082,0.054-0.158,0.106-0.271,0.229c0.601,0.085,1.124,0.179,1.654,0.231c1.013,0.104,2.03,0.166,3.043,0.281
		c1.259,0.144,2.519,0.121,3.774,0.056c1.758-0.091,3.504-0.288,5.23-0.644c0.41-0.082,0.83-0.117,1.248-0.156
		c0.221-0.021,0.357-0.1,0.465-0.305c0.678-1.313,1.376-2.615,2.049-3.934c0.316-0.623,0.642-1.242,1.01-1.835
		c0.121-0.193,0.192-0.388,0.217-0.613c0.053-0.555,0.101-1.112,0.188-1.663c0.08-0.49,0.202-0.976,0.318-1.459
		c0.391-1.632,0.792-3.261,1.173-4.896c0.39-1.672,0.702-3.361,0.915-5.067c0.119-0.952,0.239-1.904,0.355-2.854
		c0.01-0.062,0.01-0.121,0.022-0.181c0.048-0.2,0.185-0.325,0.361-0.349c0.2-0.023,0.347,0.063,0.454,0.226
		c0.08,0.121,0.113,0.257,0.119,0.398c0.018,0.317,0.049,0.637,0.049,0.956c0,2.048-0.27,4.064-0.699,6.063
		c-0.21,0.976-0.452,1.943-0.68,2.917c-0.064,0.562-0.2,1.103-0.434,1.646C89.859,82.619,89.824,82.064,90.135,81.65z"/>
	<path fill="#808080" d="M68.422,3.864c-0.124,0.123-0.306,0.03-0.458,0.113c0.158,0.374,0.324,0.736,0.468,1.107
		c0.529,1.37,0.815,2.8,0.951,4.256c0.108,1.135,0.145,2.274,0.254,3.408c0.164,1.734,0.094,3.474,0.152,5.21
		c0.025,0.739,0.044,1.479,0.038,2.22c-0.015,1.578-0.036,3.158-0.072,4.737c-0.032,1.339-0.065,2.678-0.138,4.015
		c-0.1,1.836-0.258,3.668-0.508,5.491c-0.021,0.157-0.045,0.319-0.029,0.476c0.113,1.055,0.158,2.111,0.146,3.172
		c0,0.038,0.017,0.076,0.024,0.115c0.133,0.044,0.167-0.079,0.222-0.146c0.325-0.406,0.682-0.786,1.055-1.146
		c0.568-0.548,1.207-0.983,1.938-1.281c0.222-0.09,0.437-0.197,0.648-0.307c1.12-0.575,2.31-0.859,3.567-0.908
		c1.588-0.063,3.09,0.302,4.576,0.797c1.184,0.395,2.277,0.966,3.318,1.643c0.182,0.119,0.344,0.271,0.504,0.422
		c0.23,0.218,0.447,0.448,0.674,0.676c-0.054,0.138-0.168,0.065-0.25,0.074c-0.957,0.088-1.861-0.149-2.757-0.448
		c-0.945-0.316-1.888-0.648-2.836-0.955c-1.149-0.372-2.334-0.55-3.542-0.514c-0.499,0.015-0.996,0.066-1.492,0.124
		c-0.497,0.058-0.99,0.156-1.49,0.14c-0.18-0.006-0.299,0.102-0.419,0.206c-1.143,1.007-2.235,2.061-3.086,3.337
		c-0.211,0.316-0.416,0.637-0.649,0.936c-0.145,0.187-0.194,0.378-0.205,0.605c-0.057,1.339-0.113,2.678-0.105,4.018
		c0.01,1.561,0.016,3.12,0.014,4.68c0,0.881-0.035,1.758,0.004,2.637c0.096,2.117,0.16,4.235,0.242,6.354
		c0.072,1.917,0.152,3.834,0.228,5.753c0.03,0.801,0.01,1.6-0.122,2.395c-0.036,0.214-0.09,0.427-0.153,0.73
		c-0.087-0.179-0.147-0.283-0.19-0.394c-0.268-0.724-0.303-1.487-0.36-2.241c-0.147-1.913-0.269-3.83-0.396-5.743
		c-0.063-0.918-0.125-1.835-0.181-2.753c-0.016-0.259-0.019-0.52-0.018-0.779c0.012-1.26,0.008-2.52,0.046-3.777
		c0.021-0.723-0.1-1.437-0.07-2.156c0.07-1.657,0.131-3.315,0.192-4.973c0.086-2.278,0.188-4.555,0.134-6.837
		c-0.016-0.598,0.02-1.198,0.059-1.797c0.09-1.398,0.058-2.796,0.014-4.195c-0.029-0.979-0.021-1.959,0.021-2.939
		c0.033-0.799,0.029-1.599,0.041-2.398c0.034-2.479,0.081-4.957,0.103-7.437c0.021-2.379-0.012-4.759-0.125-7.136
		c-0.074-1.598-0.188-3.193-0.435-4.774c-0.196-1.271-0.618-2.476-1.2-3.624c-0.131-0.257-0.313-0.377-0.591-0.432
		c-1.295-0.262-2.59-0.494-3.913-0.55c-0.578-0.025-1.154-0.075-1.734-0.121c-0.815-0.066-1.637-0.105-2.454-0.1
		c-0.239,0.002-0.479-0.029-0.716-0.069c-0.164-0.028-0.297-0.121-0.32-0.309c-0.023-0.183,0.07-0.311,0.212-0.402
		c0.168-0.112,0.36-0.157,0.56-0.195c0.711-0.137,1.431-0.209,2.146-0.215c1.858-0.013,3.714,0.09,5.544,0.461
		c0.709,0.144,1.371,0.422,2.043,0.678c0.232,0.088,0.393,0.268,0.547,0.455C68.332,3.548,68.334,3.547,68.422,3.864z"/>
	<path fill="#808080" d="M65.551,23.475c0.582-1.889,0.618-3.814,0.398-5.759c-0.085-0.754-0.135-1.513-0.223-2.266
		c-0.193-1.69-0.551-3.351-0.947-5.003c-0.147-0.62-0.285-1.239-0.328-1.884c-0.049-0.748-0.473-1.31-1.1-1.694
		c-0.283-0.175-0.613-0.277-0.929-0.4c-0.067-0.026-0.157-0.003-0.237,0.006c-1.172,0.127-2.35,0.187-3.529,0.2
		c-1.239,0.014-2.481,0.012-3.719,0.051c-1.84,0.058-3.676,0.156-5.506,0.337c-1.511,0.148-3.02,0.322-4.51,0.63
		c-0.136,0.027-0.278,0.058-0.415,0.05c-0.49-0.026-0.944,0.16-1.417,0.222c-0.072,0.01-0.161,0.056-0.2,0.113
		c-0.16,0.239-0.405,0.384-0.612,0.571c-0.772,0.703-1.28,1.583-1.66,2.536c-0.161,0.402-0.222,0.846-0.322,1.272
		c-0.017,0.075-0.006,0.158-0.002,0.237c0.08,1.578,0.231,3.149,0.38,4.722c0.073,0.775,0.1,1.556,0.156,2.332
		c0.042,0.579,0.096,1.155,0.144,1.733c0.005,0.06,0.015,0.118,0.021,0.178c0.021,0.215,0.119,0.355,0.327,0.454
		c0.633,0.301,1.28,0.563,1.957,0.741c1.722,0.451,3.463,0.79,5.232,1.011c1.612,0.2,3.225,0.29,4.846,0.199
		c0.051-0.004,0.112-0.022,0.144,0.05c-0.049,0.13-0.188,0.13-0.285,0.163c-0.587,0.195-1.175,0.396-1.772,0.55
		c-0.422,0.109-0.861,0.167-1.298,0.212c-1.136,0.118-2.271,0.126-3.412,0.039c-1.422-0.107-2.808-0.387-4.175-0.773
		c-0.772-0.218-1.495-0.55-2.159-1.014c-0.371-0.259-0.555-0.562-0.589-1.035c-0.112-1.574-0.27-3.144-0.313-4.724
		c-0.02-0.798-0.124-1.594-0.177-2.391c-0.027-0.418-0.027-0.839-0.032-1.259c-0.006-0.418,0.053-0.834-0.038-1.255
		c-0.05-0.231,0.012-0.478,0.081-0.709c0.461-1.564,1.241-2.939,2.409-4.087c0.056-0.056,0.126-0.101,0.173-0.163
		c0.354-0.473,0.849-0.615,1.408-0.632c0.137-0.005,0.273-0.049,0.409-0.08c1.752-0.411,3.519-0.743,5.304-0.965
		c1.349-0.167,2.707-0.245,4.063-0.32c2.696-0.148,5.396-0.146,8.092-0.014c0.5,0.024,1,0.04,1.5,0.063
		c0.18,0.009,0.357,0.024,0.535,0.044C63.548,5.8,63.8,5.941,64.061,6.163c0.785,0.669,1.313,1.481,1.66,2.446
		c0.516,1.435,0.846,2.914,1.141,4.403c0.227,1.14,0.384,2.285,0.459,3.443c0.09,1.345-0.002,2.676-0.262,3.998
		c-0.063,0.313-0.121,0.627-0.195,0.938c-0.059,0.251-0.104,0.509-0.283,0.716c-0.036,0.044-0.064,0.103-0.077,0.16
		c-0.14,0.561-0.501,0.994-0.833,1.442C65.449,23.723,65.489,23.604,65.551,23.475z"/>
	<path fill="#808080" d="M57.264,26.966c-0.381,0.333-0.755,0.463-1.133,0.565c-0.751,0.202-1.52,0.335-2.298,0.393
		c-0.478,0.036-0.954,0.082-1.431,0.133c-1.139,0.119-2.274,0.056-3.41-0.05c-0.676-0.063-1.352-0.139-2.03-0.17
		c-0.624-0.03-1.234-0.124-1.827-0.3c-0.712-0.211-1.438-0.333-2.166-0.449c-0.42-0.066-0.815-0.194-1.175-0.42
		c-0.101-0.063-0.193-0.143-0.278-0.227c-0.055-0.057-0.081-0.136-0.05-0.221c0.032-0.089,0.114-0.114,0.19-0.112
		c0.097,0.003,0.199,0.021,0.29,0.057c0.375,0.146,0.769,0.217,1.164,0.261c0.835,0.092,1.651,0.287,2.476,0.438
		c0.552,0.101,1.103,0.174,1.662,0.204c0.718,0.04,1.436,0.093,2.15,0.169c1.077,0.115,2.151,0.112,3.228,0
		c0.716-0.074,1.431-0.157,2.151-0.164c0.277-0.002,0.557-0.048,0.834-0.075C56.13,26.944,56.646,26.898,57.264,26.966z"/>
	<path fill="#808080" d="M90.135,81.65c-0.07,0.537-0.309,1.014-0.509,1.509c-0.067-0.318,0.072-0.597,0.144-0.886
		c0.07-0.284,0.078-0.59,0.26-0.842C90.063,81.504,90.1,81.578,90.135,81.65z"/>
	<path fill="#808080" d="M65.551,23.475c0.045,0.076-0.004,0.198,0.118,0.236c-0.048,0.175-0.136,0.324-0.323,0.475
		C65.335,23.895,65.404,23.675,65.551,23.475z"/>
</g>
</svg>
