<?xml version="1.0" encoding="utf-8"?>
<!-- Generator: Adobe Illustrator 16.0.0, SVG Export Plug-In . SVG Version: 6.00 Build 0)  -->
<!DOCTYPE svg PUBLIC "-//W3C//DTD SVG 1.1//EN" "http://www.w3.org/Graphics/SVG/1.1/DTD/svg11.dtd">
<svg version="1.1" id="Layer_1" xmlns="http://www.w3.org/2000/svg" xmlns:xlink="http://www.w3.org/1999/xlink" x="0px" y="0px"
	 width="100px" height="100px" viewBox="0 0 100 100" enable-background="new 0 0 100 100" xml:space="preserve">
<g>
	<path fill="#808080" d="M49.147,33.053c-10.192,0-20.411,0-30.628-0.002c-0.071,0-0.143-0.021-0.188-0.029
		c-0.035-0.039-0.051-0.052-0.06-0.068c-0.009-0.016-0.015-0.034-0.015-0.052c-0.006-10.143-0.01-20.285-0.015-30.428
		c0-0.095,0.004-0.188,0.013-0.282c0.004-0.034,0.027-0.066,0.041-0.1c0.014-0.013,0.026-0.028,0.042-0.037
		c0.015-0.009,0.035-0.016,0.052-0.016c10.144-0.005,20.286-0.009,30.43-0.013c0.113,0,0.226,0.011,0.338,0.021
		c0.015,0.001,0.029,0.022,0.061,0.049c-0.003-0.003,0.014,0.009,0.021,0.024c0.008,0.017,0.012,0.037,0.012,0.056
		c0.005,10.18,0.01,20.36,0.015,30.541c0,0.057-0.007,0.112-0.011,0.169c-0.002,0.02-0.002,0.038-0.01,0.056
		c-0.007,0.016-0.022,0.028-0.035,0.043C49.197,32.998,49.184,33.012,49.147,33.053z"/>
	<path fill="#808080" d="M18.287,65.513c-0.066-0.633-0.059-30.492,0.003-30.979c0.097-0.016,0.203-0.037,0.31-0.043
		c0.15-0.008,0.302-0.002,0.452-0.002c9.804,0,19.607,0,29.411,0c0.242,0,0.483,0.008,0.754,0.01
		c0.02,0.139,0.041,0.244,0.047,0.352c0.008,0.15,0.002,0.301,0.002,0.453c0,9.803,0,19.605,0,29.41c0,0.242-0.006,0.484-0.01,0.754
		c-0.136,0.018-0.242,0.039-0.35,0.043c-0.131,0.008-0.264,0.004-0.396,0.004c-9.841,0-19.683,0-29.523,0
		C18.764,65.513,18.541,65.513,18.287,65.513z"/>
	<path fill="#808080" d="M49.265,66.948c0,10.282,0,20.483-0.001,30.684c0,0.093-0.02,0.183-0.034,0.302
		c-0.125,0.014-0.232,0.032-0.341,0.036c-0.151,0.009-0.301,0.003-0.453,0.003c-9.788,0-19.577,0-29.365,0c-0.244,0-0.487,0-0.757,0
		c-0.028-0.132-0.062-0.234-0.069-0.341c-0.011-0.147-0.004-0.301-0.004-0.45c0-9.81,0-19.615,0-29.425c0-0.241,0-0.483,0-0.756
		c0.139-0.024,0.243-0.055,0.349-0.063c0.15-0.01,0.301-0.004,0.452-0.004c9.808,0,19.615,0,29.423,0
		C48.708,66.936,48.95,66.941,49.265,66.948z"/>
	<path fill="#808080" d="M81.699,97.938c-0.086,0.013-0.178,0.031-0.268,0.031c-10.201,0.002-20.4,0.002-30.63,0.002
		c-0.024-0.141-0.055-0.244-0.061-0.352c-0.011-0.15-0.005-0.303-0.005-0.453c0-9.807,0-19.615,0-29.422
		c0-0.242,0.011-0.484,0.017-0.756c0.14-0.021,0.244-0.045,0.353-0.051c0.149-0.009,0.301-0.004,0.451-0.004
		c9.807,0,19.614,0,29.422,0c0.242,0,0.485-0.021,0.723,0.036c0.025,0.074,0.059,0.125,0.059,0.179
		c0.002,10.203,0.002,20.405,0,30.608C81.76,97.811,81.725,97.862,81.699,97.938z"/>
</g>
</svg>
