<?xml version="1.0" encoding="utf-8"?>
<!-- Generator: Adobe Illustrator 16.0.0, SVG Export Plug-In . SVG Version: 6.00 Build 0)  -->
<!DOCTYPE svg PUBLIC "-//W3C//DTD SVG 1.1//EN" "http://www.w3.org/Graphics/SVG/1.1/DTD/svg11.dtd">
<svg version="1.1" id="Layer_1" xmlns="http://www.w3.org/2000/svg" xmlns:xlink="http://www.w3.org/1999/xlink" x="0px" y="0px"
	 width="100px" height="100px" viewBox="0 0 100 100" enable-background="new 0 0 100 100" xml:space="preserve">
<g>
	<path fill="#808080" d="M49.158,49.218c-10.154,0-20.333,0-30.511-0.002c-0.071,0-0.142-0.021-0.187-0.029
		c-0.036-0.039-0.051-0.051-0.06-0.067c-0.009-0.015-0.015-0.034-0.015-0.052c-0.006-10.104-0.011-20.208-0.015-30.313
		c0-0.094,0.004-0.188,0.013-0.28c0.003-0.034,0.027-0.067,0.041-0.1c0.014-0.013,0.026-0.028,0.042-0.037
		c0.016-0.009,0.034-0.015,0.052-0.015c10.104-0.006,20.208-0.01,30.313-0.014c0.112,0,0.225,0.012,0.336,0.021
		c0.015,0.001,0.028,0.022,0.062,0.049c-0.003-0.003,0.012,0.009,0.021,0.024c0.008,0.017,0.011,0.037,0.011,0.055
		c0.005,10.142,0.011,20.282,0.015,30.425c0,0.057-0.006,0.112-0.011,0.168c-0.001,0.021-0.002,0.039-0.01,0.056
		c-0.007,0.017-0.022,0.029-0.035,0.043C49.208,49.163,49.195,49.177,49.158,49.218z"/>
	<path fill="#808080" d="M81.514,49.218c-10.154,0-20.334,0-30.512-0.002c-0.07,0-0.143-0.021-0.189-0.029
		c-0.033-0.039-0.049-0.051-0.058-0.067c-0.009-0.015-0.015-0.034-0.015-0.052c-0.008-10.104-0.012-20.208-0.016-30.313
		c0-0.094,0.004-0.188,0.014-0.28c0.003-0.034,0.025-0.067,0.041-0.1c0.013-0.013,0.025-0.028,0.041-0.037
		c0.016-0.009,0.035-0.015,0.053-0.015c10.104-0.006,20.209-0.01,30.313-0.014c0.112,0,0.226,0.012,0.336,0.021
		c0.018,0.001,0.029,0.022,0.063,0.05c-0.004-0.004,0.013,0.008,0.021,0.023c0.008,0.017,0.012,0.037,0.012,0.055
		c0.007,10.142,0.01,20.282,0.015,30.425c0,0.057-0.006,0.112-0.01,0.168c-0.002,0.021-0.002,0.039-0.011,0.056
		c-0.006,0.017-0.021,0.029-0.034,0.043C81.563,49.163,81.55,49.177,81.514,49.218z"/>
	<path fill="#808080" d="M49.277,81.628c-0.505,0.072-30.242,0.085-30.852,0.019c-0.017-0.098-0.045-0.201-0.052-0.309
		c-0.009-0.148-0.003-0.3-0.003-0.451c0-9.766,0-19.531,0-29.298c0-0.241,0-0.485,0-0.753c0.134-0.021,0.239-0.049,0.345-0.057
		c0.131-0.01,0.263-0.004,0.395-0.004c9.804,0,19.608,0,29.412,0c0.222,0,0.445,0,0.697,0c0.022,0.136,0.049,0.24,0.056,0.346
		c0.009,0.148,0.003,0.301,0.003,0.451c0,9.783,0,19.568,0,29.354C49.277,81.15,49.277,81.373,49.277,81.628z"/>
	<path fill="#808080" d="M81.588,50.789c0.063,0.613,0.057,30.363-0.006,30.854c-0.098,0.014-0.202,0.036-0.309,0.043
		c-0.149,0.006-0.301,0.002-0.451,0.002c-9.766,0-19.531,0-29.299,0c-0.24,0-0.482-0.006-0.748-0.011
		c-0.021-0.139-0.043-0.243-0.049-0.352c-0.009-0.151-0.004-0.302-0.004-0.451c0-9.767,0-19.532,0.002-29.298
		c0-0.243,0.006-0.483,0.008-0.751c0.137-0.021,0.242-0.042,0.35-0.048c0.131-0.008,0.264-0.004,0.395-0.004
		c9.806,0,19.607,0,29.412,0.002C81.109,50.777,81.332,50.784,81.588,50.789z"/>
</g>
</svg>
