<?xml version="1.0" encoding="utf-8"?>
<!-- Generator: Adobe Illustrator 16.0.0, SVG Export Plug-In . SVG Version: 6.00 Build 0)  -->
<!DOCTYPE svg PUBLIC "-//W3C//DTD SVG 1.1//EN" "http://www.w3.org/Graphics/SVG/1.1/DTD/svg11.dtd">
<svg version="1.1" id="Layer_1" xmlns="http://www.w3.org/2000/svg" xmlns:xlink="http://www.w3.org/1999/xlink" x="0px" y="0px"
	 width="100px" height="100px" viewBox="0 0 100 100" enable-background="new 0 0 100 100" xml:space="preserve">
<g>
	<path fill="#808080" d="M60.402,84.688c-0.459,0.772-0.93,1.935-1.073,2.608c0.106,0.165,0.278,0.114,0.428,0.116
		c0.857,0.006,1.718,0.002,2.577,0c0.46,0,0.907,0.051,1.346,0.205c1.461,0.514,2.432,1.93,2.371,3.479
		c-0.059,1.545-1.139,2.893-2.646,3.264c-0.389,0.096-0.795,0.145-1.194,0.146c-2.308,0.013-4.617,0.004-6.927,0.004
		c-0.73,0-1.445-0.131-2.143-0.329c-1.707-0.482-2.778-2.264-2.445-4.017c0.033-0.185,0.066-0.37,0.127-0.547
		c0.482-1.365,0.867-2.765,1.469-4.089c0.105-0.234,0.282-0.463,0.214-0.752c-0.588-0.101-3.697-0.125-4.73-0.038
		c-0.146,0.188-0.015,0.354,0.057,0.514c0.622,1.372,1.055,2.812,1.538,4.233c0.247,0.729,0.328,1.463,0.11,2.215
		c-0.37,1.288-1.189,2.146-2.484,2.503c-0.724,0.198-1.466,0.313-2.227,0.312c-2.201-0.011-4.401,0.002-6.603-0.007
		c-0.374,0-0.751-0.036-1.118-0.099c-1.643-0.281-2.999-1.822-2.855-3.737c0.133-1.782,1.582-3.167,3.411-3.245
		c0.831-0.031,1.664-0.007,2.495-0.012c0.263,0,0.525-0.016,0.824-0.025c-0.015-0.147,0.001-0.261-0.037-0.351
		c-0.325-0.763-0.547-1.569-1.026-2.327c-0.274-0.007-0.566-0.021-0.857-0.021c-4.509-0.002-9.02-0.004-13.529,0.002
		c-0.892,0-1.77-0.09-2.627-0.327c-3.333-0.927-5.696-3.966-5.754-7.425c-0.025-1.502,0.002-3.008,0.002-4.51
		c0.002-12.376,0.004-24.751,0.006-37.125c0-0.29,0-0.581,0-0.842c-0.218-0.106-0.307,0.015-0.401,0.099
		c-0.967,0.861-1.825,1.819-2.583,2.866c-0.456,0.63-0.878,1.285-1.326,1.921c-0.216,0.307-0.429,0.623-0.69,0.887
		c-1.209,1.223-3.103,1.401-4.501,0.445c-1.398-0.955-1.912-2.782-1.217-4.359c0.108-0.245,0.248-0.477,0.388-0.705
		c1.761-2.856,3.9-5.383,6.522-7.495c1.213-0.978,2.437-1.937,3.807-2.774c0-0.295,0-0.587,0-0.88c0-3.57,0.003-7.14-0.001-10.71
		c-0.001-0.837,0.09-1.66,0.31-2.467C18.277,8.107,21.02,5.909,24,5.574c0.478-0.054,0.962-0.075,1.444-0.075
		c0.67-0.002,1.341,0.046,2.011,0.044c11.168,0,22.335-0.007,33.502-0.009c3.945-0.001,7.893,0.009,11.838,0.011
		c0.564,0,1.127-0.023,1.689-0.049c4.69-0.212,8.14,3.336,8.365,7.394c0.027,0.481,0.039,0.966,0.039,1.448
		c0.004,3.356,0,6.712,0,10.067c0,0.293,0,0.587,0,0.916c0.258,0.172,0.506,0.33,0.744,0.495c2.618,1.804,5.063,3.806,7.085,6.281
		c0.954,1.164,1.82,2.391,2.604,3.675c0.539,0.887,0.755,1.825,0.494,2.851c-0.67,2.616-3.842,3.558-5.817,1.711
		c-0.326-0.308-0.595-0.69-0.845-1.068c-0.684-1.029-1.371-2.056-2.188-2.984c-0.498-0.563-1.034-1.089-1.562-1.624
		c-0.108-0.11-0.247-0.19-0.415-0.32c-0.042,0.151-0.087,0.247-0.093,0.347c-0.014,0.213-0.008,0.429-0.008,0.644
		c0.006,13.287,0.014,26.575,0.016,39.862c0,0.858,0.017,1.722-0.077,2.571c-0.369,3.399-3.114,6.257-6.486,6.774
		c-0.633,0.098-1.28,0.145-1.923,0.146c-4.375,0.012-8.75,0.006-13.125,0.006C60.999,84.688,60.707,84.688,60.402,84.688z
		 M59.587,79.197c0.149,0.016,0.28,0.041,0.412,0.041c2.897,0,5.798,0.019,8.696-0.008c3.199-0.026,5.779-2.625,5.802-5.81
		c0.004-0.483-0.006-0.967-0.006-1.45c-0.001-14.897-0.005-29.797-0.009-44.696c0-0.457-0.002-0.913-0.019-1.369
		c-0.104-3.169-2.753-5.675-5.873-5.646c-0.672,0.006-1.343,0.009-2.015,0.022c-0.15,0.004-0.303,0.044-0.496,0.076
		c-0.005,0.329-0.016,0.62-0.016,0.912c0,2.147,0,4.294,0,6.442c0,0.269,0.004,0.539-0.018,0.806
		c-0.122,1.558-1.13,2.777-2.629,3.206c-0.546,0.157-1.104,0.213-1.67,0.213c-1.719,0.002-3.438,0.001-5.155-0.005
		c-0.293,0-0.59-0.017-0.883-0.042c-0.867-0.074-1.591-0.441-2.204-1.052c-0.877-0.876-1.342-1.902-1.322-3.17
		c0.034-2.228,0.012-4.456,0.01-6.685c0-0.208-0.012-0.415-0.021-0.669c-0.519-0.067-0.999-0.034-1.475-0.04
		c-0.455-0.004-0.912-0.008-1.368,0.002c-0.474,0.011-0.956-0.051-1.476,0.058c-0.008,0.33-0.021,0.62-0.021,0.908
		c-0.001,2.175,0.005,4.35-0.007,6.524c-0.002,0.426-0.027,0.864-0.118,1.278c-0.293,1.346-1.118,2.244-2.434,2.64
		c-0.506,0.153-1.054,0.233-1.583,0.24c-1.879,0.027-3.758,0.016-5.637-0.001c-0.398-0.003-0.804-0.06-1.193-0.147
		c-1.429-0.325-2.86-2.082-2.887-3.521c-0.006-0.295-0.022-0.591-0.022-0.885c0-2.202,0.004-4.402,0.002-6.604
		c0-0.149-0.042-0.301-0.069-0.474c-0.871-0.011-1.702-0.035-2.532-0.031c-2.868,0.014-5.285,2.065-5.741,4.895
		c-0.097,0.604-0.119,1.228-0.119,1.843c-0.008,14.04-0.008,28.08-0.009,42.121c0,1.368,0.001,2.736-0.007,4.107
		c-0.005,0.761,0.124,1.496,0.392,2.205c0.85,2.252,2.954,3.764,5.391,3.793c2.898,0.037,5.798,0.013,8.697,0.01
		c0.156,0,0.312-0.031,0.485-0.053c0.014-0.188,0.026-0.346,0.039-0.503c0.182-2.231,1.991-3.37,3.565-3.35
		c1.18,0.015,2.361,0.003,3.543,0.003c0.746,0,1.427,0.21,2.047,0.622c0.129,0.086,0.27,0.155,0.399,0.229
		c0.212-0.135,0.389-0.257,0.572-0.365c0.472-0.271,0.976-0.463,1.521-0.469c1.396-0.013,2.795-0.055,4.188,0.014
		c1.643,0.078,2.959,1.379,3.18,3.014C59.536,78.643,59.559,78.908,59.587,79.197z M72.277,18.516
		c1.664,0.079,3.543-1.25,3.543-3.494c0-2.193-1.807-3.49-3.463-3.503c-1.931-0.015-3.551,1.544-3.545,3.505
		C68.816,17.104,70.542,18.551,72.277,18.516z M31.151,14.996c0.026-1.91-1.6-3.472-3.481-3.477
		c-1.963-0.004-3.532,1.638-3.519,3.531c0.013,1.896,1.615,3.523,3.572,3.472C29.656,18.469,31.163,16.945,31.151,14.996z"/>
</g>
</svg>
