<?xml version="1.0" encoding="utf-8"?>
<!-- Generator: Adobe Illustrator 16.0.0, SVG Export Plug-In . SVG Version: 6.00 Build 0)  -->
<!DOCTYPE svg PUBLIC "-//W3C//DTD SVG 1.1//EN" "http://www.w3.org/Graphics/SVG/1.1/DTD/svg11.dtd">
<svg version="1.1" id="Layer_1" xmlns="http://www.w3.org/2000/svg" xmlns:xlink="http://www.w3.org/1999/xlink" x="0px" y="0px"
	 width="100px" height="100px" viewBox="0 0 100 100" enable-background="new 0 0 100 100" xml:space="preserve">
<g>
	<path d="M50.004,66.574c-0.221,0.215-0.398,0.383-0.572,0.558c-9.338,9.337-18.676,18.675-28.014,28.012
		c-0.395,0.396-0.789,0.793-1.211,1.156c-2.472,2.127-5.347,3.123-8.595,2.874c-5.346-0.412-9.376-4.24-10.461-8.881
		c-0.959-4.107,0.061-7.732,2.893-10.852c0.239-0.267,0.5-0.512,0.751-0.765c9.37-9.371,18.739-18.738,28.108-28.108
		c0.17-0.172,0.336-0.349,0.532-0.55c-0.183-0.194-0.345-0.373-0.516-0.544c-5.782-5.783-11.565-11.566-17.348-17.349
		C12,28.555,8.429,24.984,4.86,21.413c-0.379-0.381-0.758-0.761-1.112-1.163c-1.564-1.773-2.535-3.833-2.849-6.174
		C0.096,8.073,3.915,2.674,9.455,1.212c3.743-0.988,7.163-0.227,10.245,2.099c0.68,0.513,1.271,1.124,1.872,1.724
		c9.29,9.29,18.58,18.581,27.871,27.872c0.173,0.172,0.351,0.341,0.53,0.515c0.25-0.119,0.398-0.321,0.566-0.492
		c8.328-8.324,16.654-16.651,24.98-24.978c1.233-1.231,2.461-2.469,3.701-3.693c1.442-1.42,3.133-2.428,5.084-2.99
		c6.327-1.825,12.997,1.998,14.549,8.49c0.924,3.863,0.022,7.346-2.521,10.394c-0.441,0.53-0.941,1.016-1.43,1.505
		c-9.256,9.261-18.519,18.519-27.774,27.778c-0.173,0.173-0.343,0.349-0.54,0.552c0.113,0.231,0.314,0.375,0.48,0.539
		c6.16,6.166,12.322,12.327,18.483,18.49c3.255,3.252,6.511,6.508,9.765,9.762c0.521,0.522,1.033,1.054,1.479,1.646
		c1.879,2.51,2.672,5.338,2.305,8.445c-0.617,5.242-4.596,9.338-9.707,10.16c-3.842,0.619-7.194-0.494-10.045-3.138
		c-0.262-0.241-0.509-0.502-0.762-0.753C69.247,85.8,59.91,76.462,50.573,67.125C50.399,66.955,50.223,66.785,50.004,66.574z"/>
	<path fill="#EC008C" d="M2.48,87.539c0.042-2.685,0.977-5.01,2.824-6.961c0.737-0.779,1.508-1.525,2.266-2.281
		c0.252-0.254,0.516-0.49,0.776-0.735c0.387-0.02,0.739,0.145,1.101,0.239c6.791,1.814,13.58,3.636,20.367,5.461
		c0.252,0.068,0.533,0.074,0.749,0.254c-0.046,0.314-0.324,0.452-0.517,0.646c-3.359,3.367-6.726,6.729-10.087,10.093
		c-0.729,0.731-1.51,1.393-2.404,1.914c-6.002,3.498-13.536,0.053-14.897-6.765C2.534,88.794,2.456,88.172,2.48,87.539z"/>
	<path fill="#EC008C" d="M87.823,97.541c-2.175,0.022-4.12-0.523-5.884-1.695c-0.541-0.359-1.051-0.76-1.51-1.219
		c-0.888-0.881-1.765-1.774-2.662-2.643c-0.248-0.238-0.277-0.466-0.193-0.771c0.533-1.957,1.059-3.918,1.584-5.879
		c1.382-5.15,2.762-10.3,4.143-15.451c0.151-0.562,0.163-0.563,0.588-0.142c3.504,3.505,7.008,7.013,10.514,10.516
		c1.339,1.339,2.318,2.895,2.771,4.739c0.874,3.569,0.039,6.725-2.444,9.42c-1.52,1.647-3.432,2.61-5.636,2.989
		C88.654,97.482,88.205,97.503,87.823,97.541z"/>
	<path fill="#EC008C" d="M15.304,29.419c-0.196-0.058-0.284-0.196-0.393-0.306c-3.033-3.031-6.064-6.065-9.099-9.098
		c-0.893-0.892-1.626-1.893-2.169-3.037C1.504,12.474,3.021,6.83,7.64,4.099c1.576-0.933,3.286-1.4,5.11-1.383
		c2.51,0.026,4.721,0.886,6.605,2.546c0.569,0.5,1.083,1.064,1.64,1.581c0.243,0.225,0.305,0.45,0.216,0.769
		c-0.326,1.161-0.626,2.328-0.939,3.491c-1.59,5.929-3.182,11.857-4.772,17.785C15.453,29.061,15.429,29.24,15.304,29.419z"/>
	<path fill="#EC008C" d="M70.602,15.387c0.072-0.245,0.211-0.333,0.317-0.441c3.032-3.033,6.067-6.063,9.097-9.097
		c1.104-1.107,2.366-1.97,3.84-2.504c6.021-2.175,12.256,1.688,13.281,7.665c0.563,3.273-0.352,6.142-2.562,8.603
		c-0.462,0.513-0.978,0.981-1.451,1.484c-0.194,0.207-0.388,0.25-0.655,0.175c-1.269-0.352-2.542-0.688-3.814-1.031
		c-5.817-1.561-11.641-3.12-17.459-4.681C71.003,15.508,70.813,15.448,70.602,15.387z"/>
	<path fill="#EC008C" d="M72.52,41.611c-0.037,0.172-0.178,0.258-0.285,0.366c-0.991,0.997-1.989,1.99-2.982,2.985
		c-0.063,0.063-0.134,0.122-0.189,0.189c-0.133,0.157-0.293,0.179-0.481,0.125c-0.688-0.188-1.381-0.369-2.067-0.557
		c-4.27-1.145-8.537-2.288-12.803-3.436c-0.214-0.056-0.423-0.129-0.674-0.207c0.125-0.459,0.23-0.891,0.356-1.313
		c0.087-0.286,0.04-0.504-0.188-0.717c-0.551-0.522-1.08-1.07-1.617-1.604c-0.078-0.078-0.151-0.168-0.272-0.178
		c-0.117,0.088-0.135,0.223-0.168,0.352c-0.215,0.799-0.428,1.596-0.646,2.393c-0.104,0.377-0.124,0.386-0.514,0.283
		c-0.907-0.242-1.811-0.489-2.715-0.733c-0.065-0.017-0.135-0.021-0.195-0.047c-0.372-0.168-0.683-0.121-0.94,0.22
		c-0.075,0.099-0.158,0.215-0.308,0.227c0.053-0.551,1.498-5.946,1.738-6.469c0.443,0.311,0.839,0.683,1.134,1.108
		c0.314,0.456,0.78,0.728,1.135,1.122c0.058,0.064,0.165,0.104,0.242,0.037c0.25-0.217,0.5-0.093,0.758-0.023
		c4.656,1.246,9.313,2.493,13.968,3.739c2.416,0.646,4.829,1.294,7.242,1.942C72.211,41.458,72.393,41.471,72.52,41.611z"/>
	<path fill="#EC008C" d="M69.17,83.361c-0.186-0.178-0.344-0.332-0.503-0.488c-0.899-0.898-1.804-1.799-2.699-2.701
		c-0.64-0.646-0.546-0.42-0.339-1.201c1.219-4.572,2.446-9.143,3.672-13.713c0.647-2.414,1.297-4.83,1.945-7.245
		c0.051-0.19,0.109-0.383,0.162-0.565c0.148-0.053,0.221,0.039,0.297,0.115c1.09,1.088,2.174,2.187,3.275,3.264
		c0.211,0.207,0.229,0.398,0.155,0.658c-0.446,1.635-0.885,3.275-1.323,4.912c-1.474,5.498-2.947,10.997-4.42,16.492
		C69.354,83.039,69.352,83.203,69.17,83.361z"/>
	<path fill="#EC008C" d="M42.614,71.471c-0.031,0.232-0.201,0.324-0.321,0.449c-0.976,0.98-1.97,1.947-2.928,2.943
		c-0.302,0.315-0.571,0.396-0.998,0.276c-2.257-0.627-4.523-1.221-6.786-1.827c-4.807-1.287-9.612-2.576-14.419-3.867
		c-0.15-0.037-0.31-0.05-0.434-0.16c-0.064-0.172,0.09-0.233,0.173-0.316c1.038-1.048,2.09-2.08,3.118-3.137
		c0.251-0.256,0.474-0.318,0.825-0.225c2.907,0.797,5.818,1.567,8.728,2.35c4.138,1.109,8.276,2.221,12.414,3.33
		C42.199,71.346,42.407,71.408,42.614,71.471z"/>
	<path fill="#EC008C" d="M33.274,19.292c-0.044,0.179-0.086,0.353-0.132,0.524c-0.941,3.513-1.882,7.024-2.824,10.538
		c-0.942,3.512-1.882,7.022-2.827,10.535c-0.147,0.547-0.102,0.719-0.654,0.158c-1.003-1.018-2.013-2.027-3.034-3.029
		c-0.204-0.199-0.234-0.38-0.161-0.65c0.787-2.906,1.56-5.817,2.338-8.728c1.114-4.159,2.227-8.317,3.345-12.476
		c0.202-0.749,0.147-0.847,0.793-0.193c0.973,0.984,1.957,1.958,2.934,2.938C33.161,19.018,33.3,19.112,33.274,19.292z"/>
	<path fill="#EC008C" d="M35.533,21.424c0.18,0.163,0.282,0.247,0.375,0.34c1.012,1.01,2.012,2.033,3.041,3.025
		c0.283,0.272,0.333,0.52,0.234,0.882c-0.586,2.131-1.153,4.266-1.726,6.401c-1.331,4.959-2.66,9.918-3.99,14.877
		c-0.041,0.148-0.054,0.309-0.148,0.42c-0.126,0.048-0.181-0.031-0.24-0.09c-1.092-1.088-2.177-2.185-3.276-3.266
		c-0.202-0.199-0.242-0.372-0.167-0.648c1.033-3.815,2.051-7.633,3.073-11.45c0.871-3.257,1.744-6.513,2.618-9.77
		C35.384,21.937,35.447,21.728,35.533,21.424z"/>
	<path fill="#EC008C" d="M84.5,29.667c-0.035,0.049-0.066,0.108-0.113,0.155c-1.104,1.106-2.211,2.211-3.313,3.319
		c-0.158,0.161-0.309,0.194-0.535,0.132c-1.742-0.476-3.49-0.933-5.236-1.4c-5.301-1.42-10.601-2.842-15.898-4.266
		c-0.946-0.254-0.994-0.16-0.23-0.92c0.887-0.881,1.77-1.768,2.654-2.651c0.449-0.449,0.449-0.449,1.029-0.294
		c3.515,0.94,7.025,1.881,10.537,2.822c3.514,0.941,7.025,1.882,10.537,2.825c0.172,0.046,0.344,0.099,0.512,0.157
		C84.469,29.558,84.479,29.619,84.5,29.667z"/>
	<path fill="#EC008C" d="M21.348,35.41c-0.197-0.02-0.262-0.118-0.338-0.195c-1.043-1.042-2.076-2.096-3.134-3.121
		c-0.268-0.26-0.295-0.499-0.205-0.833c0.618-2.26,1.221-4.526,1.828-6.79c1.29-4.807,2.579-9.615,3.868-14.423
		c0.174-0.645,0.176-0.646,0.641-0.184c0.996,0.993,1.985,1.995,2.989,2.981c0.233,0.228,0.296,0.434,0.208,0.762
		c-1.392,5.15-2.768,10.304-4.148,15.457c-0.514,1.921-1.027,3.839-1.542,5.757C21.463,35.013,21.406,35.206,21.348,35.41z"/>
	<path fill="#EC008C" d="M90.54,23.661c-0.183,0.186-0.333,0.347-0.49,0.503c-0.899,0.901-1.802,1.802-2.7,2.702
		c-0.498,0.497-0.498,0.498-1.145,0.325c-3.365-0.901-6.729-1.803-10.092-2.705c-3.621-0.971-7.244-1.941-10.865-2.914
		c-0.211-0.057-0.42-0.12-0.62-0.178c-0.01-0.22,0.146-0.3,0.251-0.406c1.01-1.013,2.032-2.011,3.023-3.042
		c0.277-0.29,0.539-0.316,0.891-0.219c1.615,0.443,3.232,0.874,4.85,1.307c5.479,1.469,10.953,2.938,16.431,4.406
		C90.221,23.479,90.387,23.48,90.54,23.661z"/>
	<path fill="#EC008C" d="M52.633,33.32c0.021-0.149,0.14-0.227,0.232-0.319c1.023-1.028,2.051-2.056,3.078-3.081
		c0.047-0.047,0.098-0.092,0.142-0.143c0.134-0.155,0.291-0.176,0.483-0.121c0.882,0.242,1.766,0.481,2.649,0.719
		c6.229,1.67,12.462,3.339,18.691,5.009c0.207,0.055,0.411,0.123,0.606,0.183c-0.02,0.219-0.172,0.299-0.276,0.405
		c-0.992,0.999-1.998,1.983-2.979,2.994c-0.284,0.292-0.546,0.362-0.942,0.254c-2.928-0.801-5.863-1.581-8.795-2.366
		c-4.139-1.109-8.277-2.22-12.417-3.331C52.941,33.476,52.752,33.478,52.633,33.32z"/>
	<path fill="#EC008C" d="M77.439,63.439c0.219,0.012,0.304,0.161,0.41,0.268c1.012,1.008,2.016,2.029,3.039,3.023
		c0.258,0.254,0.323,0.475,0.229,0.827c-0.791,2.886-1.563,5.774-2.336,8.663c-1.116,4.161-2.23,8.32-3.344,12.482
		c-0.06,0.212-0.09,0.435-0.211,0.621c-0.134-0.004-0.201-0.096-0.279-0.174c-1.059-1.059-2.109-2.123-3.18-3.17
		c-0.246-0.24-0.271-0.461-0.186-0.772c0.759-2.8,1.503-5.604,2.253-8.407c1.142-4.246,2.281-8.493,3.422-12.739
		C77.314,63.853,77.381,63.644,77.439,63.439z"/>
	<path fill="#EC008C" d="M10.71,75.299c0.001-0.191,0.124-0.268,0.216-0.357c1.024-1.027,2.06-2.045,3.073-3.088
		c0.251-0.259,0.479-0.32,0.827-0.227c2.433,0.668,4.871,1.314,7.306,1.969c4.657,1.247,9.313,2.496,13.97,3.744
		c0.17,0.046,0.35,0.064,0.488,0.191c-0.018,0.147-0.137,0.226-0.229,0.319c-1.024,1.029-2.06,2.046-3.073,3.086
		c-0.249,0.257-0.464,0.321-0.821,0.226c-3.963-1.077-7.932-2.133-11.899-3.196c-3.083-0.825-6.166-1.653-9.248-2.481
		C11.111,75.427,10.906,75.359,10.71,75.299z"/>
	<path fill="#EC008C" d="M48.558,65.545c-0.008,0.04-0.003,0.092-0.026,0.121c-0.053,0.072-0.119,0.133-0.182,0.197
		c-1.01,1.01-2.031,2.011-3.022,3.039c-0.271,0.28-0.517,0.334-0.88,0.235c-1.957-0.539-3.92-1.06-5.88-1.586
		c-5.129-1.376-10.257-2.751-15.386-4.129c-0.128-0.033-0.258-0.07-0.381-0.121c-0.063-0.024-0.09-0.101-0.048-0.164
		c0.049-0.071,0.113-0.137,0.174-0.201c1.042-1.042,2.089-2.077,3.121-3.131c0.214-0.218,0.4-0.268,0.706-0.184
		c2.905,0.791,5.818,1.559,8.728,2.338c4.116,1.104,8.232,2.211,12.347,3.313c0.215,0.06,0.43,0.114,0.644,0.18
		C48.506,65.465,48.53,65.514,48.558,65.545z"/>
	<path fill="#EC008C" d="M65.498,51.458c0.166,0.028,0.246,0.144,0.34,0.235c1.01,1.01,2.006,2.036,3.04,3.022
		c0.298,0.281,0.3,0.541,0.204,0.885c-0.4,1.464-0.79,2.931-1.184,4.394c-1.51,5.623-3.019,11.248-4.526,16.871
		c-0.019,0.065-0.026,0.132-0.044,0.196c-0.08,0.275-0.162,0.304-0.352,0.116c-1.092-1.087-2.177-2.179-3.271-3.263
		c-0.184-0.181-0.207-0.351-0.141-0.595c0.483-1.765,0.949-3.533,1.422-5.301c1.42-5.301,2.838-10.602,4.264-15.902
		C65.313,51.893,65.313,51.632,65.498,51.458z"/>
	<path fill="#EC008C" d="M41.521,27.511c0.227,0.019,0.32,0.188,0.442,0.312c0.983,0.976,1.952,1.965,2.947,2.932
		c0.287,0.279,0.374,0.529,0.261,0.936c-0.685,2.475-1.337,4.957-2.001,7.438c-0.514,1.919-1.027,3.839-1.544,5.757
		c-0.057,0.214-0.09,0.438-0.216,0.633c-0.232,0.024-0.439-0.081-0.655-0.121c-0.116-0.023-0.227-0.04-0.313,0.048
		c-0.677,0.674-1.376,1.328-2.021,2.045c0.158,0.158,0.334,0.182,0.5,0.227c0.496,0.135,0.993,0.264,1.487,0.4
		c0.287,0.08,0.319,0.134,0.239,0.433c-0.288,1.078-0.582,2.155-0.874,3.233c-0.064,0.235-0.124,0.476-0.196,0.709
		c-0.028,0.092-0.109,0.14-0.209,0.121c-0.11-0.019-0.219-0.048-0.327-0.074c-1.359-0.363-2.718-0.726-4.076-1.094
		c-0.105-0.027-0.203-0.08-0.296-0.119c0.004-0.179,0.128-0.254,0.217-0.347c0.218-0.225,0.439-0.444,0.663-0.664
		c0.128-0.125,0.189-0.245,0.045-0.397c-0.083-0.09-0.075-0.187-0.043-0.307c0.778-2.863,1.553-5.73,2.323-8.598
		c1.164-4.334,2.323-8.669,3.485-13.004C41.405,27.839,41.468,27.674,41.521,27.511z"/>
	<path fill="#EC008C" d="M47.454,61.59c0.156-0.129,0.164-0.311,0.209-0.479c0.255-0.946,0.509-1.895,0.769-2.843
		c0.101-0.362,0.114-0.371,0.447-0.28c1.251,0.33,2.5,0.666,3.75,0.998c0.064,0.021,0.136,0.027,0.19,0.063
		c0.074,0.045,0.146,0.104,0.118,0.213c-0.032,0.13-0.056,0.262-0.09,0.391c-0.479,1.789-0.962,3.576-1.439,5.366
		c-0.033,0.128-0.052,0.263-0.168,0.354c-0.145-0.02-0.223-0.137-0.32-0.223c-0.312-0.283-0.62-0.567-0.953-0.875
		c0.302-0.319,0.574-0.607,0.85-0.899c-0.092-0.185-0.258-0.185-0.396-0.222c-4.353-1.168-8.705-2.332-13.057-3.498
		c-2.737-0.729-5.473-1.461-8.21-2.193c-0.15-0.04-0.298-0.092-0.444-0.139c-0.048-0.2,0.114-0.278,0.217-0.383
		c1.008-1.015,2.03-2.013,3.022-3.041c0.275-0.283,0.523-0.318,0.887-0.223c3.661,0.994,7.324,1.971,10.987,2.953
		c0.603,0.162,1.208,0.318,1.81,0.484c0.21,0.059,0.246,0.123,0.19,0.341c-0.143,0.563-0.29,1.124-0.445,1.683
		c-0.065,0.232-0.035,0.416,0.154,0.598c0.595,0.572,1.172,1.164,1.758,1.744C47.334,61.525,47.397,61.553,47.454,61.59z"/>
	<path fill="#EC008C" d="M62.51,51.839c-1.746,6.515-3.482,12.995-5.215,19.462c-0.193,0.081-0.26-0.064-0.346-0.148
		c-1.045-1.039-2.078-2.089-3.131-3.119c-0.236-0.231-0.295-0.446-0.207-0.766c0.771-2.843,1.535-5.686,2.285-8.533
		c0.105-0.408,0.278-0.744,0.597-1.016c0.085-0.068,0.165-0.152,0.228-0.243c0.055-0.077,0.059-0.187-0.056-0.209
		c-0.259-0.05-0.325-0.188-0.257-0.433c0.346-1.271,0.689-2.539,1.025-3.813c0.065-0.248,0.162-0.31,0.436-0.23
		c0.795,0.224,1.597,0.421,2.391,0.646c0.288,0.082,0.501,0.05,0.715-0.188c0.373-0.413,0.783-0.793,1.178-1.188
		C62.242,51.975,62.318,51.867,62.51,51.839z"/>
	<path fill="#EC008C" d="M64.193,50.008c-0.285-0.264-0.578-0.531-0.892-0.818c-0.146,0.161-0.172,0.333-0.217,0.496
		c-0.125,0.452-0.248,0.904-0.375,1.355c-0.034,0.125-0.125,0.178-0.252,0.16c-0.065-0.008-0.131-0.025-0.194-0.043
		c-1.188-0.318-2.373-0.64-3.56-0.959c-0.106-0.028-0.218-0.057-0.318-0.099c-0.092-0.038-0.129-0.123-0.106-0.217
		c0.025-0.132,0.066-0.261,0.102-0.392c0.295-1.1,0.59-2.198,0.885-3.297c0.029-0.108,0.055-0.218,0.088-0.324
		c0.047-0.158,0.16-0.201,0.312-0.168c0.088,0.02,0.174,0.039,0.258,0.063c2.095,0.561,4.185,1.122,6.275,1.686
		c0.086,0.021,0.174,0.047,0.251,0.089c0.063,0.032,0.086,0.105,0.037,0.165c-0.067,0.088-0.146,0.167-0.227,0.246
		C65.58,48.63,64.898,49.308,64.193,50.008z"/>
	<path fill="#EC008C" d="M54.848,52.158c-0.027,0.104-0.053,0.215-0.082,0.321c-0.315,1.185-0.633,2.369-0.949,3.556
		c-0.022,0.084-0.051,0.172-0.084,0.25c-0.039,0.092-0.11,0.139-0.211,0.121c-0.065-0.013-0.13-0.027-0.194-0.045
		c-1.205-0.324-2.412-0.649-3.616-0.976c-0.064-0.017-0.131-0.024-0.196-0.046c-0.209-0.066-0.257-0.143-0.213-0.341
		c0.013-0.063,0.038-0.127,0.056-0.191c0.305-1.141,0.61-2.282,0.915-3.426c0.029-0.106,0.052-0.217,0.087-0.323
		c0.065-0.201,0.131-0.242,0.346-0.188c0.688,0.182,1.378,0.369,2.067,0.556c0.624,0.166,1.25,0.332,1.873,0.504
		C54.748,51.961,54.855,52.014,54.848,52.158z"/>
	<path fill="#EC008C" d="M43.466,48.953c0.066,0.008,0.11,0.009,0.153,0.02c1.294,0.346,2.588,0.691,3.88,1.04
		c0.254,0.069,0.287,0.128,0.22,0.382c-0.341,1.295-0.686,2.588-1.034,3.883c-0.063,0.23-0.134,0.264-0.397,0.193
		c-1.273-0.336-2.545-0.673-3.816-1.016c-0.251-0.067-0.287-0.133-0.221-0.381c0.336-1.273,0.676-2.545,1.017-3.816
		c0.017-0.064,0.039-0.131,0.075-0.186C43.375,49.021,43.43,48.984,43.466,48.953z"/>
	<path fill="#EC008C" d="M56.759,45.012c-0.12,0.458-0.245,0.93-0.37,1.4c-0.219,0.818-0.438,1.638-0.658,2.457
		c-0.029,0.107-0.051,0.219-0.094,0.319c-0.035,0.083-0.111,0.138-0.214,0.121c-0.065-0.01-0.132-0.022-0.196-0.041
		c-1.205-0.323-2.411-0.649-3.616-0.975c-0.065-0.019-0.132-0.031-0.195-0.05c-0.217-0.07-0.258-0.133-0.213-0.334
		c0.029-0.131,0.064-0.26,0.1-0.39c0.298-1.098,0.595-2.196,0.894-3.295c0.028-0.106,0.044-0.221,0.088-0.321
		c0.037-0.078,0.107-0.144,0.215-0.117c0.086,0.021,0.176,0.035,0.262,0.058c1.206,0.321,2.414,0.644,3.619,0.969
		C56.504,44.849,56.641,44.875,56.759,45.012z"/>
	<path fill="#EC008C" d="M45.282,41.85c0.916,0.243,1.777,0.473,2.638,0.7c0.496,0.133,0.993,0.263,1.487,0.403
		c0.238,0.067,0.272,0.14,0.204,0.398c-0.277,1.035-0.559,2.068-0.835,3.104c-0.071,0.258-0.135,0.517-0.208,0.774
		c-0.042,0.154-0.146,0.216-0.303,0.175c-0.841-0.224-1.682-0.449-2.523-0.672c-0.453-0.123-0.906-0.24-1.357-0.367
		c-0.26-0.072-0.294-0.125-0.234-0.375c0.085-0.349,0.182-0.69,0.274-1.037c0.23-0.861,0.458-1.725,0.69-2.588
		C45.154,42.218,45.209,42.072,45.282,41.85z"/>
</g>
</svg>
