<?xml version="1.0" encoding="utf-8"?>
<!-- Generator: Adobe Illustrator 16.0.0, SVG Export Plug-In . SVG Version: 6.00 Build 0)  -->
<!DOCTYPE svg PUBLIC "-//W3C//DTD SVG 1.1//EN" "http://www.w3.org/Graphics/SVG/1.1/DTD/svg11.dtd">
<svg version="1.1" id="Layer_1" xmlns="http://www.w3.org/2000/svg" xmlns:xlink="http://www.w3.org/1999/xlink" x="0px" y="0px"
	 width="100px" height="100px" viewBox="0 0 100 100" enable-background="new 0 0 100 100" xml:space="preserve">
<g>
	<path fill-rule="evenodd" clip-rule="evenodd" fill="#FF00FF" d="M50,50.807c7.323,0,14.647-0.002,21.969,0
		c1.191,0.002,1.152-0.142,1.174,1.146c0.006,0.246,0.01,0.495,0.01,0.742c0,7.631,0,15.264,0,22.896
		c0,3.283-0.543,6.467-1.883,9.471c-3.117,6.987-8.4,11.45-15.816,13.378c-1.742,0.452-3.527,0.657-5.317,0.651
		c-5.568-0.018-10.563-1.73-14.874-5.286c-4.02-3.317-6.594-7.547-7.801-12.612c-0.374-1.566-0.527-3.164-0.61-4.769
		c-0.009-0.187-0.008-0.372-0.008-0.558c-0.001-7.848-0.001-15.696,0.001-23.545c0-0.371,0.012-0.74,0.041-1.111
		c0.022-0.289,0.13-0.385,0.404-0.396c0.278-0.014,0.556-0.008,0.834-0.008C35.416,50.805,42.708,50.805,50,50.807z"/>
	<path fill-rule="evenodd" clip-rule="evenodd" fill="#00FFFF" d="M49.984,49.153c-7.291,0-14.582,0.001-21.874-0.002
		c-1.354,0-1.088,0.116-1.216-1.117c-0.038-0.368-0.024-0.741-0.024-1.112c-0.002-7.383-0.012-14.769,0.005-22.152
		c0.005-2.479,0.274-4.925,0.986-7.317c2.176-7.341,7.828-13.119,15.145-15.439c2.648-0.839,5.366-1.253,8.131-1.058
		c8.299,0.584,14.65,4.42,18.938,11.577c1.545,2.575,2.441,5.393,2.855,8.358c0.141,1.009,0.229,2.024,0.229,3.048
		c-0.006,7.971-0.004,15.944-0.006,23.914c0,0.308-0.014,0.618-0.027,0.927c-0.008,0.212-0.121,0.348-0.338,0.359
		c-0.277,0.015-0.555,0.013-0.834,0.013C64.631,49.153,57.309,49.153,49.984,49.153z"/>
</g>
</svg>
