<?xml version="1.0" encoding="utf-8"?>
<!-- Generator: Adobe Illustrator 16.0.0, SVG Export Plug-In . SVG Version: 6.00 Build 0)  -->
<!DOCTYPE svg PUBLIC "-//W3C//DTD SVG 1.1//EN" "http://www.w3.org/Graphics/SVG/1.1/DTD/svg11.dtd">
<svg version="1.1" id="Layer_1" xmlns="http://www.w3.org/2000/svg" xmlns:xlink="http://www.w3.org/1999/xlink" x="0px" y="0px"
	 width="100px" height="100px" viewBox="0 0 100 100" enable-background="new 0 0 100 100" xml:space="preserve">
<g>
	<path fill="#808080" d="M28.425,65.63c-2.43-0.007-4.01-2.532-2.946-4.729c0.152-0.313,0.361-0.604,0.568-0.888
		c2.414-3.278,4.83-6.553,7.247-9.828c3.449-4.68,6.898-9.362,10.35-14.039c0.241-0.325,0.489-0.653,0.783-0.927
		c1.461-1.354,3.777-1.104,4.91,0.533c0.747,1.076,0.809,2.23,0.228,3.402c-0.155,0.313-0.365,0.603-0.574,0.885
		c-3.384,4.599-6.772,9.19-10.159,13.787c-2.456,3.334-4.911,6.668-7.369,10.002c-0.188,0.254-0.377,0.512-0.593,0.74
		C30.211,65.271,29.395,65.635,28.425,65.63z"/>
	<path fill="#808080" d="M78.23,65.63c-2.432-0.007-4.008-2.534-2.94-4.731c0.151-0.313,0.358-0.604,0.567-0.886
		c2.412-3.278,4.83-6.553,7.244-9.829c3.453-4.682,6.898-9.361,10.354-14.039c0.238-0.326,0.486-0.654,0.781-0.927
		c1.462-1.354,3.777-1.104,4.91,0.535c0.742,1.078,0.808,2.231,0.226,3.403c-0.155,0.313-0.363,0.602-0.573,0.886
		c-3.552,4.823-7.105,9.645-10.663,14.466c-2.286,3.107-4.573,6.215-6.864,9.32c-0.188,0.256-0.377,0.514-0.595,0.744
		C80.018,65.271,79.201,65.635,78.23,65.63z"/>
	<path fill="#808080" d="M40.869,65.656c-2.456-0.041-4.022-2.613-2.91-4.813c0.157-0.313,0.369-0.599,0.578-0.883
		c2.538-3.45,5.081-6.894,7.622-10.338c3.347-4.539,6.688-9.078,10.041-13.613c0.219-0.295,0.452-0.591,0.725-0.833
		c1.818-1.611,4.694-0.757,5.349,1.579c0.254,0.914,0.121,1.782-0.358,2.595c-0.17,0.288-0.372,0.557-0.567,0.827
		c-5.637,7.646-11.27,15.29-16.906,22.933c-0.282,0.386-0.555,0.775-0.848,1.152c-0.488,0.629-1.104,1.084-1.892,1.271
		C41.429,65.594,41.145,65.615,40.869,65.656z"/>
	<path fill="#808080" d="M3.538,65.652c-2.388-0.021-3.976-2.455-3.018-4.646c0.163-0.373,0.403-0.699,0.643-1.023
		c2.824-3.83,5.649-7.657,8.471-11.487c3.065-4.152,6.127-8.311,9.191-12.463c0.199-0.271,0.403-0.539,0.646-0.77
		c1.833-1.74,4.838-0.877,5.46,1.57c0.214,0.835,0.111,1.646-0.31,2.403c-0.155,0.275-0.338,0.536-0.526,0.791
		c-5.614,7.617-11.226,15.234-16.842,22.851c-0.343,0.467-0.681,0.942-1.035,1.401c-0.485,0.636-1.112,1.074-1.9,1.258
		C4.065,65.6,3.799,65.617,3.538,65.652z"/>
	<path fill="#808080" d="M74.838,37.744c0.012,0.533-0.168,1.115-0.498,1.652c-0.137,0.227-0.294,0.438-0.451,0.651
		c-5.613,7.617-11.227,15.233-16.84,22.852c-0.335,0.451-0.66,0.91-1.004,1.359c-0.459,0.604-1.046,1.051-1.789,1.244
		c-1.285,0.336-2.424,0.044-3.328-0.934c-0.891-0.961-1.092-2.096-0.684-3.34c0.144-0.444,0.406-0.819,0.679-1.188
		c1.37-1.856,2.744-3.714,4.112-5.57c4.527-6.141,9.055-12.28,13.584-18.42c0.188-0.256,0.379-0.513,0.602-0.733
		c1.375-1.369,3.578-1.279,4.838,0.188C74.568,36.104,74.841,36.84,74.838,37.744z"/>
	<path fill="#808080" d="M37.484,37.619c0.015,0.636-0.166,1.22-0.488,1.759c-0.137,0.227-0.294,0.44-0.449,0.653
		c-5.644,7.658-11.29,15.316-16.937,22.977c-0.323,0.438-0.638,0.887-0.973,1.316c-0.47,0.599-1.074,1.007-1.815,1.205
		c-1.996,0.531-4.004-0.92-4.121-2.979c-0.044-0.788,0.158-1.503,0.606-2.144c0.284-0.405,0.586-0.795,0.878-1.192
		c5.677-7.702,11.353-15.404,17.032-23.103c0.22-0.298,0.442-0.599,0.708-0.852c1.567-1.497,4.105-1.102,5.153,0.791
		C37.347,36.54,37.489,37.061,37.484,37.619z"/>
	<path fill="#808080" d="M87.293,37.615c0.016,0.651-0.17,1.252-0.514,1.803c-0.141,0.224-0.295,0.438-0.452,0.65
		c-5.644,7.66-11.291,15.316-16.935,22.975c-0.313,0.426-0.619,0.857-0.943,1.275c-0.469,0.602-1.066,1.021-1.813,1.205
		c-2.196,0.557-4.036-1.09-4.126-2.971c-0.039-0.783,0.155-1.502,0.604-2.146c0.283-0.401,0.587-0.795,0.879-1.188
		c5.677-7.703,11.352-15.403,17.031-23.104c0.218-0.297,0.44-0.598,0.707-0.852c1.578-1.512,4.151-1.095,5.181,0.827
		C87.164,36.562,87.291,37.068,87.293,37.615z"/>
</g>
</svg>
