<?xml version="1.0" encoding="utf-8"?>
<!-- Generator: Adobe Illustrator 16.0.0, SVG Export Plug-In . SVG Version: 6.00 Build 0)  -->
<!DOCTYPE svg PUBLIC "-//W3C//DTD SVG 1.1//EN" "http://www.w3.org/Graphics/SVG/1.1/DTD/svg11.dtd">
<svg version="1.1" id="Layer_1" xmlns="http://www.w3.org/2000/svg" xmlns:xlink="http://www.w3.org/1999/xlink" x="0px" y="0px"
	 width="100px" height="100px" viewBox="0 0 100 100" enable-background="new 0 0 100 100" xml:space="preserve">
<g>
	<path fill-rule="evenodd" clip-rule="evenodd" fill="#3D220C" d="M66.909,97.65c-1.859-0.044-3.766-0.112-5.665-0.283
		c-1.595-0.144-3.189-0.281-4.782-0.436c-1.688-0.164-3.378-0.151-5.07-0.134c-1.979,0.021-3.959,0.015-5.938-0.043
		c-1.007-0.03-2.015-0.017-3.021-0.05c-0.429-0.014-0.853,0.058-1.285,0.027c-0.445-0.033-0.897,0.033-1.346,0.067
		c-0.431,0.032-0.86,0.069-1.289,0.123c-0.589,0.073-1.175,0.163-1.763,0.247c-0.641,0.09-1.281,0.193-1.923,0.266
		c-0.397,0.043-0.776,0.146-1.154,0.264c-1.473,0.465-2.94,0.953-4.445,1.308c-1.526,0.359-3.074,0.558-4.641,0.641
		c-1.444,0.077-2.879-0.005-4.309-0.173c-2.574-0.304-5.021-1.039-7.341-2.213c-1.455-0.736-2.747-1.707-4.052-2.661
		c-0.407-0.297-0.799-0.614-1.183-0.94c-0.902-0.765-1.612-1.688-2.195-2.713c-0.054-0.094-0.121-0.189-0.138-0.292
		c-0.092-0.552-0.429-0.979-0.714-1.432c-0.32-0.508-0.533-1.062-0.702-1.628c-0.416-1.386-0.636-2.805-0.667-4.251
		c-0.035-1.585,0.003-3.165,0.215-4.74c0.369-2.749,1.244-5.313,2.759-7.647c0.509-0.785,1.025-1.564,1.61-2.297
		c0.971-1.218,2.106-2.264,3.344-3.202c0.303-0.229,0.638-0.399,1-0.518c0.229-0.075,0.227-0.081,0.175-0.296
		c-0.095-0.402-0.199-0.804-0.286-1.208c-0.249-1.146-0.391-2.305-0.404-3.478c-0.014-1.277,0.001-2.555,0.112-3.829
		c0.262-2.997,1.037-5.834,2.593-8.432c0.891-1.486,1.883-2.896,3.12-4.12c1.259-1.247,2.659-2.312,4.21-3.171
		c0.615-0.341,1.239-0.66,1.968-0.675c0.167-0.003,0.302-0.098,0.434-0.197c0.156-0.117,0.23-0.254,0.221-0.458
		c-0.02-0.413-0.017-0.827-0.02-1.241c-0.009-1.419,0.28-2.784,0.731-4.123c0.787-2.335,2.029-4.406,3.649-6.249
		c2.255-2.565,4.767-4.848,7.598-6.767c0.656-0.444,1.321-0.875,2.045-1.199c0.174-0.078,0.241-0.178,0.28-0.35
		c0.139-0.596,0.281-1.19,0.44-1.78c0.505-1.867,1.401-3.538,2.581-5.062c0.836-1.082,1.746-2.104,2.644-3.136
		c0.342-0.394,0.686-0.787,1.014-1.192c0.479-0.589,0.875-1.225,1.111-1.958c0.15-0.464,0.09-0.922,0.057-1.386
		c-0.005-0.082-0.075-0.119-0.131-0.162c-0.756-0.572-1.165-1.354-1.337-2.268c-0.078-0.409-0.072-0.824,0.054-1.228
		c0.033-0.103,0.068-0.207,0.122-0.299c0.26-0.455,0.841-0.48,1.146-0.039c0.071,0.102,0.127,0.15,0.246,0.152
		c1.303,0.021,2.472,0.463,3.5,1.234c1.684,1.263,3.14,2.741,4.164,4.611c0.641,1.17,1.244,2.351,1.646,3.628
		c0.041,0.136,0.094,0.275,0.17,0.394c0.357,0.545,0.617,1.138,0.855,1.74c0.35,0.886,0.684,1.779,0.943,2.697
		c0.217,0.763,0.373,1.538,0.418,2.332c0.018,0.326,0.104,0.389,0.371,0.405c0.638,0.04,1.228,0.268,1.809,0.506
		c2.807,1.15,5.152,2.934,7.07,5.26c1.621,1.965,2.801,4.177,3.404,6.672c0.242,0.999,0.389,2.012,0.489,3.033
		c0.009,0.09,0.013,0.179,0.021,0.269c0.008,0.078,0.046,0.142,0.126,0.151c1.195,0.153,2.275,0.648,3.352,1.143
		c1.217,0.559,2.313,1.3,3.308,2.206c1.981,1.804,3.694,3.831,5.141,6.082c0.897,1.397,1.588,2.9,2.102,4.48
		c0.544,1.676,0.729,3.406,0.729,5.161c0,0.161-0.001,0.324-0.016,0.484c-0.013,0.158,0.076,0.242,0.205,0.273
		c1.039,0.258,1.805,0.942,2.555,1.646c0.592,0.557,1.088,1.199,1.572,1.848c1.437,1.922,2.68,3.959,3.617,6.176
		c0.68,1.609,1.215,3.268,1.703,4.942c0.236,0.812,0.41,1.64,0.553,2.474c0.281,1.654,0.361,3.322,0.32,5
		c-0.037,1.501-0.273,2.971-0.695,4.41c-0.535,1.83-1.403,3.494-2.495,5.055c-1.351,1.93-2.948,3.626-4.716,5.17
		c-0.801,0.699-1.619,1.376-2.481,1.994c-0.996,0.715-2.04,1.348-3.163,1.843c-0.213,0.095-0.426,0.193-0.631,0.306
		c-2.001,1.101-4.131,1.834-6.369,2.273c-1.395,0.273-2.789,0.539-4.2,0.713c-1.321,0.163-2.651,0.234-3.983,0.248
		C67.64,97.653,67.298,97.65,66.909,97.65z"/>
	<path fill-rule="evenodd" clip-rule="evenodd" fill="#8F6440" d="M21.981,41.619c0.423-0.315,0.897-0.519,1.396-0.681
		c0.247-0.081,0.495-0.091,0.744-0.074c0.404,0.029,0.551,0.135,0.632,0.521c0.12,0.573,0.389,1.079,0.662,1.583
		c0.295,0.545,0.692,1.017,1.235,1.321c0.497,0.278,1.025,0.501,1.58,0.639c0.222,0.055,0.464,0.028,0.697,0.036
		c1.336,0.045,2.646-0.127,3.93-0.489c0.38-0.107,0.762-0.208,1.129-0.348c0.341-0.13,0.701-0.151,1.05-0.219
		c1.694-0.328,3.34-0.809,4.958-1.405c1.164-0.43,2.294-0.928,3.395-1.496c0.703-0.362,1.371-0.784,2.04-1.203
		c0.136-0.086,0.274-0.17,0.412-0.254c0.217,0.015,0.374-0.121,0.532-0.23c2.152-1.5,4.376-2.903,6.384-4.604
		c1.825-1.546,3.358-3.342,4.667-5.34c0.801-1.221,1.494-2.501,2.213-3.769c0.258-0.456,0.389-0.462,0.785-0.119
		c1.791,1.553,3.361,3.303,4.591,5.333c1.105,1.826,1.891,3.792,1.778,5.961c-0.084,1.651-0.488,3.267-0.939,4.865
		c-1.043,3.7-2.564,7.175-4.778,10.332c-0.13,0.205-0.348,0.313-0.532,0.45c-1.484,1.104-3,2.167-4.578,3.136
		c-0.966,0.592-1.925,1.194-2.894,1.778c-0.478,0.288-0.965,0.558-1.461,0.812c-1.072,0.55-2.145,1.102-3.232,1.619
		c-0.859,0.407-1.735,0.783-2.617,1.143c-1.347,0.548-2.697,1.09-4.061,1.595c-1.263,0.469-2.537,0.905-3.819,1.319
		c-1.811,0.584-3.625,1.158-5.449,1.693c-1.772,0.52-3.56,0.984-5.339,1.478c-0.604,0.167-1.21,0.336-1.807,0.529
		c-0.392,0.126-0.771,0.296-1.154,0.448c-0.117,0.046-0.235,0.092-0.345,0.152c-0.091,0.053-0.215,0.01-0.287,0.107
		c0.57,0.075,1.589,0.033,2.164-0.035c0.856-0.102,1.697-0.277,2.54-0.447c1.407-0.285,2.8-0.628,4.184-1.01
		c1.799-0.497,3.575-1.074,5.357-1.632c2.436-0.763,4.823-1.655,7.192-2.599c2.458-0.977,4.835-2.13,7.169-3.369
		c1.303-0.689,2.554-1.47,3.806-2.248c1.589-0.988,3.102-2.084,4.605-3.191c0.579-0.426,1.137-0.879,1.667-1.367
		c0.846-0.777,1.71-1.536,2.566-2.303c1.979-1.468,3.929-2.974,5.711-4.683c0.598-0.572,1.127-1.211,1.667-1.837
		c0.479-0.555,0.563-0.558,1.138-0.15c2.052,1.454,3.327,3.559,4.683,5.589c0.759,1.137,1.402,2.345,1.856,3.647
		c0.612,1.76,0.771,3.576,0.728,5.422c-0.007,0.275-0.102,0.529-0.209,0.777c-0.351,0.81-0.682,1.628-1.062,2.422
		c-1.3,2.71-2.589,5.424-4.103,8.025c-1.284,2.209-2.662,4.36-4.065,6.496c-0.208,0.316-0.433,0.619-0.724,0.865
		c-0.379,0.411-0.832,0.738-1.275,1.072c-1.678,1.266-3.379,2.5-5.143,3.645c-1.266,0.822-2.553,1.607-3.862,2.359
		c-1.044,0.6-2.083,1.208-3.128,1.805c-0.483,0.277-0.971,0.546-1.466,0.803c-1.629,0.842-3.26,1.679-4.891,2.515
		c-1.584,0.812-3.172,1.614-4.752,2.435c-0.909,0.471-1.797,0.98-2.709,1.448c-1.15,0.592-2.349,1.08-3.536,1.595
		c-0.856,0.373-1.718,0.73-2.581,1.088c-0.863,0.358-1.742,0.67-2.647,0.906c-0.122,0.031-0.243,0.068-0.359,0.117
		c-0.601,0.246-1.241,0.354-1.869,0.492c-0.949,0.208-1.876,0.478-2.773,0.85c-0.199,0.082-0.401,0.158-0.598,0.246
		c-0.333,0.148-0.679,0.205-1.044,0.226c-0.661,0.037-1.319,0.12-1.979,0.181c-0.107,0.012-0.215,0.018-0.323,0.018
		c-0.972,0.002-1.945,0.042-2.914-0.015c-0.641-0.036-1.285-0.081-1.927-0.166c-0.729-0.096-1.454-0.198-2.174-0.345
		c-0.951-0.193-1.882-0.457-2.796-0.779c-0.932-0.328-1.846-0.704-2.716-1.179c-0.414-0.394-0.644-0.911-0.896-1.403
		c-1.2-2.344-2.297-4.729-2.751-7.352c-0.382-2.212-0.408-4.399,0.396-6.541c0.531-1.414,1.319-2.677,2.273-3.837
		c0.32-0.39,0.632-0.784,0.939-1.183c0.963-1.253,2.276-1.838,3.815-1.957c1.013-0.08,2.016,0.031,2.992,0.309
		c0.864,0.245,1.743,0.234,2.625,0.223c0.448-0.006,0.693-0.195,0.757-0.658c0.186-1.367-0.206-2.541-1.213-3.467
		c-0.424-0.389-0.591-0.773-0.576-1.35c0.027-1.002-0.258-1.951-1.027-2.637c-1.353-1.207-2.135-2.747-2.664-4.431
		c-0.66-2.104-1.027-4.265-1.04-6.476c-0.015-2.634,0.573-5.137,1.666-7.527c0.569-1.244,1.166-2.473,1.833-3.668
		C20.543,43.067,21.178,42.276,21.981,41.619z"/>
	<path fill-rule="evenodd" clip-rule="evenodd" fill="#8F6440" d="M80.718,94.088c-0.137,0.103-0.303,0.104-0.457,0.148
		c-1.189,0.342-2.395,0.627-3.6,0.9c-0.926,0.211-1.858,0.391-2.793,0.563c-0.686,0.126-1.376,0.258-2.07,0.312
		c-0.59,0.047-1.179,0.117-1.77,0.156c-1.24,0.082-2.479,0.069-3.717,0.089c-0.472,0.008-0.928-0.104-1.396-0.093
		c-0.359,0.008-0.72-0.006-1.079-0.014c-0.358-0.008-0.72,0.02-1.072-0.081c-0.051-0.015-0.107-0.013-0.161-0.011
		c-0.865,0.035-1.725-0.07-2.581-0.145c-0.66-0.056-1.329-0.021-1.981-0.168c-0.035-0.008-0.072-0.011-0.107-0.014
		c-0.627-0.041-1.254-0.066-1.879-0.127c-2.209-0.212-4.423-0.055-6.633-0.089c-0.84,0.123-1.686,0.072-2.529,0.087
		c-0.414,0.008-0.828-0.004-1.242,0.012c-0.753,0.027-1.506,0.084-2.259,0.098c-0.936,0.02-1.872,0.006-2.808,0.01
		c-0.305,0-0.607,0.004-0.911,0.072c-0.197,0.045-0.412,0.008-0.725,0.008c0.317-0.146,0.537-0.259,0.765-0.35
		c2.253-0.91,4.439-1.965,6.583-3.104c1.031-0.547,2.079-1.066,3.077-1.677c0.258-0.158,0.558-0.247,0.833-0.38
		c1.312-0.635,2.63-1.254,3.927-1.918c1.199-0.613,2.374-1.277,3.56-1.92c1.832-0.994,3.617-2.072,5.402-3.148
		c1.278-0.772,2.52-1.602,3.727-2.479c1.074-0.782,2.139-1.579,3.197-2.383c0.643-0.489,1.271-0.999,1.896-1.512
		c0.807-0.658,1.626-1.305,2.38-2.025c0.22-0.211,0.474-0.383,0.713-0.571c1.946-1.565,3.939-3.08,5.692-4.869
		c1.436-1.464,2.823-2.973,4.072-4.603c0.431-0.563,0.553-0.553,1.014-0.005c1.622,1.925,2.573,4.182,3.27,6.569
		c0.692,2.371,1.084,4.805,1.502,7.232c0.079,0.459-0.043,0.896-0.144,1.333c-0.819,3.528-2.492,6.604-4.864,9.329
		C84.058,91.037,82.464,92.639,80.718,94.088z"/>
	<path fill-rule="evenodd" clip-rule="evenodd" fill="#8F6440" d="M46.272,37.829c-0.621,0.542-1.378,0.835-2.117,1.162
		c-0.525,0.232-1.059,0.448-1.577,0.696c-1.896,0.911-3.835,1.712-5.83,2.386c-1.189,0.403-2.369,0.844-3.528,1.327
		c-0.586,0.244-1.19,0.387-1.797,0.543c-0.313,0.081-0.64,0.068-0.958,0.116c-0.602,0.088-1.208,0.174-1.824,0.142
		c-0.203-0.011-0.389-0.025-0.55-0.167c-0.093-0.083-0.205-0.146-0.314-0.209c-0.73-0.417-1.217-1.055-1.588-1.787
		c-0.375-0.74-0.626-1.527-0.833-2.328c-0.064-0.248-0.059-0.505-0.011-0.75c0.049-0.248,0.061-0.498,0.098-0.746
		c0.214-1.454,0.449-2.905,0.955-4.294c0.462-1.271,1.035-2.493,1.795-3.612c0.646-0.949,1.345-1.861,2.111-2.724
		c0.957-1.078,1.973-2.096,3.021-3.079c0.983-0.922,2.018-1.784,3.129-2.552c0.533-0.368,1.065-0.734,1.598-1.101
		c0.087-0.06,0.171-0.133,0.292-0.098c0.081,0.113,0.039,0.24,0.04,0.361c0.003,0.432-0.005,0.864-0.001,1.295
		c0.004,0.368,0.117,0.707,0.316,1.016c0.089,0.139,0.188,0.14,0.292,0.003c0.27-0.351,0.392-0.764,0.474-1.188
		c0.242-1.248,0.46-2.501,0.762-3.737c0.579-2.38,1.672-4.498,3.197-6.408c0.662-0.828,1.356-1.628,2.031-2.445
		c0.606-0.734,1.199-1.479,1.615-2.347c0.293-0.612,0.461-1.245,0.394-1.927c-0.011-0.106-0.006-0.222-0.047-0.317
		c-0.082-0.189-0.052-0.332,0.08-0.492c0.13-0.157,0.088-0.338-0.042-0.492c-0.185-0.22-0.358-0.45-0.559-0.655
		C46.523,3.035,46.3,2.57,46.121,2.077c-0.045-0.126,0.026-0.216,0.165-0.189C46.549,1.94,46.811,2,47.07,2.071
		c0.841,0.23,1.611,0.594,2.277,1.173c0.325,0.283,0.67,0.542,0.936,0.886c0.517,1.011,0.813,2.11,1.246,3.154
		c0.756,1.82,0.896,3.77,1.133,5.693c0.249,2.016,0.4,4.038,0.357,6.074c-0.078,3.653-0.774,7.163-2.172,10.548
		C49.64,32.525,48.094,35.25,46.272,37.829z"/>
	<path fill-rule="evenodd" clip-rule="evenodd" fill="#6B411D" d="M80.718,94.088c0.049-0.273,0.281-0.406,0.459-0.577
		c0.09-0.086,0.21-0.139,0.301-0.224c0.682-0.639,1.379-1.261,2.028-1.93c0.612-0.629,1.198-1.282,1.772-1.949
		c0.385-0.448,0.761-0.903,1.129-1.365c0.999-1.256,1.853-2.604,2.506-4.066c0.637-1.425,1.15-2.893,1.448-4.432
		c0.073-0.381,0.085-0.73,0.005-1.111c-0.147-0.698-0.217-1.412-0.357-2.111c-0.164-0.822-0.308-1.648-0.486-2.47
		c-0.297-1.368-0.676-2.709-1.137-4.028c-0.449-1.292-1.008-2.531-1.807-3.652c-0.352-0.495-0.719-0.98-1.079-1.472
		c-0.021-0.028-0.048-0.053-0.073-0.078c-0.11-0.11-0.229-0.108-0.321,0.01c-0.101,0.126-0.194,0.257-0.292,0.386
		c-0.484,0.645-1.014,1.252-1.531,1.869c-0.406,0.482-0.882,0.898-1.277,1.383c-0.559,0.687-1.197,1.291-1.828,1.902
		c-0.513,0.5-1.072,0.949-1.608,1.426c-0.281,0.25-0.562,0.5-0.851,0.741c-0.676,0.562-1.373,1.093-2.077,1.616
		c-0.13,0.096-0.263,0.188-0.389,0.287c-0.073,0.059-0.153,0.09-0.246,0.095c0.282-0.399,0.645-0.725,1.013-1.036
		c0.631-0.535,1.228-1.101,1.739-1.753c0.056-0.071,0.118-0.136,0.183-0.198c0.682-0.688,1.278-1.449,1.893-2.197
		c0.707-0.859,1.332-1.776,1.938-2.707c0.067-0.105,0.143-0.209,0.197-0.32c0.4-0.801,0.842-1.581,1.162-2.422
		c0.123-0.324,0.223-0.643,0.189-0.992c-0.004-0.053-0.009-0.107-0.024-0.158c-0.028-0.091-0.09-0.155-0.183-0.18
		c-0.096-0.026-0.179,0-0.244,0.07c-0.037,0.039-0.065,0.086-0.091,0.133c-0.218,0.393-0.435,0.785-0.647,1.18
		c-0.426,0.788-0.852,1.577-1.371,2.31c-0.498,0.7-0.99,1.403-1.537,2.067c-0.673,0.815-1.361,1.614-2.068,2.4
		c-0.479,0.535-0.95,1.08-1.487,1.554c-0.606,0.534-1.169,1.113-1.761,1.661c-0.527,0.484-1.072,0.949-1.622,1.408
		c-0.425,0.356-0.871,0.688-1.306,1.031c-0.112,0.09-0.219,0.185-0.324,0.282c-0.082,0.077-0.171,0.13-0.283,0.144
		c0.354-0.539,0.713-1.075,1.061-1.618c0.764-1.194,1.526-2.388,2.279-3.589c0.354-0.563,0.686-1.137,1.021-1.709
		c0.363-0.619,0.722-1.24,1.082-1.861c0.026-0.047,0.051-0.095,0.076-0.143c0.625-1.214,1.281-2.414,1.867-3.646
		c0.432-0.91,0.893-1.805,1.314-2.718c0.323-0.7,0.613-1.415,0.917-2.124c0.015-0.033,0.024-0.068,0.044-0.1
		c0.346-0.559,0.41-1.174,0.373-1.814c-0.027-0.465,0.049-0.936-0.098-1.393c-0.021-0.066-0.01-0.143-0.011-0.215
		c-0.009-0.775-0.181-1.527-0.378-2.27c-0.197-0.746-0.48-1.469-0.814-2.164c-0.309-0.646-0.689-1.258-1.05-1.878
		c-0.631-1.088-1.376-2.1-2.142-3.093c-0.36-0.469-0.729-0.932-1.076-1.41c-0.095-0.129-0.213-0.247-0.338-0.348
		c-0.541-0.441-1.09-0.874-1.635-1.311c-0.105-0.085-0.197-0.063-0.285,0.021c-0.103,0.1-0.225,0.191-0.297,0.311
		c-0.182,0.297-0.436,0.526-0.678,0.765c-0.333,0.328-0.564,0.751-0.938,1.037c-0.658,0.503-1.178,1.156-1.839,1.656
		c-0.283,0.215-0.546,0.465-0.814,0.703c-0.432,0.38-0.899,0.71-1.357,1.055c-0.473,0.355-0.949,0.704-1.424,1.057
		c-0.146,0.108-0.295,0.207-0.481,0.226c0.231-0.371,0.589-0.626,0.88-0.942c0.559-0.607,1.131-1.206,1.574-1.903
		c0.348-0.544,0.675-1.103,0.979-1.671c0.271-0.507,0.57-0.998,0.849-1.499c0.417-0.753,0.813-1.522,1.105-2.335
		c0.256-0.709,0.521-1.415,0.743-2.134c0.158-0.511,0.275-1.036,0.348-1.569c0.051-0.371,0.129-0.738,0.185-1.109
		c0.024-0.159,0.024-0.322,0.026-0.483c0.004-0.486-0.001-0.972,0.007-1.458c0.003-0.188,0.101-0.253,0.286-0.188
		c0.408,0.14,0.813,0.286,1.215,0.443c0.433,0.17,0.865,0.346,1.291,0.538c0.756,0.341,1.449,0.787,2.133,1.253
		c0.463,0.315,0.801,0.773,1.275,1.072c0.35,0.552,0.901,0.923,1.283,1.449c0.24,0.333,0.531,0.631,0.798,0.944
		c0.954,1.121,1.89,2.256,2.638,3.526c0.445,0.755,0.883,1.519,1.217,2.339c0.184,0.448,0.361,0.899,0.537,1.35
		c0.234,0.601,0.362,1.236,0.492,1.867c0.16,0.772,0.266,1.554,0.223,2.347c-0.018,0.31,0.124,0.593,0.113,0.904
		c-0.01,0.29-0.133,0.557-0.117,0.852c0.032,0.575-0.102,1.135-0.19,1.701c-0.219,1.396-0.561,2.768-0.894,4.139
		c-0.145,0.592-0.305,1.179-0.473,1.764c-0.057,0.196-0.08,0.385-0.035,0.582c0.168,0.031,0.229-0.098,0.281-0.201
		c0.293-0.576,0.602-1.147,0.856-1.742c0.347-0.807,0.665-1.627,0.964-2.453c0.25-0.689,0.443-1.398,0.57-2.123
		c0.05-0.281,0.086-0.564,0.135-0.846c0.021-0.127,0.133-0.166,0.241-0.088c0.733,0.523,1.411,1.114,2.003,1.791
		c0.578,0.66,1.092,1.374,1.57,2.112c0.938,1.446,1.846,2.911,2.566,4.482c0.275,0.603,0.519,1.22,0.76,1.839
		c0.195,0.501,0.389,1.004,0.541,1.521c0.324,1.099,0.738,2.171,0.965,3.3c0.155,0.77,0.31,1.537,0.42,2.318
		c0.058,0.411,0.03,0.828,0.104,1.228c0.146,0.806,0.071,1.612,0.09,2.419c0.01,0.357,0.002,0.711-0.081,1.069
		c-0.075,0.326-0.071,0.673-0.108,1.011c-0.07,0.646-0.215,1.271-0.383,1.891c-0.279,1.041-0.668,2.047-1.166,3.002
		c-0.522,1.004-1.148,1.946-1.832,2.848c-0.378,0.499-0.771,0.987-1.162,1.479c-0.078,0.098-0.172,0.184-0.26,0.271
		c-0.865,0.866-1.721,1.742-2.6,2.592c-0.425,0.41-0.895,0.771-1.344,1.158c-0.299,0.256-0.598,0.517-0.889,0.779
		c-0.812,0.734-1.695,1.379-2.534,2.077c-0.071,0.059-0.146,0.101-0.239,0.113c-0.569,0.075-1.113,0.261-1.671,0.388
		C80.932,94.075,80.823,94.077,80.718,94.088z"/>
	<path fill-rule="evenodd" clip-rule="evenodd" fill="#6B411D" d="M21.981,41.619c-0.023,0.067-0.033,0.144-0.073,0.199
		c-0.062,0.087-0.138,0.167-0.218,0.238c-0.73,0.66-1.242,1.475-1.709,2.333c-0.334,0.615-0.666,1.232-0.969,1.863
		c-0.662,1.375-1.274,2.771-1.7,4.241c-0.188,0.652-0.336,1.313-0.432,1.988c-0.071,0.502-0.025,1.008-0.107,1.498
		c-0.109,0.646-0.072,1.289-0.086,1.934c-0.003,0.18-0.001,0.357,0.059,0.532c0.033,0.1,0.044,0.212,0.041,0.318
		c-0.023,0.741,0.19,1.451,0.288,2.177c0.093,0.693,0.288,1.363,0.462,2.038c0.191,0.749,0.43,1.479,0.784,2.171
		c0.157,0.304,0.311,0.609,0.46,0.916c0.222,0.457,0.522,0.855,0.883,1.211c0.154,0.15,0.301,0.311,0.462,0.453
		c1.052,0.938,1.394,2.139,1.288,3.496c-0.015,0.197,0.03,0.279,0.177,0.393c0.519,0.396,0.942,0.885,1.237,1.471
		c0.12,0.238,0.198,0.5,0.277,0.756c0.21,0.684,0.226,1.375,0.037,2.066c-0.043,0.158-0.124,0.287-0.308,0.34
		c-0.175,0.05-0.346,0.088-0.527,0.086c-0.469-0.004-0.936-0.001-1.404-0.002c-0.454,0-0.88-0.152-1.318-0.237
		s-0.87-0.202-1.31-0.282c-0.191-0.035-0.394-0.018-0.591-0.02c-0.216-0.003-0.432,0.002-0.648-0.002
		c-1.354-0.022-2.519,0.463-3.547,1.316c-0.195,0.162-0.33,0.376-0.484,0.574c-0.441,0.564-0.909,1.107-1.34,1.68
		c-1.046,1.389-1.87,2.891-2.25,4.605c-0.092,0.418-0.169,0.838-0.189,1.271c-0.02,0.427-0.133,0.849-0.1,1.283
		c0.018,0.231-0.011,0.466,0.077,0.692c0.031,0.08,0.026,0.177,0.028,0.267c0.023,1.153,0.273,2.269,0.571,3.376
		c0.275,1.023,0.658,2.008,1.1,2.971c0.307,0.668,0.586,1.351,0.913,2.009c0.287,0.577,0.623,1.132,0.936,1.696
		c0.069,0.126,0.148,0.247,0.163,0.396c-0.58-0.249-1.103-0.603-1.629-0.94c-0.875-0.561-1.755-1.117-2.581-1.749
		c-0.671-0.513-1.293-1.07-1.825-1.738c-0.52-0.652-0.97-1.331-1.251-2.118C5.6,89.314,5.58,89.23,5.528,89.191
		c-0.295-0.219-0.302-0.563-0.36-0.869c-0.149-0.789-0.337-1.572-0.367-2.381C4.591,85.41,4.79,84.829,4.6,84.293
		c-0.041-0.112-0.012-0.25-0.012-0.376c-0.001-0.593-0.002-1.188,0.001-1.78c0.002-0.305-0.001-0.605,0.077-0.909
		c0.061-0.237,0.023-0.501,0.03-0.751c0.007-0.287-0.029-0.576,0.084-0.854c0.026-0.063,0.018-0.143,0.022-0.213
		c0.067-1.166,0.315-2.3,0.628-3.42c0.295-1.058,0.698-2.076,1.172-3.063c0.294-0.612,0.656-1.194,1.012-1.776
		C8.006,70.51,8.4,69.867,8.889,69.29c0.278-0.327,0.536-0.673,0.824-0.991c0.626-0.696,1.345-1.296,2.037-1.922
		c0.224-0.201,0.497-0.354,0.752-0.52c0.133-0.086,0.286-0.03,0.28,0.113c-0.012,0.256,0.148,0.437,0.234,0.647
		c0.148,0.366,0.307,0.728,0.475,1.083c0.068,0.146,0.162,0.283,0.267,0.404c0.489,0.56,1.025,1.063,1.746,1.314
		c0.797,0.277,1.603,0.518,2.462,0.488c0.288-0.008,0.577-0.018,0.863,0.004c0.331,0.025,0.637-0.096,0.956-0.133
		c0.173-0.02,0.378-0.136,0.403-0.307c0.029-0.197-0.182-0.29-0.347-0.356c-0.433-0.175-0.879-0.303-1.337-0.396
		c-0.717-0.146-1.444-0.244-2.152-0.433c-0.936-0.249-1.688-0.735-2.258-1.542c-0.344-0.488-0.501-1.026-0.642-1.577
		c-0.167-0.657-0.322-1.321-0.412-1.993c-0.062-0.458-0.187-0.915-0.137-1.387c0.007-0.072,0.013-0.148-0.008-0.215
		c-0.153-0.475-0.091-0.963-0.097-1.445c-0.008-0.721-0.004-1.44-0.001-2.16c0.003-0.357-0.031-0.717,0.087-1.068
		c0.039-0.115,0.017-0.25,0.018-0.375c0.007-0.305,0.026-0.604,0.079-0.908c0.063-0.366,0.069-0.744,0.133-1.117
		c0.108-0.634,0.229-1.266,0.393-1.887c0.091-0.347,0.186-0.693,0.303-1.031c0.534-1.554,1.269-3.007,2.192-4.366
		c0.242-0.356,0.478-0.716,0.734-1.062c0.535-0.723,1.139-1.384,1.784-2.011c0.71-0.689,1.48-1.302,2.296-1.857
		C21.186,42.035,21.563,41.788,21.981,41.619z"/>
	<path fill-rule="evenodd" clip-rule="evenodd" fill="#6B411D" d="M61.074,51.98c0.069-0.341,0.232-0.643,0.432-0.918
		c0.913-1.256,1.603-2.64,2.249-4.04c0.669-1.449,1.239-2.941,1.696-4.472c0.229-0.771,0.443-1.548,0.628-2.332
		c0.16-0.676,0.28-1.363,0.408-2.047c0.08-0.423,0.111-0.851,0.171-1.273c0.069-0.489,0.08-0.998-0.065-1.495
		c-0.127-0.428-0.216-0.867-0.304-1.305c-0.11-0.549-0.319-1.065-0.536-1.575c-0.48-1.127-1.123-2.168-1.865-3.137
		c-0.445-0.581-0.911-1.15-1.418-1.686c-0.369-0.39-0.716-0.804-1.104-1.176c-0.401-0.384-0.819-0.751-1.231-1.124
		c-0.105-0.096-0.19-0.082-0.26,0.041c-0.186,0.328-0.372,0.655-0.549,0.988c-0.445,0.84-0.932,1.655-1.434,2.463
		c-0.56,0.899-1.17,1.759-1.811,2.6c-0.238,0.313-0.495,0.613-0.76,0.905c-0.29,0.319-0.615,0.602-0.863,0.96
		c-0.101,0.145-0.235,0.281-0.382,0.377c-0.319,0.21-0.561,0.502-0.842,0.751c-0.336,0.296-0.68,0.585-1.028,0.864
		c-1.036,0.828-2.128,1.577-3.217,2.334c-0.912,0.635-1.849,1.233-2.758,1.874c-0.154,0.108-0.261,0.068-0.389-0.009
		c0.497-0.353,0.986-0.715,1.49-1.057c0.608-0.414,1.172-0.882,1.745-1.341c0.636-0.508,1.202-1.086,1.749-1.677
		c0.498-0.539,1.028-1.051,1.465-1.646c0.063-0.086,0.145-0.16,0.221-0.235c1.123-1.098,2.063-2.342,2.883-3.672
		c0.451-0.731,0.798-1.523,1.149-2.311c0.323-0.723,0.578-1.47,0.806-2.224c0.278-0.924,0.552-1.85,0.708-2.808
		c0.088-0.546,0.146-1.097,0.225-1.644c0.085-0.592,0.074-1.179,0.09-1.77c0.008-0.335,0.117-0.401,0.445-0.274
		c0.335,0.13,0.682,0.237,1,0.399c0.877,0.447,1.791,0.818,2.592,1.421c0.732,0.55,1.447,1.112,2.132,1.721
		c0.376,0.334,0.759,0.659,1.104,1.024c0.79,0.837,1.491,1.74,2.084,2.73c0.397,0.664,0.738,1.357,1.069,2.055
		c0.377,0.795,0.646,1.63,0.813,2.496c0.085,0.438,0.186,0.874,0.278,1.311c0.07,0.333,0.006,0.684,0.141,1.008
		c-0.021,0.861,0.222,1.72,0.098,2.575c-0.088,0.604-0.094,1.21-0.17,1.814c-0.126,0.997-0.316,1.977-0.574,2.943
		c-0.225,0.847-0.459,1.694-0.793,2.509c-0.15,0.364-0.271,0.739-0.44,1.098c-0.255,0.539-0.616,1.011-0.902,1.529
		c-0.147,0.267-0.312,0.523-0.479,0.779c-0.45,0.694-0.972,1.332-1.558,1.916c-0.587,0.583-1.16,1.182-1.761,1.75
		c-0.441,0.418-0.921,0.796-1.38,1.195C61.747,51.446,61.462,51.776,61.074,51.98z"/>
	<path fill-rule="evenodd" clip-rule="evenodd" fill="#6B411D" d="M46.272,37.829c0.09-0.353,0.271-0.661,0.471-0.96
		c0.598-0.895,1.222-1.775,1.731-2.723c0.492-0.917,1.042-1.804,1.424-2.779c0.275-0.701,0.611-1.378,0.91-2.069
		c0.127-0.296,0.229-0.604,0.346-0.904c0.408-1.054,0.758-2.123,0.963-3.238c0.116-0.632,0.266-1.258,0.398-1.888
		c0.052-0.245,0.059-0.498,0.09-0.745c0.057-0.442,0.18-0.879,0.152-1.332c-0.012-0.197,0.006-0.391,0.063-0.586
		c0.043-0.152,0.041-0.319,0.041-0.48c0.002-1.188,0.002-2.375,0-3.563c0-0.197,0.013-0.396-0.064-0.586
		c-0.02-0.049-0.037-0.106-0.033-0.157c0.053-0.561-0.104-1.105-0.126-1.66c-0.019-0.48-0.11-0.957-0.171-1.436
		c-0.012-0.088-0.033-0.177-0.033-0.266c0.006-0.469-0.101-0.922-0.186-1.379c-0.055-0.298-0.096-0.602-0.125-0.902
		c-0.108-1.119-0.475-2.163-0.869-3.202c-0.241-0.637-0.496-1.27-0.724-1.911c-0.107-0.302-0.166-0.621-0.247-0.932
		c0.746,0.675,1.49,1.354,2.031,2.214c0.728,1.155,1.381,2.348,1.867,3.63c0.377,0.991,0.623,2.014,0.852,3.045
		c0.219,0.994,0.336,2.006,0.537,3.003c0.143,0.7,0.277,1.404,0.526,2.078c0.063,0.167,0.105,0.339,0.156,0.51
		c0.084-0.012,0.109-0.084,0.128-0.145c0.087-0.272,0.177-0.545,0.243-0.823c0.083-0.348,0.15-0.698,0.131-1.063
		c-0.018-0.358-0.004-0.718-0.004-1.081c0.178-0.017,0.186,0.127,0.192,0.202c0.039,0.411,0.127,0.811,0.222,1.211
		c0.033,0.137,0.018,0.287,0.018,0.43c0.002,0.989-0.017,1.979,0.009,2.967c0.013,0.491-0.081,0.965-0.148,1.44
		c-0.108,0.776-0.284,1.544-0.493,2.303c-0.237,0.865-0.488,1.722-0.829,2.552C55.435,27.3,55.156,28,54.803,28.667
		c-0.461,0.874-1.002,1.696-1.585,2.493c-0.35,0.478-0.747,0.915-1.13,1.365c-0.418,0.495-0.881,0.944-1.319,1.417
		c-0.206,0.223-0.364,0.489-0.598,0.69c-0.841,0.724-1.595,1.543-2.495,2.208C47.215,37.182,46.742,37.502,46.272,37.829z"/>
</g>
</svg>
