<?xml version="1.0" encoding="utf-8"?>
<!-- Generator: Adobe Illustrator 16.0.0, SVG Export Plug-In . SVG Version: 6.00 Build 0)  -->
<!DOCTYPE svg PUBLIC "-//W3C//DTD SVG 1.1//EN" "http://www.w3.org/Graphics/SVG/1.1/DTD/svg11.dtd">
<svg version="1.1" id="Layer_1" xmlns="http://www.w3.org/2000/svg" xmlns:xlink="http://www.w3.org/1999/xlink" x="0px" y="0px"
	 width="100px" height="100px" viewBox="0 0 100 100" enable-background="new 0 0 100 100" xml:space="preserve">
<g>
	<path fill="#808080" d="M33.536,80.705c-0.3-0.125-0.599-0.072-0.887-0.072c-2.47-0.006-4.94-0.002-7.41-0.006
		c-1.14-0.002-2.255-0.174-3.294-0.646c-3.043-1.381-4.686-3.756-4.843-7.096c-0.069-1.475-0.005-2.955-0.005-4.43
		C17.098,57.26,17.1,46.064,17.1,34.869c0-0.314,0.033-0.633-0.046-0.976c-0.321,0.018-0.518,0.214-0.737,0.352
		c-2.203,1.387-4.401,2.779-6.606,4.164c-0.339,0.213-0.687,0.424-1.055,0.582c-1.534,0.654-3.289,0.176-4.249-1.139
		c-0.991-1.36-0.904-3.216,0.246-4.445c0.307-0.329,0.682-0.608,1.064-0.851c3.511-2.229,7.03-4.446,10.548-6.665
		c0.25-0.157,0.505-0.304,0.755-0.453c0.139-0.289,0.078-0.589,0.078-0.879c0.005-4.913,0.006-9.826,0.002-14.739
		c-0.001-0.835,0.073-1.658,0.279-2.471c0.806-3.183,3.554-5.51,6.658-5.843c0.558-0.06,1.124-0.053,1.686-0.057
		c0.456-0.005,0.912,0.029,1.368,0.029c11.275-0.002,22.551-0.009,33.827-0.011c4.055,0,8.107,0.01,12.162,0.011
		c0.43,0,0.857-0.014,1.287-0.041c4.068-0.256,7.555,2.388,8.354,6.387c0.146,0.729,0.168,1.494,0.168,2.241
		c0.018,4.807,0.01,9.612,0.01,14.417c0,0.293,0,0.586,0,0.889c0.326,0.202,0.623,0.381,0.914,0.565
		c3.474,2.189,6.946,4.379,10.414,6.576c0.36,0.229,0.722,0.479,1.021,0.779c1.899,1.911,1.049,5.14-1.545,5.861
		c-0.826,0.23-1.652,0.175-2.435-0.2c-0.361-0.174-0.709-0.378-1.051-0.592c-2.135-1.343-4.266-2.692-6.4-4.038
		c-0.243-0.154-0.494-0.304-0.799-0.492c-0.055,0.193-0.104,0.312-0.112,0.433c-0.017,0.241-0.009,0.483-0.009,0.726
		c0.006,12.027,0.013,24.055,0.018,36.082c0,0.886,0.044,1.769-0.063,2.654c-0.412,3.385-3.148,6.242-6.524,6.754
		c-0.606,0.093-1.226,0.14-1.843,0.143c-2.361,0.017-4.726,0.007-7.086,0.009c-0.293,0-0.582,0.009-0.864,0.015
		c-0.187,0.317-0.115,0.619-0.116,0.905c-0.007,2.898-0.004,5.8-0.004,8.698c0,1.529-0.001,3.063,0.002,4.593
		c0,0.457-0.041,0.906-0.189,1.347c-0.502,1.481-1.881,2.438-3.457,2.389c-1.563-0.047-2.912-1.1-3.281-2.614
		c-0.112-0.464-0.147-0.956-0.147-1.437c-0.012-4.269-0.006-8.535-0.006-12.806c0-0.319,0-0.642,0-0.995
		c-0.188-0.037-0.336-0.089-0.487-0.091c-0.699-0.008-1.396,0-2.094,0c-5.021-0.002-10.041-0.003-15.061-0.004
		c-0.293-0.002-0.587,0-0.851,0c-0.243,0.306-0.156,0.611-0.157,0.896c-0.007,2.632-0.004,5.262-0.004,7.893
		c0,1.771,0,3.544,0,5.316c0,0.512-0.039,1.014-0.208,1.507c-0.431,1.258-1.772,2.528-3.735,2.313
		c-1.558-0.168-2.833-1.383-3.061-2.964c-0.057-0.396-0.067-0.801-0.067-1.203c-0.004-4.24-0.002-8.482-0.004-12.726
		C33.604,81.348,33.643,81.023,33.536,80.705z M58.143,23.669c2.108,0.021,4.033-1.646,4.018-4.042
		c-0.018-2.229-1.752-3.959-3.997-3.994c-2.24-0.034-4.022,1.763-4.054,4.012C54.081,21.738,55.797,23.692,58.143,23.669z
		 M41.895,23.669c2.257,0.049,4.071-1.693,4.107-3.945c0.037-2.244-1.724-4.058-3.975-4.093c-2.196-0.036-4.022,1.697-4.07,3.918
		C37.902,21.983,39.839,23.658,41.895,23.669z M50.009,30.048c0.993,0,1.985,0.011,2.978-0.007c0.316-0.006,0.648-0.039,0.945-0.144
		c0.729-0.255,1.123-0.952,1.025-1.718c-0.09-0.705-0.65-1.263-1.385-1.361c-0.211-0.028-0.428-0.033-0.643-0.033
		c-1.931-0.002-3.862-0.003-5.792,0c-0.241,0-0.484,0.005-0.722,0.041c-0.696,0.107-1.223,0.649-1.319,1.33
		c-0.103,0.745,0.25,1.409,0.916,1.715c0.324,0.147,0.667,0.181,1.02,0.179C48.024,30.044,49.018,30.048,50.009,30.048z"/>
</g>
</svg>
