<?xml version="1.0" encoding="utf-8"?>
<!-- Generator: Adobe Illustrator 16.0.0, SVG Export Plug-In . SVG Version: 6.00 Build 0)  -->
<!DOCTYPE svg PUBLIC "-//W3C//DTD SVG 1.1//EN" "http://www.w3.org/Graphics/SVG/1.1/DTD/svg11.dtd">
<svg version="1.1" id="Layer_1" xmlns="http://www.w3.org/2000/svg" xmlns:xlink="http://www.w3.org/1999/xlink" x="0px" y="0px"
	 width="100px" height="100px" viewBox="0 0 100 100" enable-background="new 0 0 100 100" xml:space="preserve">
<g>
	<path fill="#808080" d="M44.217,86.219c0.071,0.174,0.101,0.277,0.153,0.366c0.904,1.54,1.927,2.988,3.202,4.249
		c0.256,0.254,0.516,0.514,0.717,0.809c1.113,1.638,0.177,3.779-1.776,4.084c-0.725,0.111-1.376-0.104-1.958-0.531
		c-0.2-0.146-0.376-0.329-0.556-0.504c-1.408-1.356-2.605-2.887-3.621-4.555c-0.635-1.043-1.226-2.115-1.833-3.175
		c-0.137-0.239-0.264-0.485-0.409-0.756c-0.489-0.075-0.978-0.159-1.469-0.224c-9.091-1.221-16.726-7.938-18.995-17.029
		c-0.364-1.459-0.606-2.938-0.658-4.441c-0.031-0.918-0.044-1.835-0.045-2.751c-0.003-9.895-0.001-19.786-0.003-29.679
		c0-0.358,0.039-0.72-0.059-1.079c-0.336-0.111-0.654-0.206-0.965-0.319c-0.978-0.358-1.822-0.938-2.634-1.577
		c-1.57-1.234-2.8-2.771-3.897-4.42c-0.848-1.274-1.609-2.598-2.113-4.053c-0.33-0.949-0.567-1.918-0.64-2.921
		C6.634,17.409,6.629,17.1,6.66,16.799c0.135-1.324,1.188-2.321,2.484-2.371c1.329-0.049,2.471,0.902,2.684,2.249
		c0.043,0.274,0.037,0.556,0.081,0.829c0.128,0.8,0.363,1.569,0.729,2.294c0.742,1.471,1.652,2.831,2.75,4.06
		c0.369,0.411,0.801,0.767,1.213,1.14c0.096,0.088,0.225,0.141,0.377,0.232c0.121-0.368,0.145-0.695,0.189-1.018
		c0.9-6.531,4.007-11.757,9.315-15.659c2.729-2.006,5.789-3.281,9.111-3.906c2.057-0.387,4.133-0.511,6.224-0.307
		c0.358,0.035,0.721,0.042,1.082,0.042C48.04,4.387,53.182,4.387,58.32,4.387c0.111,0,0.226,0.008,0.334-0.003
		c1.888-0.197,3.771-0.129,5.658-0.005c0.672,0.044,1.326,0.116,1.959,0.349c0.338,0.124,0.687,0.226,1.035,0.317
		c7.689,2.016,14.392,8.264,16.371,17.121c0.342,1.521,0.526,3.066,0.543,4.628c0.014,1.277,0.01,2.558,0.012,3.836
		c0,0.276,0,0.554,0,0.866c0.179,0.125,0.35,0.259,0.535,0.369c0.979,0.585,1.918,1.227,2.809,1.94
		c1.203,0.965,2.203,2.111,3.044,3.401c0.989,1.518,1.772,3.146,2.5,4.798c0.501,1.139,0.203,2.355-0.693,3.099
		c-1.079,0.894-2.663,0.79-3.604-0.279c-0.306-0.348-0.537-0.777-0.736-1.198c-0.56-1.181-1.116-2.36-1.819-3.464
		c-0.422-0.661-0.9-1.269-1.473-1.805c-0.119-0.11-0.253-0.207-0.359-0.295c-0.232,0.051-0.195,0.207-0.199,0.336
		c-0.006,0.249-0.002,0.5-0.002,0.751c-0.002,7.808-0.004,15.615,0.002,23.426c0.002,1.84-0.114,3.666-0.506,5.466
		c-1.242,5.725-4.222,10.336-8.935,13.814c-2.237,1.647-4.726,2.785-7.392,3.561c-1.234,0.357-2.496,0.523-3.764,0.686
		c-0.137,0.019-0.272,0.032-0.467,0.056c0.071,0.183,0.109,0.34,0.188,0.471c0.937,1.588,2,3.073,3.328,4.36
		c0.22,0.212,0.428,0.443,0.594,0.695c1.061,1.631,0.148,3.715-1.768,4.031C64.665,95.857,63.9,95.6,63.3,94.999
		c-0.766-0.765-1.519-1.548-2.204-2.385c-1.414-1.727-2.521-3.655-3.565-5.618c-0.118-0.223-0.235-0.442-0.36-0.658
		c-0.025-0.047-0.079-0.074-0.12-0.111C56.393,86.141,45.185,86.125,44.217,86.219z M53.363,23.398
		c-0.018-2.271-1.877-4.123-4.146-4.13c-2.304-0.006-4.182,1.882-4.167,4.188c0.016,2.309,1.914,4.161,4.227,4.126
		C51.546,27.549,53.38,25.67,53.363,23.398z M50.521,70.141c0.215,0.201,0.416,0.389,0.615,0.577
		c0.241,0.229,0.465,0.482,0.725,0.688c0.462,0.362,1.063,0.327,1.439-0.052c0.375-0.379,0.397-0.975,0.035-1.441
		c-0.152-0.196-0.343-0.362-0.513-0.547c-0.242-0.262-0.537-0.48-0.749-0.842c0.355-0.357,0.712-0.701,1.053-1.061
		c0.17-0.181,0.348-0.368,0.461-0.582c0.342-0.648-0.077-1.415-0.795-1.495c-0.354-0.04-0.662,0.066-0.915,0.312
		c-0.342,0.324-0.669,0.667-1.011,0.99c-0.113,0.109-0.254,0.191-0.41,0.306c-0.321-0.318-0.612-0.613-0.911-0.901
		c-0.158-0.152-0.317-0.316-0.501-0.437c-0.469-0.306-1.003-0.231-1.36,0.159c-0.338,0.371-0.393,0.871-0.083,1.302
		c0.209,0.289,0.487,0.526,0.729,0.797c0.197,0.219,0.461,0.389,0.596,0.707c-0.312,0.317-0.606,0.606-0.889,0.911
		c-0.15,0.16-0.303,0.328-0.406,0.52c-0.205,0.377-0.126,0.86,0.15,1.165c0.311,0.343,0.793,0.454,1.212,0.238
		c0.217-0.112,0.404-0.287,0.591-0.449C49.896,70.736,50.141,70.395,50.521,70.141z M56.76,19.183
		c0.234-0.16,0.402-0.291,0.586-0.397c0.862-0.502,1.729-0.996,2.592-1.496c0.168-0.097,0.34-0.189,0.494-0.307
		c0.217-0.166,0.267-0.383,0.162-0.585c-0.13-0.25-0.361-0.337-0.627-0.23c-0.078,0.031-0.152,0.069-0.224,0.11
		c-1.347,0.773-2.696,1.539-4.033,2.326c-0.604,0.356-0.593,0.728,0.001,1.118c0.046,0.03,0.096,0.055,0.145,0.083
		c1.295,0.747,2.592,1.495,3.891,2.24c0.117,0.069,0.246,0.129,0.376,0.172c0.181,0.059,0.382-0.032,0.501-0.206
		c0.113-0.164,0.111-0.4-0.033-0.535c-0.141-0.13-0.303-0.243-0.467-0.34c-0.79-0.461-1.585-0.914-2.376-1.371
		C57.436,19.586,57.129,19.401,56.76,19.183z M41.046,19.168c-0.296,0.18-0.529,0.324-0.767,0.463
		c-0.838,0.486-1.68,0.969-2.518,1.456c-0.167,0.098-0.338,0.193-0.487,0.314c-0.202,0.164-0.234,0.398-0.108,0.593
		c0.136,0.21,0.351,0.295,0.571,0.207c0.129-0.051,0.25-0.12,0.37-0.189c1.273-0.73,2.546-1.463,3.816-2.2
		c0.167-0.096,0.329-0.208,0.466-0.34c0.197-0.191,0.185-0.486-0.023-0.664c-0.146-0.125-0.313-0.228-0.48-0.324
		c-1.199-0.693-2.4-1.383-3.603-2.07c-0.167-0.097-0.338-0.191-0.517-0.266c-0.181-0.074-0.401,0.008-0.514,0.166
		c-0.129,0.181-0.12,0.46,0.05,0.607c0.145,0.126,0.313,0.229,0.479,0.326c0.862,0.501,1.729,0.995,2.591,1.495
		C40.583,18.865,40.785,19.002,41.046,19.168z"/>
</g>
</svg>
