<?xml version="1.0" encoding="utf-8"?>
<!-- Generator: Adobe Illustrator 16.0.0, SVG Export Plug-In . SVG Version: 6.00 Build 0)  -->
<!DOCTYPE svg PUBLIC "-//W3C//DTD SVG 1.1//EN" "http://www.w3.org/Graphics/SVG/1.1/DTD/svg11.dtd">
<svg version="1.1" id="Layer_1" xmlns="http://www.w3.org/2000/svg" xmlns:xlink="http://www.w3.org/1999/xlink" x="0px" y="0px"
	 width="100px" height="100px" viewBox="0 0 100 100" enable-background="new 0 0 100 100" xml:space="preserve">
<g>
	<path fill="#808080" d="M34.582,49.213c-0.014-0.038-0.051-0.089-0.051-0.141c-0.003-10.154-0.005-20.308-0.004-30.462
		c0-0.072,0.029-0.143,0.045-0.212c0.066-0.023,0.119-0.056,0.171-0.056c10.154-0.004,20.309-0.005,30.461-0.005
		c0.071,0,0.146,0.029,0.217,0.045c0.021,0.063,0.058,0.115,0.058,0.167c0.004,10.172,0.004,20.346,0.002,30.518
		c0,0.052-0.035,0.104-0.049,0.141c-0.027,0.024-0.039,0.039-0.056,0.046c-0.017,0.009-0.036,0.016-0.054,0.016
		c-10.153,0.005-20.308,0.01-30.461,0.014c-0.074,0-0.148-0.016-0.223-0.028C34.623,49.252,34.609,49.235,34.582,49.213z"/>
	<path fill="#808080" d="M34.584,50.785c0.057-0.02,0.108-0.053,0.16-0.053c10.155-0.004,20.308-0.006,30.462-0.006
		c0.071,0,0.146,0.03,0.216,0.047c0.021,0.063,0.057,0.115,0.057,0.168c0.004,10.173,0.004,20.345,0.002,30.519
		c0,0.053-0.035,0.104-0.058,0.16c-0.055,0.018-0.104,0.048-0.157,0.048c-10.173,0.002-20.346,0.002-30.52,0
		c-0.051,0-0.103-0.03-0.158-0.046c-0.021-0.058-0.057-0.106-0.057-0.16c-0.002-10.172-0.002-20.346,0.001-30.519
		C34.532,50.893,34.565,50.84,34.584,50.785z"/>
	<path fill="#808080" d="M33.038,49.265c-10.27,0-20.517,0-30.799,0c-0.022-0.117-0.053-0.221-0.061-0.327
		c-0.01-0.149-0.004-0.3-0.004-0.451c0-9.781,0-19.563,0.001-29.343c0-0.242,0.008-0.483,0.013-0.753
		c0.133-0.022,0.238-0.049,0.344-0.056c0.149-0.009,0.302-0.004,0.452-0.004c9.78,0,19.562,0,29.343,0.002
		c0.24,0,0.486-0.04,0.748,0.059c0.016,0.102,0.037,0.209,0.045,0.318c0.008,0.111,0.002,0.225,0.002,0.338
		c0,9.837,0,19.675,0,29.512c0,0.169,0.004,0.339-0.009,0.507C33.109,49.135,33.063,49.2,33.038,49.265z"/>
	<path fill="#808080" d="M97.764,81.643c-0.084,0.012-0.176,0.031-0.267,0.031c-10.174,0.001-20.347,0.001-30.545,0.001
		c-0.025-0.141-0.056-0.245-0.063-0.352c-0.009-0.148-0.002-0.302-0.002-0.451c0-9.78-0.001-19.562,0-29.343
		c0-0.24,0.01-0.482,0.016-0.752c0.14-0.021,0.244-0.047,0.351-0.053c0.149-0.009,0.302-0.004,0.451-0.004
		c9.78,0,19.563,0,29.344,0.002c0.24,0,0.481-0.024,0.722,0.036c0.022,0.073,0.057,0.125,0.057,0.177
		c0.002,10.176,0.002,20.351,0,30.527C97.825,81.516,97.79,81.564,97.764,81.643z"/>
</g>
</svg>
