<?xml version="1.0" encoding="utf-8"?>
<!-- Generator: Adobe Illustrator 16.0.0, SVG Export Plug-In . SVG Version: 6.00 Build 0)  -->
<!DOCTYPE svg PUBLIC "-//W3C//DTD SVG 1.1//EN" "http://www.w3.org/Graphics/SVG/1.1/DTD/svg11.dtd">
<svg version="1.1" id="Layer_1" xmlns="http://www.w3.org/2000/svg" xmlns:xlink="http://www.w3.org/1999/xlink" x="0px" y="0px"
	 width="100px" height="100px" viewBox="0 0 100 100" enable-background="new 0 0 100 100" xml:space="preserve">
<g>
	<path fill-rule="evenodd" clip-rule="evenodd" fill="#808080" d="M98.208,62.384c0-8.258,0-16.517-0.001-24.775
		c0-0.17-0.002-0.339-0.006-0.509c-0.021-1.017-0.792-2.138-2.02-2.438c-0.335-0.082-0.672-0.083-1.01-0.083
		c-15.046,0-30.094,0-45.14,0c-15.008,0-30.017,0-45.026,0c-0.207,0-0.416-0.007-0.622,0.002c-1.218,0.051-2.226,0.889-2.515,2.076
		c-0.073,0.298-0.079,0.596-0.079,0.898c0.001,8.296,0.001,16.593,0.001,24.889c0,0.132-0.003,0.265,0.002,0.396
		c0.062,1.283,0.989,2.32,2.255,2.536c0.263,0.046,0.525,0.048,0.789,0.048c30.112,0,60.224,0,90.337,0
		c0.149,0,0.301,0.004,0.451-0.006c1.666-0.098,2.625-1.463,2.582-2.693C98.203,62.61,98.208,62.498,98.208,62.384z M97.747,63.204
		c-0.148,0.814-0.922,1.742-2.126,1.792C95.414,65.003,95.206,65,94.999,65c-15.008,0-30.017,0-45.023,0c-14.971,0-29.94,0-44.91,0
		c-0.208,0-0.415,0.001-0.622-0.002c-1.352-0.03-2.229-1.162-2.224-2.192c0.001-0.168-0.002-0.338-0.002-0.508
		c0-8.201,0-16.402,0-24.604c0-0.169,0.002-0.339,0.003-0.509c0.009-1.157,1.019-2.167,2.173-2.176
		c0.168-0.002,0.338-0.004,0.508-0.004c30.072,0,60.145,0,90.215,0c0.133,0,0.266,0.008,0.396,0
		c0.985-0.056,2.229,0.726,2.296,2.241c0.005,0.113,0.003,0.227,0.003,0.34c0,8.276,0,16.553,0,24.83
		C97.811,62.681,97.796,62.94,97.747,63.204z"/>
	<g>
		<path fill="#808080" d="M52.718,37.226h-0.012c-0.004,0.058-0.017,0.113-0.033,0.165l-0.224,0.683h0.521l-0.224-0.677
			C52.732,37.354,52.724,37.297,52.718,37.226z"/>
		<path fill="#808080" d="M51.786,62.116c-0.064,0-0.121,0.025-0.164,0.076c-0.044,0.051-0.064,0.126-0.064,0.225
			c0,0.115,0.022,0.199,0.068,0.254c0.045,0.053,0.1,0.082,0.166,0.082c0.063,0,0.113-0.025,0.154-0.076
			c0.041-0.049,0.063-0.133,0.063-0.246c0-0.105-0.021-0.186-0.064-0.236C51.901,62.142,51.849,62.116,51.786,62.116z"/>
		<path fill="#808080" d="M53.021,62.116c-0.066,0-0.121,0.025-0.164,0.076s-0.064,0.126-0.064,0.225
			c0,0.115,0.023,0.199,0.068,0.254c0.045,0.053,0.1,0.082,0.165,0.082c0.062,0,0.112-0.025,0.155-0.076
			c0.04-0.049,0.061-0.133,0.061-0.246c0-0.105-0.021-0.186-0.063-0.236C53.136,62.142,53.083,62.116,53.021,62.116z"/>
		<polygon fill="#808080" points="58.861,62.388 59.242,62.388 59.05,61.867 		"/>
		<path fill="#808080" d="M50.423,62.543c-0.035,0.024-0.052,0.057-0.052,0.095c0,0.037,0.014,0.07,0.042,0.096
			c0.027,0.029,0.064,0.042,0.106,0.042c0.049,0,0.094-0.017,0.139-0.047c0.033-0.025,0.055-0.056,0.064-0.091
			c0.007-0.021,0.011-0.064,0.011-0.13v-0.054c-0.034,0.012-0.09,0.025-0.163,0.042C50.494,62.512,50.446,62.526,50.423,62.543z"/>
		<path fill="#808080" d="M56.1,62.109c-0.06,0-0.107,0.021-0.146,0.065c-0.039,0.042-0.056,0.1-0.056,0.173h0.399
			c-0.002-0.077-0.021-0.138-0.06-0.177C56.2,62.13,56.153,62.109,56.1,62.109z"/>
		<path fill="#808080" d="M54.017,62.543c-0.032,0.024-0.051,0.057-0.051,0.095c0,0.037,0.015,0.07,0.041,0.096
			c0.029,0.029,0.065,0.042,0.107,0.042c0.048,0,0.096-0.017,0.139-0.047c0.033-0.025,0.053-0.056,0.063-0.091
			c0.009-0.021,0.012-0.064,0.012-0.13v-0.054c-0.034,0.012-0.089,0.025-0.164,0.042C54.09,62.512,54.042,62.526,54.017,62.543z"/>
		<path fill="#808080" d="M36.007,61.732c-0.093-0.051-0.189-0.075-0.29-0.075s-0.197,0.024-0.29,0.075
			c-0.093,0.05-0.167,0.122-0.219,0.216s-0.08,0.193-0.08,0.297c0,0.102,0.026,0.198,0.079,0.291
			c0.052,0.094,0.124,0.167,0.217,0.219c0.093,0.051,0.19,0.078,0.292,0.078c0.101,0,0.199-0.027,0.292-0.078
			c0.093-0.052,0.165-0.125,0.217-0.219c0.053-0.093,0.078-0.189,0.078-0.291c0-0.104-0.026-0.203-0.079-0.297
			S36.1,61.782,36.007,61.732z M35.581,62.45c0.037,0.045,0.08,0.066,0.132,0.066c0.043,0,0.079-0.013,0.11-0.039
			c0.031-0.023,0.056-0.065,0.072-0.124l0.155,0.051c-0.024,0.081-0.065,0.142-0.121,0.185c-0.057,0.043-0.123,0.064-0.201,0.064
			c-0.108,0-0.198-0.035-0.266-0.107c-0.07-0.07-0.104-0.168-0.104-0.295c0-0.082,0.015-0.154,0.046-0.22
			c0.031-0.064,0.074-0.112,0.132-0.144c0.058-0.033,0.122-0.049,0.193-0.049c0.079,0,0.145,0.018,0.197,0.057
			c0.051,0.038,0.093,0.096,0.123,0.176l-0.155,0.037c-0.019-0.047-0.041-0.081-0.07-0.102c-0.028-0.021-0.062-0.031-0.101-0.031
			c-0.058,0-0.104,0.021-0.143,0.064c-0.036,0.045-0.055,0.113-0.055,0.205C35.526,62.339,35.545,62.406,35.581,62.45z"/>
		<path fill="#808080" d="M40.975,62.085c0.051,0,0.092-0.014,0.122-0.045c0.031-0.03,0.046-0.072,0.046-0.125
			c0-0.051-0.015-0.091-0.045-0.121c-0.031-0.031-0.071-0.047-0.12-0.047c-0.052,0-0.093,0.016-0.123,0.047
			c-0.031,0.031-0.046,0.072-0.046,0.121c0,0.054,0.015,0.096,0.045,0.125C40.883,62.071,40.925,62.085,40.975,62.085z"/>
		<path fill="#808080" d="M40.979,62.301c-0.066,0-0.115,0.022-0.146,0.067c-0.032,0.046-0.048,0.096-0.048,0.146
			c0,0.075,0.019,0.133,0.057,0.175c0.038,0.041,0.085,0.062,0.142,0.062c0.056,0,0.102-0.02,0.138-0.06s0.054-0.098,0.054-0.173
			c0-0.066-0.019-0.118-0.055-0.158C41.082,62.32,41.035,62.301,40.979,62.301z"/>
		<path fill="#808080" d="M63.519,62.109c-0.065,0-0.117,0.024-0.159,0.075s-0.063,0.126-0.063,0.229
			c0,0.106,0.021,0.186,0.063,0.235c0.042,0.052,0.094,0.076,0.154,0.076c0.065,0,0.122-0.026,0.167-0.078
			c0.045-0.05,0.066-0.127,0.066-0.229c0-0.103-0.021-0.182-0.064-0.232C63.639,62.134,63.585,62.109,63.519,62.109z"/>
		<path fill="#808080" d="M45.91,62.095c0.049-0.006,0.087-0.023,0.115-0.053c0.028-0.026,0.041-0.063,0.041-0.108
			c0-0.044-0.011-0.079-0.035-0.105c-0.024-0.026-0.06-0.043-0.107-0.049c-0.028-0.004-0.109-0.006-0.242-0.006H45.52v0.325h0.185
			C45.815,62.099,45.884,62.097,45.91,62.095z"/>
		<path fill="#808080" d="M45.999,62.352c-0.039-0.013-0.122-0.021-0.25-0.021H45.52v0.373h0.261c0.103,0,0.167-0.001,0.194-0.007
			c0.042-0.008,0.076-0.026,0.102-0.056c0.027-0.031,0.04-0.068,0.04-0.119c0-0.041-0.01-0.078-0.03-0.106
			C46.067,62.386,46.037,62.364,45.999,62.352z"/>
		<path fill="#808080" d="M42.769,62.109c-0.064,0-0.117,0.024-0.161,0.075c-0.042,0.051-0.064,0.126-0.064,0.228
			c0,0.104,0.017,0.184,0.05,0.233c0.046,0.072,0.108,0.107,0.185,0.107c0.061,0,0.111-0.025,0.152-0.076
			c0.042-0.051,0.063-0.131,0.063-0.24c0-0.115-0.021-0.199-0.063-0.25C42.888,62.134,42.834,62.109,42.769,62.109z"/>
		<path fill="#808080" d="M31.83,62.109c-0.064,0-0.118,0.024-0.159,0.075c-0.042,0.051-0.063,0.126-0.063,0.229
			c0,0.106,0.021,0.186,0.063,0.235c0.041,0.052,0.093,0.076,0.154,0.076c0.065,0,0.121-0.026,0.167-0.078
			c0.045-0.05,0.067-0.127,0.067-0.229c0-0.103-0.021-0.182-0.066-0.232C31.95,62.134,31.896,62.109,31.83,62.109z"/>
		<path fill="#808080" d="M38.808,61.79c-0.024-0.021-0.054-0.031-0.086-0.031s-0.061,0.01-0.087,0.031
			c-0.025,0.021-0.045,0.057-0.059,0.111c-0.018,0.068-0.027,0.186-0.027,0.35c0,0.165,0.009,0.277,0.024,0.339
			c0.017,0.062,0.038,0.102,0.063,0.122c0.025,0.021,0.054,0.031,0.086,0.031s0.062-0.012,0.087-0.031
			c0.025-0.021,0.045-0.059,0.059-0.112c0.019-0.067,0.027-0.184,0.027-0.349c0-0.164-0.008-0.276-0.024-0.338
			C38.854,61.851,38.833,61.812,38.808,61.79z"/>
		<path fill="#808080" d="M26.875,62.123c-0.069,0-0.129,0.026-0.177,0.08s-0.072,0.13-0.072,0.231s0.024,0.178,0.072,0.23
			c0.048,0.055,0.107,0.08,0.177,0.08c0.07,0,0.128-0.025,0.176-0.08c0.048-0.053,0.071-0.131,0.071-0.232
			c0-0.1-0.023-0.176-0.071-0.229S26.946,62.123,26.875,62.123z"/>
		<path fill="#808080" d="M73.337,62.109c-0.059,0-0.106,0.021-0.145,0.065c-0.039,0.042-0.058,0.1-0.058,0.173h0.401
			c-0.002-0.077-0.021-0.138-0.061-0.177C73.438,62.13,73.392,62.109,73.337,62.109z"/>
		<path fill="#808080" d="M74.499,62.109c-0.064,0-0.117,0.024-0.16,0.077c-0.043,0.049-0.063,0.124-0.063,0.226
			c0,0.108,0.015,0.188,0.044,0.235c0.042,0.07,0.104,0.105,0.182,0.105c0.062,0,0.115-0.027,0.159-0.08
			c0.042-0.053,0.063-0.13,0.063-0.234c0-0.117-0.021-0.201-0.063-0.252C74.618,62.134,74.564,62.109,74.499,62.109z"/>
		<path fill="#808080" d="M68.028,62.109c-0.061,0-0.107,0.021-0.146,0.065c-0.037,0.042-0.057,0.1-0.057,0.173h0.402
			c-0.002-0.077-0.021-0.138-0.061-0.177C68.13,62.13,68.081,62.109,68.028,62.109z"/>
		<path fill="#808080" d="M28.135,62.116c-0.065,0-0.12,0.025-0.163,0.076c-0.044,0.051-0.065,0.126-0.065,0.225
			c0,0.115,0.022,0.199,0.068,0.254c0.045,0.053,0.101,0.082,0.165,0.082c0.062,0,0.114-0.025,0.156-0.076
			c0.041-0.049,0.062-0.133,0.062-0.246c0-0.105-0.022-0.186-0.064-0.236C28.251,62.142,28.198,62.116,28.135,62.116z"/>
		<path fill="#808080" d="M70.282,62.109c-0.059,0-0.107,0.021-0.145,0.065c-0.039,0.042-0.059,0.1-0.057,0.173h0.4
			c-0.002-0.077-0.021-0.138-0.061-0.177C70.384,62.13,70.336,62.109,70.282,62.109z"/>
		<path fill="#808080" d="M96.872,38.827c0-0.245-0.005-0.492-0.047-0.732c-0.196-1.131-0.861-1.85-1.955-2.184
			c-0.35-0.106-0.707-0.094-1.064-0.094c-14.594,0-29.188,0-43.783,0c-14.556,0-29.113,0-43.668,0c-0.226,0-0.453-0.005-0.678,0.005
			c-1.149,0.054-2.123,0.834-2.45,1.939c-0.104,0.352-0.103,0.706-0.103,1.064c0,7.448,0,14.896,0,22.344
			c0,0.13,0,0.265,0.002,0.394c0.022,1.334,1.067,2.395,2.213,2.571c0.283,0.042,0.563,0.052,0.845,0.052c29.207,0,58.414,0,87.62,0
			c0.15,0,0.301,0.004,0.453-0.004c1.578-0.086,2.511-1.287,2.595-2.447c0.015-0.188,0.022-0.377,0.022-0.564
			C96.876,53.724,96.876,46.275,96.872,38.827z M25.924,62.854c-0.098,0.074-0.221,0.111-0.372,0.111
			c-0.187,0-0.339-0.063-0.458-0.191c-0.12-0.127-0.18-0.301-0.18-0.521c0-0.233,0.06-0.414,0.181-0.542
			c0.12-0.13,0.279-0.195,0.475-0.195c0.17,0,0.311,0.051,0.417,0.152c0.063,0.061,0.111,0.146,0.143,0.259l-0.279,0.065
			c-0.018-0.072-0.051-0.129-0.104-0.171s-0.116-0.063-0.192-0.063c-0.104,0-0.188,0.037-0.252,0.112
			c-0.065,0.073-0.098,0.194-0.098,0.362c0,0.177,0.033,0.303,0.097,0.377c0.063,0.075,0.146,0.113,0.247,0.113
			c0.076,0,0.14-0.022,0.194-0.072c0.055-0.046,0.093-0.123,0.116-0.225l0.275,0.086C26.092,62.667,26.023,62.779,25.924,62.854z
			 M27.25,62.813c-0.099,0.102-0.223,0.152-0.374,0.152c-0.093,0-0.182-0.021-0.266-0.064c-0.085-0.043-0.149-0.103-0.192-0.184
			c-0.045-0.082-0.066-0.182-0.066-0.299c0-0.088,0.021-0.174,0.066-0.258c0.043-0.082,0.106-0.147,0.187-0.191
			c0.08-0.043,0.17-0.064,0.27-0.064c0.154,0,0.279,0.049,0.377,0.148c0.098,0.1,0.148,0.227,0.148,0.379S27.35,62.712,27.25,62.813
			z M28.506,62.824c-0.083,0.095-0.183,0.142-0.301,0.142c-0.056,0-0.106-0.014-0.152-0.035c-0.046-0.021-0.094-0.061-0.143-0.113
			v0.51h-0.27v-1.399h0.25v0.147c0.033-0.049,0.077-0.09,0.132-0.123c0.055-0.032,0.116-0.047,0.184-0.047
			c0.118,0,0.219,0.045,0.3,0.137s0.123,0.223,0.123,0.387C28.63,62.598,28.589,62.73,28.506,62.824z M29.44,62.903l-0.064,0.177
			c-0.024,0.06-0.046,0.104-0.067,0.136s-0.046,0.057-0.073,0.076c-0.028,0.02-0.062,0.035-0.103,0.045
			c-0.041,0.012-0.086,0.017-0.137,0.017c-0.051,0-0.102-0.005-0.151-0.017l-0.023-0.209c0.041,0.008,0.079,0.012,0.113,0.012
			c0.062,0,0.108-0.018,0.139-0.056c0.03-0.036,0.053-0.083,0.068-0.14l-0.385-1.017h0.285l0.243,0.72l0.236-0.72h0.279
			L29.44,62.903z M30.572,62.188c-0.046-0.028-0.087-0.043-0.126-0.043c-0.038,0-0.069,0.01-0.095,0.031
			c-0.025,0.02-0.046,0.057-0.062,0.111c-0.015,0.055-0.022,0.168-0.022,0.34v0.314h-0.268v-1.015h0.249v0.144
			c0.043-0.068,0.082-0.113,0.115-0.134c0.035-0.022,0.073-0.032,0.116-0.032c0.061,0,0.12,0.016,0.177,0.049L30.572,62.188z
			 M31.079,62.942H30.81v-1.015h0.269V62.942z M31.079,61.79H30.81v-0.249h0.269V61.79z M32.322,62.837
			c0,0.121-0.01,0.211-0.029,0.27c-0.02,0.06-0.047,0.105-0.083,0.139c-0.036,0.033-0.083,0.061-0.143,0.079
			c-0.06,0.021-0.136,0.029-0.226,0.029c-0.172,0-0.294-0.029-0.365-0.088c-0.072-0.06-0.109-0.134-0.109-0.226
			c0-0.008,0.001-0.02,0.001-0.031l0.308,0.037c0.005,0.036,0.016,0.061,0.035,0.074c0.025,0.018,0.065,0.027,0.12,0.027
			c0.07,0,0.123-0.01,0.158-0.031c0.024-0.014,0.042-0.036,0.054-0.066c0.008-0.023,0.013-0.063,0.013-0.125v-0.147
			c-0.081,0.109-0.182,0.165-0.304,0.165c-0.136,0-0.245-0.058-0.324-0.174c-0.063-0.09-0.093-0.203-0.093-0.34
			c0-0.17,0.04-0.3,0.123-0.391c0.082-0.09,0.183-0.133,0.305-0.133c0.126,0,0.229,0.055,0.311,0.165v-0.143h0.251V62.837z
			 M33.55,62.942h-0.269v-0.536c0-0.107-0.005-0.175-0.016-0.203s-0.027-0.052-0.054-0.069c-0.025-0.015-0.058-0.024-0.096-0.024
			c-0.045,0-0.084,0.012-0.12,0.032c-0.035,0.022-0.06,0.055-0.077,0.098c-0.016,0.045-0.024,0.109-0.024,0.193v0.51h-0.268v-1.401
			h0.268v0.517c0.087-0.104,0.19-0.152,0.311-0.152c0.062,0,0.118,0.01,0.168,0.033c0.049,0.023,0.087,0.053,0.112,0.089
			c0.025,0.034,0.042,0.075,0.052,0.118c0.009,0.043,0.014,0.11,0.014,0.201V62.942z M34.136,62.966
			c-0.048,0-0.092-0.01-0.131-0.025c-0.039-0.016-0.067-0.037-0.085-0.063s-0.03-0.06-0.038-0.104
			c-0.006-0.031-0.009-0.094-0.009-0.188v-0.442H33.75v-0.214h0.123v-0.203l0.27-0.157v0.36h0.184v0.214h-0.184v0.408
			c0,0.083,0.002,0.131,0.006,0.146c0.003,0.013,0.011,0.024,0.023,0.034c0.012,0.008,0.027,0.012,0.046,0.012
			c0.024,0,0.06-0.008,0.107-0.025l0.023,0.209C34.287,62.95,34.215,62.966,34.136,62.966z M36.353,62.608
			c-0.065,0.115-0.155,0.207-0.271,0.271c-0.115,0.065-0.236,0.098-0.364,0.098s-0.249-0.032-0.365-0.098
			c-0.116-0.063-0.206-0.155-0.27-0.271c-0.065-0.115-0.098-0.236-0.098-0.363c0-0.129,0.034-0.252,0.1-0.368
			c0.065-0.116,0.156-0.206,0.271-0.271c0.116-0.063,0.236-0.094,0.361-0.094s0.246,0.031,0.361,0.094
			c0.115,0.064,0.206,0.154,0.272,0.271c0.065,0.116,0.098,0.239,0.098,0.368C36.449,62.372,36.417,62.493,36.353,62.608z
			 M38.047,62.691v0.251h-0.941c0.011-0.094,0.041-0.184,0.091-0.27c0.051-0.084,0.152-0.195,0.302-0.334
			c0.121-0.113,0.196-0.191,0.223-0.229c0.037-0.056,0.055-0.11,0.055-0.165c0-0.06-0.016-0.105-0.049-0.139
			c-0.032-0.032-0.076-0.047-0.132-0.047s-0.101,0.016-0.134,0.051c-0.033,0.033-0.052,0.09-0.057,0.168l-0.268-0.027
			c0.015-0.146,0.064-0.253,0.149-0.319c0.084-0.063,0.189-0.096,0.315-0.096c0.139,0,0.248,0.038,0.326,0.112
			c0.079,0.075,0.118,0.168,0.118,0.278c0,0.063-0.011,0.122-0.034,0.179c-0.022,0.059-0.058,0.118-0.107,0.182
			c-0.033,0.039-0.092,0.1-0.176,0.178c-0.084,0.076-0.138,0.128-0.161,0.154c-0.022,0.025-0.042,0.051-0.055,0.073H38.047z
			 M39.039,62.823c-0.075,0.096-0.181,0.143-0.317,0.143c-0.136,0-0.246-0.053-0.329-0.158c-0.084-0.104-0.126-0.291-0.126-0.559
			c0-0.264,0.046-0.455,0.138-0.57c0.076-0.096,0.181-0.144,0.317-0.144c0.136,0,0.242,0.049,0.318,0.146
			c0.091,0.115,0.137,0.305,0.137,0.57C39.177,62.515,39.131,62.706,39.039,62.823z M40.082,62.942h-0.268V61.93
			c-0.099,0.092-0.214,0.161-0.347,0.204V61.89c0.07-0.023,0.146-0.066,0.229-0.131c0.082-0.063,0.138-0.137,0.169-0.224h0.217
			V62.942z M41.316,62.845c-0.083,0.082-0.192,0.122-0.329,0.122c-0.127,0-0.232-0.032-0.318-0.101
			c-0.099-0.079-0.149-0.188-0.149-0.324c0-0.076,0.019-0.146,0.056-0.209c0.038-0.064,0.098-0.112,0.178-0.146
			c-0.068-0.03-0.119-0.07-0.151-0.122c-0.03-0.051-0.047-0.106-0.047-0.167c0-0.104,0.037-0.191,0.109-0.26
			c0.073-0.068,0.177-0.103,0.311-0.103c0.133,0,0.236,0.034,0.311,0.103c0.073,0.068,0.109,0.155,0.109,0.26
			c0,0.064-0.017,0.122-0.05,0.173s-0.082,0.09-0.142,0.116c0.077,0.03,0.136,0.076,0.176,0.135
			c0.041,0.061,0.061,0.131,0.061,0.209C41.44,62.659,41.398,62.765,41.316,62.845z M43.145,62.824
			c-0.083,0.095-0.182,0.142-0.3,0.142c-0.059,0-0.116-0.016-0.172-0.045c-0.057-0.028-0.105-0.072-0.146-0.128v0.149h-0.249v-1.401
			h0.268v0.503c0.083-0.094,0.181-0.139,0.295-0.139c0.123,0,0.226,0.043,0.307,0.133c0.08,0.089,0.121,0.219,0.121,0.385
			C43.269,62.598,43.228,62.73,43.145,62.824z M44.082,62.903l-0.064,0.177c-0.023,0.06-0.046,0.104-0.068,0.136
			c-0.021,0.031-0.046,0.057-0.073,0.076c-0.028,0.02-0.062,0.035-0.103,0.045c-0.041,0.012-0.085,0.017-0.136,0.017
			c-0.051,0-0.103-0.005-0.153-0.017l-0.023-0.209c0.042,0.008,0.08,0.012,0.113,0.012c0.063,0,0.109-0.018,0.139-0.056
			c0.03-0.036,0.052-0.083,0.068-0.14l-0.386-1.017h0.286l0.243,0.72l0.236-0.72h0.279L44.082,62.903z M46.365,62.722
			c-0.029,0.06-0.07,0.109-0.121,0.145c-0.051,0.035-0.114,0.059-0.19,0.066c-0.047,0.006-0.16,0.008-0.34,0.01h-0.476v-1.401h0.559
			c0.111,0,0.194,0.005,0.249,0.015c0.054,0.008,0.103,0.028,0.146,0.059c0.042,0.027,0.079,0.066,0.106,0.115
			c0.029,0.05,0.043,0.104,0.043,0.164c0,0.066-0.018,0.126-0.052,0.181c-0.036,0.055-0.085,0.097-0.145,0.124
			c0.085,0.024,0.15,0.066,0.197,0.127c0.046,0.059,0.069,0.129,0.069,0.211C46.41,62.6,46.395,62.661,46.365,62.722z
			 M47.753,62.942h-1.065v-1.401h1.038v0.237h-0.755v0.311h0.704v0.236h-0.704v0.379h0.783V62.942z M47.917,37.246
			c-0.025,0.125-0.045,0.208-0.06,0.25l-0.482,1.347h-0.331l-0.489-1.334c-0.011-0.031-0.031-0.121-0.062-0.263h-0.011
			c0.011,0.163,0.017,0.327,0.017,0.492v1.105h-0.375V36.89h0.605l0.42,1.18c0.036,0.099,0.06,0.189,0.072,0.276h0.009
			c0.025-0.107,0.052-0.2,0.081-0.278l0.422-1.178h0.589v1.954h-0.411v-1.186c0-0.109,0.005-0.247,0.016-0.412H47.917z
			 M49.146,62.278c0,0.166-0.008,0.287-0.022,0.354c-0.016,0.07-0.044,0.128-0.084,0.175c-0.042,0.049-0.096,0.087-0.165,0.115
			c-0.069,0.027-0.159,0.043-0.269,0.043c-0.134,0-0.235-0.016-0.305-0.047c-0.069-0.03-0.124-0.07-0.163-0.119
			c-0.04-0.049-0.066-0.101-0.08-0.156c-0.019-0.08-0.028-0.199-0.028-0.355v-0.747h0.283V62.3c0,0.119,0.004,0.198,0.011,0.234
			c0.012,0.056,0.041,0.104,0.086,0.137c0.046,0.035,0.108,0.053,0.187,0.053c0.081,0,0.141-0.016,0.183-0.049
			c0.04-0.033,0.065-0.073,0.072-0.121c0.009-0.048,0.014-0.127,0.014-0.237v-0.775h0.282V62.278z M49.978,62.567h-0.527V62.3h0.527
			V62.567z M49.497,38.877c-0.224,0-0.407-0.036-0.55-0.108v-0.417c0.158,0.13,0.336,0.195,0.536,0.195
			c0.113,0,0.199-0.02,0.256-0.058c0.057-0.04,0.085-0.09,0.085-0.151c0-0.054-0.022-0.104-0.067-0.15
			c-0.046-0.047-0.165-0.11-0.359-0.192c-0.306-0.129-0.458-0.318-0.458-0.564c0-0.183,0.068-0.323,0.207-0.423
			s0.321-0.151,0.548-0.151c0.191,0,0.352,0.025,0.481,0.075v0.391c-0.131-0.09-0.285-0.134-0.46-0.134
			c-0.103,0-0.185,0.019-0.246,0.055c-0.061,0.039-0.092,0.088-0.092,0.152c0,0.05,0.021,0.096,0.063,0.139
			c0.042,0.042,0.146,0.1,0.312,0.172c0.194,0.083,0.327,0.171,0.4,0.264c0.072,0.093,0.108,0.203,0.108,0.331
			c0,0.188-0.066,0.331-0.199,0.429C49.93,38.828,49.742,38.877,49.497,38.877z M50.788,62.942c-0.006-0.018-0.016-0.045-0.025-0.08
			c-0.006-0.016-0.008-0.025-0.01-0.031c-0.047,0.044-0.094,0.078-0.146,0.1s-0.107,0.035-0.167,0.035
			c-0.104,0-0.187-0.029-0.247-0.087c-0.06-0.056-0.09-0.128-0.09-0.216c0-0.056,0.015-0.107,0.041-0.151
			c0.027-0.046,0.066-0.079,0.115-0.104c0.05-0.024,0.121-0.046,0.214-0.063c0.125-0.024,0.211-0.046,0.261-0.065v-0.027
			c0-0.052-0.013-0.088-0.038-0.111c-0.025-0.021-0.074-0.032-0.146-0.032c-0.048,0-0.083,0.011-0.111,0.028
			c-0.026,0.019-0.048,0.053-0.064,0.1l-0.244-0.045c0.028-0.098,0.075-0.17,0.142-0.217c0.067-0.048,0.166-0.07,0.298-0.07
			c0.119,0,0.209,0.013,0.267,0.041c0.06,0.029,0.101,0.064,0.124,0.107c0.023,0.045,0.035,0.125,0.035,0.242l-0.002,0.313
			c0,0.089,0.004,0.154,0.012,0.197c0.009,0.043,0.025,0.089,0.049,0.137H50.788z M51.263,38.843h-0.414V36.89h0.414V38.843z
			 M52.157,62.824c-0.082,0.095-0.183,0.142-0.299,0.142c-0.059,0-0.107-0.014-0.154-0.035c-0.045-0.021-0.094-0.061-0.145-0.113
			v0.51h-0.269v-1.399h0.251v0.147c0.033-0.049,0.076-0.09,0.132-0.123c0.056-0.032,0.118-0.047,0.187-0.047
			c0.117,0,0.216,0.045,0.298,0.137c0.083,0.092,0.124,0.223,0.124,0.387C52.282,62.598,52.241,62.73,52.157,62.824z M53.392,62.824
			c-0.083,0.095-0.183,0.142-0.299,0.142c-0.058,0-0.109-0.014-0.153-0.035c-0.046-0.021-0.094-0.061-0.146-0.113v0.51h-0.268
			v-1.399h0.25v0.147c0.033-0.049,0.076-0.09,0.131-0.123c0.057-0.032,0.118-0.047,0.188-0.047c0.116,0,0.216,0.045,0.299,0.137
			c0.082,0.092,0.123,0.223,0.123,0.387C53.517,62.598,53.476,62.73,53.392,62.824z M53.215,38.843l-0.146-0.448h-0.709
			l-0.145,0.448h-0.452l0.715-1.954h0.49l0.701,1.954H53.215z M54.384,62.942c-0.007-0.018-0.016-0.045-0.026-0.08
			c-0.004-0.016-0.005-0.025-0.009-0.031c-0.047,0.044-0.094,0.078-0.148,0.1c-0.051,0.021-0.105,0.035-0.166,0.035
			c-0.104,0-0.186-0.029-0.247-0.087c-0.06-0.056-0.09-0.128-0.09-0.216c0-0.056,0.015-0.107,0.042-0.151
			c0.027-0.046,0.064-0.079,0.113-0.104c0.051-0.024,0.122-0.046,0.214-0.063c0.126-0.024,0.214-0.046,0.262-0.065v-0.027
			c0-0.052-0.014-0.088-0.038-0.111c-0.026-0.021-0.074-0.032-0.145-0.032c-0.047,0-0.084,0.011-0.111,0.028
			c-0.027,0.019-0.05,0.053-0.064,0.1l-0.244-0.045c0.027-0.098,0.073-0.17,0.143-0.217c0.064-0.048,0.164-0.07,0.296-0.07
			c0.12,0,0.21,0.013,0.269,0.041c0.057,0.029,0.1,0.064,0.124,0.107c0.022,0.045,0.034,0.125,0.034,0.242l-0.002,0.313
			c0,0.089,0.004,0.154,0.013,0.197s0.024,0.089,0.049,0.137H54.384z M55.458,62.188c-0.045-0.028-0.086-0.043-0.126-0.043
			c-0.036,0-0.069,0.01-0.096,0.031c-0.026,0.02-0.046,0.057-0.061,0.111c-0.017,0.055-0.024,0.168-0.024,0.34v0.314h-0.268v-1.015
			h0.249v0.144c0.043-0.068,0.081-0.113,0.116-0.134c0.033-0.022,0.073-0.032,0.116-0.032c0.061,0,0.12,0.016,0.175,0.049
			L55.458,62.188z M55.956,62.697c0.042,0.044,0.094,0.067,0.156,0.067c0.041,0,0.078-0.012,0.105-0.035
			c0.029-0.023,0.052-0.061,0.065-0.111l0.269,0.045c-0.035,0.1-0.089,0.174-0.164,0.226c-0.074,0.05-0.166,0.077-0.277,0.077
			c-0.178,0-0.308-0.059-0.393-0.173c-0.066-0.094-0.101-0.21-0.101-0.351c0-0.168,0.046-0.301,0.132-0.395
			c0.088-0.096,0.201-0.143,0.335-0.143c0.149,0,0.271,0.049,0.356,0.148c0.087,0.1,0.129,0.253,0.125,0.458h-0.673
			C55.895,62.59,55.915,62.653,55.956,62.697z M57.092,62.942h-0.269v-1.401h0.269V62.942z M57.667,62.866
			c0,0.076-0.005,0.139-0.02,0.184c-0.014,0.045-0.039,0.084-0.075,0.12c-0.039,0.036-0.085,0.063-0.142,0.084l-0.054-0.11
			c0.055-0.018,0.093-0.043,0.116-0.073c0.021-0.032,0.034-0.075,0.036-0.128h-0.13v-0.27h0.268V62.866z M59.454,62.942
			l-0.121-0.318h-0.56l-0.114,0.318h-0.301l0.545-1.401h0.3l0.56,1.401H59.454z M60.218,62.942H59.95v-1.401h0.268V62.942z
			 M60.802,62.942h-0.268v-1.401h0.268V62.942z M62.261,62.188c-0.046-0.028-0.086-0.043-0.127-0.043
			c-0.035,0-0.068,0.01-0.094,0.031c-0.027,0.02-0.047,0.057-0.062,0.111s-0.022,0.168-0.022,0.34v0.314h-0.269v-1.015h0.25v0.144
			c0.042-0.068,0.08-0.113,0.114-0.134c0.033-0.022,0.073-0.032,0.116-0.032c0.06,0,0.12,0.016,0.177,0.049L62.261,62.188z
			 M62.769,62.942h-0.271v-1.015h0.271V62.942z M62.769,61.79h-0.271v-0.249h0.271V61.79z M64.011,62.837
			c0,0.121-0.01,0.211-0.029,0.27c-0.02,0.06-0.047,0.105-0.082,0.139c-0.037,0.033-0.084,0.061-0.144,0.079
			c-0.061,0.021-0.136,0.029-0.226,0.029c-0.173,0-0.295-0.029-0.366-0.088c-0.071-0.06-0.108-0.134-0.108-0.226
			c0-0.008,0-0.02,0.002-0.031l0.306,0.037c0.006,0.036,0.017,0.061,0.036,0.074c0.025,0.018,0.064,0.027,0.119,0.027
			c0.07,0,0.122-0.01,0.158-0.031c0.024-0.014,0.041-0.036,0.055-0.066c0.007-0.023,0.011-0.063,0.011-0.125v-0.147
			c-0.081,0.109-0.182,0.165-0.302,0.165c-0.139,0-0.246-0.058-0.326-0.174c-0.061-0.09-0.092-0.203-0.092-0.34
			c0-0.17,0.04-0.3,0.121-0.391c0.083-0.09,0.184-0.133,0.306-0.133c0.126,0,0.229,0.055,0.312,0.165v-0.143h0.25V62.837z
			 M65.239,62.942h-0.27v-0.536c0-0.107-0.004-0.175-0.014-0.203s-0.029-0.052-0.054-0.069c-0.026-0.015-0.06-0.024-0.098-0.024
			c-0.044,0-0.085,0.012-0.12,0.032c-0.034,0.022-0.061,0.055-0.077,0.098c-0.015,0.045-0.022,0.109-0.022,0.193v0.51h-0.271v-1.401
			h0.271v0.517c0.086-0.104,0.189-0.152,0.31-0.152c0.062,0,0.116,0.01,0.167,0.033c0.049,0.023,0.086,0.053,0.112,0.089
			c0.024,0.034,0.042,0.075,0.052,0.118s0.014,0.11,0.014,0.201V62.942z M65.827,62.966c-0.051,0-0.094-0.01-0.133-0.025
			c-0.038-0.016-0.066-0.037-0.084-0.063c-0.02-0.026-0.031-0.06-0.039-0.104c-0.005-0.031-0.009-0.094-0.009-0.188v-0.442h-0.124
			v-0.214h0.124v-0.203l0.271-0.157v0.36h0.184v0.214h-0.184v0.408c0,0.083,0.002,0.131,0.005,0.146
			c0.002,0.013,0.012,0.024,0.023,0.034c0.013,0.008,0.026,0.012,0.046,0.012c0.025,0,0.061-0.008,0.107-0.025l0.022,0.209
			C65.974,62.95,65.905,62.966,65.827,62.966z M67.387,62.188c-0.046-0.028-0.087-0.043-0.126-0.043
			c-0.037,0-0.071,0.01-0.096,0.031c-0.026,0.02-0.047,0.057-0.062,0.111c-0.016,0.055-0.022,0.168-0.022,0.34v0.314h-0.269v-1.015
			h0.249v0.144c0.042-0.068,0.082-0.113,0.115-0.134c0.033-0.022,0.074-0.032,0.116-0.032c0.06,0,0.12,0.016,0.176,0.049
			L67.387,62.188z M67.886,62.697c0.041,0.044,0.094,0.067,0.155,0.067c0.042,0,0.077-0.012,0.105-0.035s0.051-0.061,0.065-0.111
			l0.268,0.045c-0.034,0.1-0.088,0.174-0.162,0.226c-0.075,0.05-0.168,0.077-0.279,0.077c-0.177,0-0.307-0.059-0.393-0.173
			c-0.065-0.094-0.1-0.21-0.1-0.351c0-0.168,0.045-0.301,0.132-0.395c0.088-0.096,0.2-0.143,0.334-0.143
			c0.149,0,0.271,0.049,0.356,0.148s0.129,0.253,0.127,0.458h-0.674C67.822,62.59,67.845,62.653,67.886,62.697z M69.488,62.864
			c-0.079,0.066-0.193,0.102-0.346,0.102c-0.138,0-0.247-0.029-0.328-0.085c-0.081-0.057-0.132-0.132-0.157-0.229l0.268-0.041
			c0.014,0.053,0.036,0.093,0.07,0.12c0.035,0.026,0.086,0.04,0.147,0.04c0.069,0,0.122-0.012,0.156-0.039
			c0.024-0.018,0.036-0.04,0.036-0.07c0-0.021-0.008-0.037-0.02-0.051c-0.013-0.013-0.043-0.024-0.088-0.035
			c-0.217-0.049-0.355-0.092-0.413-0.131c-0.081-0.055-0.12-0.132-0.12-0.229c0-0.088,0.034-0.161,0.104-0.222
			c0.07-0.06,0.178-0.088,0.322-0.088c0.141,0,0.244,0.021,0.311,0.066c0.067,0.046,0.113,0.113,0.139,0.201l-0.252,0.046
			c-0.011-0.038-0.032-0.069-0.063-0.09c-0.031-0.021-0.074-0.032-0.129-0.032c-0.07,0-0.122,0.01-0.152,0.03
			c-0.021,0.015-0.031,0.031-0.031,0.056c0,0.018,0.01,0.034,0.027,0.047c0.023,0.018,0.109,0.045,0.25,0.076
			c0.145,0.033,0.244,0.072,0.301,0.119c0.056,0.049,0.084,0.114,0.084,0.201C69.604,62.718,69.565,62.797,69.488,62.864z
			 M70.142,62.697c0.041,0.044,0.092,0.067,0.154,0.067c0.04,0,0.078-0.012,0.104-0.035c0.03-0.023,0.052-0.061,0.067-0.111
			l0.267,0.045c-0.034,0.1-0.089,0.174-0.163,0.226c-0.074,0.05-0.167,0.077-0.279,0.077c-0.176,0-0.307-0.059-0.391-0.173
			c-0.068-0.094-0.102-0.21-0.102-0.351c0-0.168,0.045-0.301,0.133-0.395c0.088-0.096,0.199-0.143,0.332-0.143
			c0.152,0,0.271,0.049,0.358,0.148c0.087,0.1,0.128,0.253,0.126,0.458h-0.674C70.077,62.59,70.099,62.653,70.142,62.697z
			 M71.569,62.188c-0.047-0.028-0.088-0.043-0.127-0.043c-0.036,0-0.068,0.01-0.096,0.031c-0.025,0.02-0.046,0.057-0.061,0.111
			c-0.016,0.055-0.022,0.168-0.022,0.34v0.314h-0.269v-1.015h0.248v0.144c0.043-0.068,0.082-0.113,0.116-0.134
			c0.034-0.022,0.073-0.032,0.118-0.032c0.058,0,0.118,0.016,0.174,0.049L71.569,62.188z M72.327,62.942h-0.242l-0.409-1.015h0.282
			l0.191,0.517l0.055,0.174c0.016-0.045,0.025-0.074,0.029-0.086c0.008-0.03,0.019-0.059,0.028-0.088l0.191-0.517h0.277
			L72.327,62.942z M73.196,62.697c0.039,0.044,0.092,0.067,0.154,0.067c0.043,0,0.076-0.012,0.106-0.035
			c0.028-0.023,0.049-0.061,0.063-0.111l0.269,0.045c-0.036,0.1-0.089,0.174-0.163,0.226c-0.074,0.05-0.167,0.077-0.279,0.077
			c-0.176,0-0.307-0.059-0.393-0.173c-0.064-0.094-0.1-0.21-0.1-0.351c0-0.168,0.045-0.301,0.133-0.395
			c0.088-0.096,0.199-0.143,0.333-0.143c0.151,0,0.271,0.049,0.358,0.148c0.086,0.1,0.129,0.253,0.124,0.458h-0.672
			C73.133,62.59,73.153,62.653,73.196,62.697z M74.991,62.942h-0.249v-0.149c-0.042,0.058-0.092,0.102-0.147,0.128
			c-0.057,0.029-0.113,0.045-0.17,0.045c-0.116,0-0.217-0.047-0.3-0.142c-0.083-0.094-0.124-0.225-0.124-0.394
			c0-0.172,0.039-0.304,0.121-0.393c0.082-0.09,0.184-0.133,0.307-0.133c0.113,0,0.211,0.045,0.295,0.139v-0.503h0.268V62.942z"/>
	</g>
</g>
</svg>
