<svg xmlns="http://www.w3.org/2000/svg" width="100" height="100"><g fill-rule="evenodd" clip-rule="evenodd"><path d="M34.5 33.5l-.5-1a4 4 0 0 1-.6-2.6c.1-1 .5-1.9 1-2.7.1-.4.4-.7.7-1l.7-.6c.4-.4.6-1 .6-1.5 0-.8.3-1.5.8-2a8 8 0 0 1 1.5-1.1l.8-.7a3 3 0 0 1 1.6-.9c.2 0 .4-.1.5-.3l.6-.4.5-.2c.6-.4.8-1 .6-1.6a12.1 12.1 0 0 1-.7-6.3l.6-2.7a5.8 5.8 0 0 1 1.9-3l.1.1.1.9v1c0 1.3.1 2.4.3 3.6a8.5 8.5 0 0 0 .8 3c.2.3.4.3.7 0l.3-.4.2-.4c.2-.5.6-1 1.2-1.2a4 4 0 0 0 1.6-1.3A6 6 0 0 1 52 8.6l.9-.5c.4-.2 1-.2 1.4 0 .4 0 .7.3.7.8v.9l-.2.5v.3c.4.4.6.8.7 1.4 0 .6.3 1 .8 1.4.2 0 .3.2.5.4L58 12c1-1.4 2-2.8 2.7-4.3l.8-1.3.1-.1h.1v.2l.2 2.4c0 1.8-.4 3.5-1 5.1l-1.1 2.7-1 1.7.1.5.8 1.1.2 1c0 .2.1.3.3.4.4 0 .7.2 1 .3.3 0 .5.2.8.3a6 6 0 0 1 3 2.6l2 3.8c.3.7.4 1.4.4 2.2a26.6 26.6 0 0 1-.7 4.6l-.4 1c0 .1-.1.2 0 .4.7.5 1.2 1.3 1.6 2.1.3.9.4 1.7.2 2.6l-.1.6a5 5 0 0 1-1 2.1l-.2.2c-.1.2-.2.4 0 .6.1.5 0 1-.1 1.5l-.2.5v.9a13 13 0 0 1-.1 4.8 6.6 6.6 0 0 1-1.7 3.5 5 5 0 0 0-1 1.5l-1.1 3-1 2.7v.4l.2-.1 2.4-2.7 2.8-3.3 5-6 1.3-1.5c.2-.3.5-.4.8-.2a14.4 14.4 0 0 1 4.8 3 25.1 25.1 0 0 1 3.5 6l.6 1.8c.6 1.8 1.1 3.6 1.4 5.4.4 1.9.4 3.7.3 5.5v.2h-.2l-.4-.4c-.2-.4-.5-.6-.9-.7-.7-.2-1.4-.2-2 0-1 .2-1.8.5-2.5 1-1.2.7-2.2 1.5-3.1 2.5l-.4.4-.4-.2a75.4 75.4 0 0 1-2.2-1.7c-.5-.3-1-.5-1.7-.5a4 4 0 0 0-1.6.2c-.7.2-1.4.5-2 1 0 .1 0 .2-.2.2v-.1a4.4 4.4 0 0 0-4-2.4 9.2 9.2 0 0 0-3 1c-.8.5-1.3 1.2-1.7 2l-1.6 4.7L54 87c-.1.5-.4 1-.6 1.4l-1.6 3.5-1.4 2.4a1 1 0 0 1-.4.4l-.8.4h-.7l-2-.7c-.4-.1-.7-.4-1-.7a9 9 0 0 1-.6-.8L43 90c-.6-1-1-2-1.2-3-.5-2-1.2-3.9-1.9-5.8l-1.2-3.7-.5-2v-.4c-.2-.3-.4-.5-.7-.6l-2.4-.6c-.7-.1-1.4-.2-2.2-.1a4 4 0 0 0-2.1.7 6 6 0 0 0-2.1 2.3l-.7 1.6-.1.3h-.1l-.6-.3c-.8-.2-1.5-.6-2.2-.7-.9-.2-1.7-.1-2.5 0a3 3 0 0 0-1.3.8c-.2 0-.3.2-.5.3h-.3v-.1c-.3-.5-.7-.8-1.2-1A3 3 0 0 0 18 77a2 2 0 0 0-1.4 0l-1 .3-.2.1h-.2v-2.9a47.6 47.6 0 0 1 1.8-9 30 30 0 0 1 1.6-3.6l.3-.6c.2-.7.6-1.4 1-2l2.3-3.2.4-.5h.5l.1.3a9 9 0 0 0 1.5 2l1.4 1.2 1.4 1.3 4.4 4.3a23.7 23.7 0 0 0 4 3c0 .1.1 0 .1 0v-.6l-.6-1.9-.9-4c-.3-2-.8-3.8-1.4-5.5-.3-1.2-.6-2.3-.7-3.5l-.2-.5a4.9 4.9 0 0 1-.6-3.7c0-.5.2-1 .3-1.4l.1-.8c0-.3 0-.6-.3-.9l-.2-.2a2.8 2.8 0 0 1-1.2-2.5c0-.8.2-1.5.5-2.2.2-.6.3-1.2.2-1.8v-.7c0-.4.1-.9.4-1.3.6-1 1.4-2 2.6-2.5l.3-.2v-.1z"/><path fill="#A2E6D7" d="M54 11.2c.1 0 .2-.3.3-.2.2 0 .4.2.5.4l.2.5v.6c0 .4.2.7.5.9l.6.6c.2.2.2.3 0 .5-.3.5-.6 1-1.1 1.2-.4.3-.5.7-.5 1.1 0 .6 0 1.2.3 1.7s.6 1 1 1.3c.6.5 1.2.5 1.8.4.3 0 .4-.2.5-.4.4-.7.4-.6.8-.2.3.3.5.8.5 1.2 0 .4 0 .8-.2 1.2l-.1.4c0 .1.1.1.1 0 .1 0 .2 0 .3-.2l.2-.2c.1-.2.3-.2.4-.2l2 .7c1.3.7 2.3 1.8 3 3.2a86.7 86.7 0 0 0 1.8 4v1.1c0 1-.1 2.1-.3 3.1 0 .7-.3 1.3-.6 1.9l-1 1.8-.8.7-1 .7c0 .1 0 .2.1.1.6 0 1-.4 1.5-.8a4 4 0 0 0 1-1.2c.2-.2.2-.2.4 0l.5.5c.5.6.8 1.4 1 2.2V41c-.2 1.1-.6 2-1.3 3l-1 .7-.7.2c0 .2 0 .2.2.2h.8c.7-.3.6-.3.6.4 0 .9-.4 1.6-1 2.3a7 7 0 0 1-2 1.3l-.5.3a2 2 0 0 0-1 1.4c0 1-1 1.8-2.3 1.5-.2 0-.3-.2-.5-.3-.2-.2-.4-.1-.5.2v.2l-.2 2.9c-.2 1.6-.2 3.3-.3 5l-.2 3.2v.5c-.3.6-.8 1-1.4.9a1 1 0 0 1-.8-.8l-.2-1.2v-3.4a87.1 87.1 0 0 0-.2-6.2s0-.1-.2 0c-.2 0-.4 0-.5.2l-.4.4-1 .9a5.3 5.3 0 0 1-5.4.9l-.7-.5c-.4-.4-.4-.4-.2-.8l.1-.4c-.2 0-.3.2-.5.3a2 2 0 0 1-.9.5h-.2c-1 0-1.9-.3-2.5-1l-.3-.5c0-.1 0-.1-.2 0l-.2.4-.1.8c-.1 3-.2 6-.1 9.2v2.4c0 .5 0 1-.2 1.4 0 .2-.2.4-.5.6a1 1 0 0 1-1-.1c-.4-.3-.7-.8-.8-1.3-.2-.6-.3-1.3-.3-2l-.2-2.5-.2-4.6-.2-3.4-.1-3.3c0-.3 0-.3-.4-.3h-.4a2 2 0 0 1-1.2-.8l-.7-1.3-.3-.7c-.2-.4-.5-.6-.8-.8l-1-.5a2 2 0 0 1-1-1c.2-.1.3 0 .4 0l1.2.2h.2v-.2h-.2l-1-.5c-.6-.1-1-.4-1.4-.8-.6-.6-.9-1.4-.8-2.2a51.2 51.2 0 0 0 .7-4c-.1-.6 0-1.1.3-1.7.3-.6.7-1.1 1.2-1.5a8 8 0 0 1 1.1-.8c.4-.2.8-.2 1.1.1l.4.4.7.2c0-.2-.2-.4-.4-.5l-.4-.3a4.6 4.6 0 0 1-1.7-3.6c0-.6 0-1.2.2-1.8.3-.8.7-1.6 1.4-2.2l1-.9.7 1v-.3l-.3-1c-.3-.7-.3-1.4.1-2 .3-.6.7-1.1 1.2-1.4l.7-.5c.3-.2.7-.4 1-.8.2-.3.6-.4 1-.5h.2v.3l.2.1.1-.2a2 2 0 0 1 1-1l1.1-.8c.2 0 .2.1.3.2.2.3.4.4.8.4 1.4 0 2.6-1 3-2.4 0-.3 0-.6-.2-.9l-.6-1.2.1-.3a2 2 0 0 1 1-.5l.3-.1-.1-.1c-.4-.3-.3-.4-.1-.7.1-.3.4-.6.7-.8.8-.4 1.4-1 2-1.7l.7-.7a4 4 0 0 1 2.2-1.2c.4 0 .6.2.8.5 0 .5 0 .9-.2 1.2l-.4.8-.1.1v.2h.2z"/><path fill="#FFEF80" d="M63 57.7l-1 2.8a3086.7 3086.7 0 0 1-2.2 6.2c-.2 0-.3-.2-.4-.4l-.5-.7h-.2l.8 1.3.3.5-1.5 2.4c-.2.3-.3.7-.7.9l-.7.9c-.2 0-.2-.2-.3-.3l-1-1.7-1.4-2.2-1-1.6c-.2 0-.3-.2-.4-.4v-.1.2l.2.4c0 .3.2.6.4.8l1 1.8c.8 1 1.4 2 2 3.1.2.2.2.3 0 .5l-.1.2c0 .3-.3.5-.5.7.3-.2.3-.5.6-.5l.3-.2 1 1.6c.1.1.2.2.1.4l-1 3.2-.1.1c-.4-.1-.6-.5-1-.7v.2l.5.6c.3.3.3.7.2 1l-1 2.8-1.4 4c-.4 1.3-1 2.5-1.6 3.7l-1 2c0 .1-.1.2-.3.2h-.5s-.2-.3-.3 0l.6.2c.1.1.2.1.1.4 0 .2 0 .4-.2.6l-.5 1-.4.5-1 .6h-.2l-.9-.4-1.2-.6c-.7-.3-1.1-.9-1.5-1.5v-.4c.6-.5 1.2-.8 2-.9h1l.2-.1-.3-.2h-1.3l-1.5.7-.5.2-.8-1.2v-.2l.8-1.2c.3-.2.3-.6.7-.6a30.4 30.4 0 0 1 .4.4l.1.1.2.2v.2h.1L46 89l-.2-.2v-.3l-.1-.1c-.2-.4-.2-.7 0-1 .8-.8 1.4-1.6 2-2.4.4-.5.8-.9 1-1.4l.3.1 2 2.2v.4l-2.3 3.2-.3.4h.3l.2-.3 1.8-2.4.6-.8.6.4s0 .1 0 0l-.3-.6V86l.7-1.1c0-.3.2-.5.3-.7l.3-.4c.1 0 0 0 0 0 .1-.1 0-.1 0 0l-.3.4-.4.5-1 1.2c0-.1 0-.2-.2-.3l-1.7-2-.2-.2v-.2l.1-.1 2.2-2.7.2-.2.7.7.6.7c.2 0 .2.2.3.4l-.2-.6-.7-1-.3-.4v-.3l.5-.8.2-.5.3-.3V78c0 .2-.2.3-.3.4 0 .1-.1.3-.3.3l-.8 1a66 66 0 0 1-3-4.2 74 74 0 0 1 2.8-3.7c.2 0 .2.1.3.2l1.2 1.5.3.3v.1c.3.1.4.3.5.5l-.3-.6v-.2l-1.3-1.7c-.4-.5-.4-.5 0-1l.6-1c0-.3.3-.5.5-.8l-.6.7-.9 1a1133.5 1133.5 0 0 1-2-2l-.5-.8c-.2-.2-.2-.2 0-.4l.6-1 .4-.7a30 30 0 0 0 2.1-2.9c.3-.3.4-.7.8-1l.8-1 .3-.4.3-.2c.2 0 .1.2.1.4a86.6 86.6 0 0 1 .4 3.4v.3c.3 1 1.5 1.2 2.3.8.4-.3.7-.7.8-1.2l.2-.8v-2.6c.1-.2 0-.4.2-.6l.1.1.3.3c.3.6.8 1.1 1.3 1.6.2 0 .3.2.3.3a.7.7 0 0 1-.2-.4l-.4-.7-.3-.4c.5-.9 1.2-1.7 1.9-2.5l.1-.1c.1-.2.3-.4.6-.5l.6-.2.1.1z"/><path fill="#A2E6D7" d="M75 71.1v-.5c.2-.4 0-.7.2-1v-1.7l-.4-3.2-.2-2.5a38.8 38.8 0 0 0-1.4-6.2l-.5-1s0-.2-.2-.2c0-.1-.1-.1-.2 0l-.1.1v.3l.5 1c.3.4.3.8.2 1.2l-.3 1.5-.5 2.4L71 65l-1.6 3.8-.2.4H69V69l1.2-5.1a24.9 24.9 0 0 0 .5-3.9l-.1-3.4v-.3c-.1-.2-.2-.3-.4-.2-.1 0-.2 0-.2.2l.1 1c.1.5 0 1-.4 1.3l-2.4 3.1A635.5 635.5 0 0 1 59 72.1l.1-.5a65.6 65.6 0 0 1 2.4-6.9l.6-.7 3.7-4.3.3-.4c2-2 3.7-4.3 5.5-6.4l1.9-2.2c.2-.2.4-.3.7-.2h.2c1.1.5 2.1 1 3 1.7.8.6 1.4 1.2 1.9 2l1.5 2.3a9 9 0 0 1 1 2.4l.4 1.1c.7 2 1.3 4 1.7 6l.2 1.3c0 .2.1.5-.1.7l-.2-.3c-.2-1-.6-2-1-2.8a24.6 24.6 0 0 0-5.7-8.8 2 2 0 0 1-.8-1.4c0-.2 0-.4-.3-.5h-.2v.2l.1 1.1.3 2.2v3.6a56.6 56.6 0 0 0-.1 4l-.6 4.7-.2.8-.1.2v.1H75zm-59.2 2.7a30.2 30.2 0 0 1 4.6-14l2.1-3.1.3-.3.7.7c.2.5.6 1 1 1.3l6 5.7c1.5 1.4 3 2.7 4.7 4l1 .6.4.7 1.2 4.2v.1h-.3a32.1 32.1 0 0 1-4-3.7L30 66.8l-3.4-3a5 5 0 0 1-1-1.1l-.2-.4H25c-.1 0-.2.1-.1.3l.4.7c.3.3.3.6.3 1v3c.1 2 .3 3.9.6 5.8l.5 2.4c0 .1.2.3 0 .4-.2 0-.2-.2-.2-.3a38 38 0 0 1-1.8-5.4l-.3-1.2-.9-4v-1.8l.3-1.6v-.1l-.3.2-.1.4a80.4 80.4 0 0 0-3 13.2A45.6 45.6 0 0 1 22 61.7l.4-1.3c0-.1-.1 0-.2 0-.2 0-.3.2-.4.4l-.4 1.5-.3.6c-.3.3-.5.7-.6 1l-1 1.9-1.5 2.7c-.5.9-.8 1.9-1.1 2.8l-1 2.8c-.2 0 0-.2 0-.3z"/><path fill="#FE605F" d="M78.2 62.1v-2c-.1-.8-.4-1.5-.7-2.1l-.5-1.1c.3 0 .4.2.5.3l.4.4c1.6 1.9 3 3.9 4 6 1 2.3 1.7 4.6 2.1 7h-.2a4 4 0 0 0-3-.2c-1.4.4-2.8 1-4 2l-.7.7-.5.5c-.2.1-.3 0-.3-.1v-.7l1-4.9.2-2.2.1-1.8.1-1.7v-4.1l.1-.4h.2c.5.8.8 1.7.9 2.5 0 .7 0 1.3.2 2V62zm-50.1 7.1c0-.4-.3-.9-.5-1.3l-1-2.8-.1-.4.1-.1a69.9 69.9 0 0 1 7.8 7l2 1.9.6.4v.2h-.1l-.6-.2a8 8 0 0 0-3.1-.4c-.8 0-1.6.2-2.3.7-1.2.7-2 1.6-2.6 2.8l-.2.4h-.2L27 75l-.4-2v-.6c0-.3 0-.7-.2-1V71l-.2-2c-.1-1-.2-2.2 0-3.3 0-.1 0-.1 0 0l.2.2.9 2 .6 1.5c.3.1.3.4.4.7-.1-.3-.3-.6-.3-1z"/><path fill="#FFEF80" d="M54.7 54.2l.1.6v4.7c0 .2 0 .3-.3.4a14 14 0 0 1-3.8.9h-1.8l-2.3-.4-2-.5-1.8-.7h-.2a.5.5 0 0 1-.3-.6v-1.2l.2-2.7v-.1s.1-.1.1 0h.2c.7.6 1.5.8 2.5.8h.4c.3-.2.6 0 .8.2a3 3 0 0 0 2.1 1 6 6 0 0 0 1.8 0 9 9 0 0 0 1.3-.3 3 3 0 0 0 1-.6l1.6-1.2.4-.3zm-17.5 4.9l-.2.2h-.2l-.2-.4a27.6 27.6 0 0 0-2.6-3c-.2-.3-.4-.6-.4-1l-.3-1-.1-.2v-.2h.2a21 21 0 0 0 4 4l.3.3c.3.2.5.5.5.9l.3 2.9v1.9l.2 3c.1.7.4 1.4 1 2 .3.2.7.3 1 .3.7 0 1.1-.3 1.4-.8.2-.5.4-1 .4-1.5v-.8c-.2-1.2-.2-2.5-.2-3.7v-.3c0-.6.1-1 .5-1.5l.2-.3.2.1 2.9 4.3v.2l-.5.8-2 2.7h-.2l-.1.1-.3-.2-.3-.2h-.1v.2l.1.2.4.4c-.2.4-2 2.8-2.3 3h-.1a35 35 0 0 1-1.8-2.6l-2.7-4-.4-.8-.3-1c-.1-.3-.1-.5 0-.8l1.1-1.9.2-.3h.3l.4.3.1.2v.1l-.1-.3-.2-.4c-.1-.3-.2-.5 0-.8 0 0 0-.1-.1 0z"/><path fill="#FE605F" d="M69.6 59.8l-.3 1-.1.4-.1.2-.1.2-.1.2v.1l-.1.1v.1c0 .3-.1.5-.3.7l-.4.7-.2.3-.2.3.2-.3.2-.3.4-.7.4-.5V62h.1v-.2h.1v-.2h.1v-.2c.4-.5.6-1.2.9-1.8v1.7c-.2 1.7-.6 3.3-1 5l-.6 3-1.2 3.3-.3-.1-.7-.7-.8-.5c-.5-.4-1.1-.6-1.8-.6-1 0-2 .1-2.8.5l-.6.2v-.2l.2-.2 3.2-4.2 5.6-7.1.2-.2c.2 0 .2 0 .1.2zm3.6 1.8l.2-.6.1-.6c0-.2 0-.5.2-.7l.2 1.4.5 3.6.2 3.1v5.8h-.2l-.4-.3a4 4 0 0 0-1.6-1 4 4 0 0 0-3.1-.3l-.9.3s-.2.2-.3 0v-.1l.6-1.3 1.9-3.5.7-1.9a5 5 0 0 0 .6-1.7l.8-3 .3-1v-.2h.2v.3l-.1 1.3v.6l.1-.2z"/><path fill="#FFEF80" d="M60 55.8l1.6-.6 1.3-.8c.7-.4 1.3-.9 1.8-1.5l1-1.1.2-.2h.1v.6l-.5 1.6c-.4.8-.8 1.5-1.4 2.2l-1 .9-1.4.6-2 .9-1 .3s-.1 0 0-.1c0-1.6 0-3.1.2-4.7v-.8c.1-.2.2-.2.4-.2h.5c.6.1 1.2 0 1.7-.4s.8-.8.9-1.4v-.4c.2-.4.4-.6.7-.8 1-.4 1.7-1 2.5-1.7h.3l.2.6v2l-.3.3-1.4 1.6c-.8.9-1.7 1.6-2.8 2l-1.9 1c0 .2.1 0 .2 0zM43.3 76c.3-.1.3-.1.4 0l.8 1 1.1 2v.3l-.3.3-2.2 3-.3.3-.2-.2-1.6-2.6-.1-.2c0-.2 0-.4.2-.5 0-.1-.1 0-.2 0h-.4l-1-1.6-.2-.5-.4-1.7c-.1-.4 0-.7.1-1l1.7-2.2c.2 0 .2 0 .3.2l2.1 2.7c.2.2.2.4.1.6v.1h.1z"/><path fill="#FE605F" d="M23 69.4V68c0-.5 0-1.1.2-1.7v-.1l.1-.1h.1v.4l1 4 .7 2.3.3 1 .8 2 .9 1.7.2.5H27l-1-.3c-1-.3-2-.5-3-.3-.5 0-1 .2-1.4.4l-.3.2c-.2 0-.3 0-.3-.2v-1.4a52.2 52.2 0 0 1 1.6-9v-.2c.2 0 .2.1.2.2v2.8c.2.4 0 .8.1 1.2v-2z"/><path fill="#FFEF80" d="M46.7 63.7l-.3.3c-.6-.6-2-2.7-2.5-3.7l.5.1 2 .5c.7 0 1.4.2 2.1.4h1c.5.1.8.2 1 .6 0 0 .1.2.3.2l-.2-.6.1-.1.5-.1 2.3-.5h.1l-.2.6-.3.5c-.1.4-.4.7-.7 1.1a44.6 44.6 0 0 1-2.6 3.5l-.8.9c-.2 0-.2-.1-.2-.2l-2-2.7v-.8h-.1zM37 53.8l-1.4-1a13.2 13.2 0 0 1-3.1-4.2c-.3-.6-.3-1.2 0-1.9.6.3 1.2.4 1.8.8l.8 1 .5 1.2.6.8c.3.3.8.6 1.3.5h.2l.1.2v.5a63 63 0 0 1 0 5.4 14.9 14.9 0 0 1-5.4-6.3l-.3-1.2V49c.2 0 .2.2.2.2l.7 1.1c.3.6.7 1.2 1.3 1.7l1.3 1.3c.3.3.7.5 1.2.6l.2-.1z"/><path fill="#FE605F" d="M20.7 65.7c0 .6-.2 1.1-.3 1.7l-.3 4.2v3c0 1 0 2 .2 3v.2H20l-.9-.6c-.9-.6-1.8-.8-2.9-.5-.1 0-.2 0-.2-.2v-.6l1-3.8V72c.4-1.2.8-2.3 1.4-3.3l.8-1.4c.2 0 0 .2 0 .3v.3l-.1.9-.2.6v.2l-.1.4c0 .1 0 0 0 0v-.2l.1-.2.2-.7c0-.2 0-.5.3-.7l.3-.8c.2-.7.5-1.4.9-2 .3 0 .1.1.1.3z"/><path fill="#FFEF80" d="M58 16.3c.2.5.7.7 1 1l-.4.8c-.3.4-.6.5-1 .3-.3 0-.5-.3-.7-.4h-.1c.1.4.4.5.6.6l.4.3c.2 0 .3.1.1.3l-.4.5c-.1.1-.3.2-.4.1a2 2 0 0 1-.9-.4 4 4 0 0 1-1.2-2.3c0-.4.2-.8.5-1.2l.2-.2c.3-.3.6-.5.8-.9a42.4 42.4 0 0 0 4.8-6.9 7 7 0 0 1 0 2.3c0 .2 0 .2-.2.2h-.3l.2.3.1.1.1.2a54 54 0 0 1-.5 1.4l-.3-.2c-.2 0-.3-.2-.4-.3 0 .2 0 .4.2.5l.5.4s.1.1 0 .2a101.9 101.9 0 0 0-.8 1.8l-.5-.2-.3-.2-.2-.2v.3c.2.3.5.4.8.6.2.1.3.2.2.4l-.5 1.2-.3.1a1 1 0 0 1-.5-.2l-.4-.4-.2.1zM45.9 79.5l.2.3 2.2 2.8c.5.6.5.8 0 1.3L46 87l-.5.5h-.1c-.8-1.2-1.6-2.2-2.1-3.4l-.2-.4a.7.7 0 0 1 .1-.7l2.4-3.2.3-.2zm-.5-62.7l-.3.2-.5.2c-.5.2-.6.1-.8-.4v-.6l.6-.1c.2 0 .4-.2.5-.3l.2-.2c-.1.1-.3 0-.4 0-.3.2-.6.2-.9.2-.2 0-.3 0-.3-.2a104.3 104.3 0 0 1-.2-1.6l.8-.1h.1c0-.2.4 0 .3-.3a255 255 0 0 1-1.5-.3v-1.8c0-.2 0-.2.3-.2h.6c.1 0 .2 0 .3-.2l-.7-.1c-.3 0-.4-.2-.3-.5l.2-1.5s.1-.1.2 0h.7l-.5-.4-.2-.3c.2-.8.5-1.5 1-2.2.2 0 .2.2.2.2 0 1.2 0 2.5.2 3.7 0 1.4.5 2.9 1.1 4.2a19.2 19.2 0 0 0 1 1.8c.1.2.1.3 0 .4l-.4 1c-.5.9-1.2 1-2.1 1-.2 0-.3 0-.4-.2v-.3c0-.2 0-.2.2-.3.3 0 .6-.2.9-.4l.3-.3.1-.1v-.1l-.3.1zm3 58.5l-.5-.6a8 8 0 0 1-1.7-2.4v-.5l1.2-1.7 1.2-1.7.3-.3.1.1 2.3 3c.2.1.2.1 0 .3l-2.7 3.7h-.2zM49 83l-.3-.4-2.3-3-.1-.2a.4.4 0 0 1 0-.5l.1-.2c.6-1 1.3-1.8 2-2.7.2 0 .2.1.3.2l2.6 3.5v.1c.2.1.2.3 0 .4l-2.1 2.7-.1.1zm-3.2-11.3l-2.1-3c-.2-.2-.2-.2 0-.4a1007.7 1007.7 0 0 1 2.9-3.5l.5.6c.6.7 1 1.4 1.5 2.2v.4c-1 1.2-1.8 2.5-2.7 3.7zm-2.1 3.4s-.1.2-.2 0h-.1L41 72l2.3-3.1.2.2 1.9 2.6v.1c.2.2.2.4 0 .7l-.5.8-.2.3a3 3 0 0 1-1 1.5z"/><path fill="#FFEF80" d="M44.9 73.8l.7-1 .3-.3.6 1.1.8 1 1 1-2.2 3-.2.1-.1-.2-1.8-2.8-.2-.4c.2-.6.6-1 1-1.5zM38 68.4l.4.4 2 2.8v.2c.1.1.1.3 0 .4l-1.7 2.3-.2-.2-1-3.5-.2-.6c0-.4 0-.8.3-1.1l.4-.7zm5.7 21.3c-.2 0-.2-.1-.3-.2l-.7-1.4-.8-3 .1-.7.6-.7.1.1c.4 1 .9 1.7 1.4 2.5l.9 1.3v.5l-1.3 1.6z"/><path fill="#FEEE80" d="M34.4 57c.3.1.5.3.6.5l1.6 2v.4l-1 1.9-.2.1-.4-1.5-.7-2.8v-.3c0-.1-.1-.3.1-.3z"/><path fill="#F5EB95" d="M58.4 70l.7-1s0-.2.2-.2c0 .8-1 4-1.4 4.8l-.9-1.4v-.3l.4-.5.3-.5c.2-.4.3-.7.7-1z"/><path fill="#FDED7F" d="M41.7 84.2l-.2-.2a771.4 771.4 0 0 1-1.1-3.3l.1-.4h.2v.1l1.8 2.7v.3l-.8.8zm17.8-23.5l-.9-1.3.3-.2 2-.9h.4c.2 0 0 .2 0 .3a46.2 46.2 0 0 1-1.8 2z"/><path fill="#FBEB7E" d="M36.2 65.6l.2.2 1.4 2.1v.5l-.6.6H37l-.1-.7-.7-2.4v-.3z"/><path fill="#121109" d="M49.8 66.5c0-.2 0-.2.2-.3l2.3-3.1V63l.2.1-.2.4-2.4 3.2-.1-.2z"/><path fill="#16150B" d="M59.5 60.7l.2-.1a403 403 0 0 1 1.6-2.4l.3.2-.7 1-1.2 1.5-.2-.2z"/><path fill="#211E11" d="M44.9 73.8l-1 1.5-.2-.2 1-1.5s0 .2.2.2z"/><path fill="#1A0A0A" d="M22.9 71.5c0-.4-.2-.9-.1-1.3.1-.1 0-.3 0-.4 0-.2 0-.3.2-.4a26.9 26.9 0 0 1-.1 2.1z"/><path fill="#242112" d="M52.5 63.1l-.1-.1.7-1.1.1.1-.7 1.1z"/><path fill="#252214" d="M58.4 70a4 4 0 0 1-.7.9v-.2l.6-1v.3z"/><path fill="#371616" d="M28.1 69.2l.4 1.1v.1h-.1l-.4-1 .1-.2z"/><path fill="#EADC76" d="M42.3 60.5v-.7c0-.1 0-.2.2-.1l.1.1c0 .2 0 .4-.3.7z"/><path fill="#262313" d="M53.4 69a2 2 0 0 1-.6 1l-.1-.2c.1-.4.4-.6.6-.9l.1.2z"/><path fill="#D5C86B" d="M40 79.3l.4.5-.1.2H40l-.2-.7z"/><path fill="#252213" d="M53.5 73.8l.6.7-.2.1-.5-.7.1-.1z"/><path fill="#2A1111" d="M19.4 68.2c0 .3-.2.5-.3.7 0 0-.1 0 0-.1l.1-1c0 .2 0 .3.2.4z"/><path fill="#2A2615" d="M52.8 84.3a2 2 0 0 1-.4.6l-.1-.2c0-.2.2-.4.4-.6l.1.2z"/><path fill="#90CABD" d="M84 68v-.7c.2.2.1.5.2.8 0 .2.1.3-.1.4l-.2-.5z"/><path fill="#282313" d="M55.7 73l.6-.7.1.2-.6.6h-.1z"/><path fill="#1D0B0B" d="M68.9 62.2c0 .3-.2.5-.3.7-.1 0-.2 0-.2-.2l.4-.6v.1z"/><path fill="#FFEF80" d="M45.4 88.3c-.2 0-.2.2-.4.3l-.3.3c.1-.3.3-.5.5-.6h.2z"/><path fill="#597A72" d="M84 68.5l.2-.1V68v1l-.1-.6z"/><path fill="#4D4827" d="M46.7 63.7c0-.2.2-.3.3-.4h.1c0 .3-.2.4-.3.6l-.1-.2z"/><path fill="#3D381F" d="M53.1 81.4c.2.2.3.4.3.7h-.1c-.1-.2-.3-.3-.3-.5l.1-.2z"/><path fill="#93CFC1" d="M75.2 69.5a119.4 119.4 0 0 1-.1 1.1v-1z"/><path fill="#602727" d="M73 62l.1-.8.1.4v.4H73z"/><path fill="#403C21" d="M60.4 62c.2.1.2.3.3.4v.1l-.4-.4h.1z"/><path fill="#332F19" d="M37.4 60.5l-.2-.3.1-.2.2.4s0 .1-.1 0z"/><path fill="#35311B" d="M52.5 78.7l.3-.4v.1h.1c0 .2-.2.4-.3.5l-.1-.2z"/><path fill="#0E0D08" d="M53 65.9a1 1 0 0 1-.2-.4v-.2l.3.5H53z"/><path fill="#6E998F" d="M15.8 73.8l.1.3v.2h-.1v-.5z"/><path fill="#44381F" d="M44.7 15.7l.4-.2.2.1-.4.2-.2-.1z"/><path fill="#4A4225" d="M50.3 91.4h-.2v-.1h.5l-.3.1z"/><path fill="#504D2A" d="M37 53.8h.2v.2l-.4-.1.2-.1z"/><path fill="#B34746" d="M20.7 65.7l-.1-.4.1-.2v.6z"/><path fill="#CDC66B" d="M34.4 57l-.1.3-.1-.4c0-.1.1 0 .2 0z"/><path fill="#161F1D" d="M54 11.2l-.3.2-.1-.2.2-.2.2.2z"/><path fill="#47361D" d="M44.5 13.7h.2c-.2.2-.3.2-.5.1.1 0 .2 0 .3-.2z"/><path fill="#2E2B18" d="M59 14.5c-.2 0-.2-.2-.2-.3l.3.2H59z"/><path fill="#3C351D" d="M56.8 18l-.1-.1v-.2s.2.1.2.3z"/><path fill="#414827" d="M60 55.8h-.5c0-.2.1-.2.2-.2l.2.2z"/><path fill="#C54E4D" d="M19.3 67.6l-.1-.3v-.1h.1v.4z"/><path fill="#3E321C" d="M45.8 16.7l-.2.3-.2-.2h.2c0-.1.1-.1.2 0z"/><path fill="#A1914F" d="M58 16.3V16h.1v.2z"/><path fill="#C34C4B" d="M26.6 64.6l-.1.1-.1-.1v-.2h.1l.1.2z"/><path fill="#334944" d="M63.3 39.1l-.2.1V39h.2z"/><path fill="#CE504F" d="M69.6 59.8l-.1-.2c0-.1 0-.2.1-.1l.1.1v.2z"/><path fill="#3D391F" d="M45.9 88.5v.2c.1.2 0 .2 0 .2l-.1-.2v-.2z"/><path fill="#766839" d="M37.2 59.1c.1-.1.2-.1.2 0v.1h-.2z"/><path fill="#292112" d="M43 76l.2-.1h.1l-.1.2h-.1z"/><path fill="#392E19" d="M40.9 79.4l.1-.2h.1v.1h-.2z"/><path fill="#A8A55A" d="M63 57.7l-.1-.1c0-.1.1-.1.2 0v.1z"/><path fill="#453B20" d="M58.7 65.6v-.1l.2.1h-.2z"/><path fill="#BBB461" d="M33.2 53.7s.1.1 0 .2v-.2z"/><path fill="#1D0B0B" d="M68.9 61.8v-.2.2z"/><path fill="#C8504F" d="M26.5 66l-.1-.3v.3zm-.1-.3h-.1z"/><path fill="#93CFC1" d="M75.2 71v-.2.2zm-.2.1h.2v.2L75 71z"/><path fill="#1D0B0B" d="M69 61.6v-.2c.1.1 0 .2 0 .2zm0-.2l.2-.2-.1.2z"/><path fill="#381919" d="M78.2 62.1v.2L78 62z"/><path fill="#BBB461" d="M33.4 53.6h-.1c0-.1 0 0 0 0z"/><path fill="#252213" d="M53.4 74l-.1-.2v.1z"/><path fill="#1D0B0B" d="M69.3 61.5l-.1.1z"/><path fill="#3D391F" d="M45.8 88.7h-.1z"/><path fill="#1D0B0B" d="M69 62.1l-.1.1zm.2-.4l-.1.1zm-.4.3v.1z"/><path d="M43.7 42.7V42l.2-1.9c0-.5.2-1 .4-1.4l1-1.8c.5-1 1.2-2 1.8-2.8.1-.2.3-.3.4-.3.5-.3 1-.4 1.5-.4h1c1 0 1.9.4 2.4 1.4l.5.9.8 2 .3.9c.6 1.3.7 2.6.3 4a21 21 0 0 1-2 5c-.4.6-.8 1-1.4 1.1l-1.6.4h-1.2c-.7-.2-1.4-.4-2-.8a4 4 0 0 1-1.8-1.9c-.3-.6-.5-1.3-.6-2l-.1-1.7zm13.7-6.1c-.6-.2-1-.5-1.4-.9a5 5 0 0 1-1.2-1.5l-.4-1a5 5 0 0 1-.6-3.2 25.4 25.4 0 0 1 1.5-6.7c.3-.5.8-.8 1.4-.7.6 0 1 .3 1.4.6.5.4.8.9 1.1 1.4l.6 1.4 1 3c.4.9.5 1.8.5 2.7 0 .6-.2 1.2-.5 1.7a3.9 3.9 0 0 1-2.7 2.1l-.6.2.2.1a43.1 43.1 0 0 0 1 .2l-.8.1h-.6c0 .2.2.2.3.3 0 .2 0 .2-.2.2zm-16.9-.8l.5.6v.1a6 6 0 0 1-1.4-1.2c-.6-.7-.9-1.5-.9-2.4v-1.6A11.9 11.9 0 0 1 40 25c.3-.7.7-1.4 1.2-2 .3-.5.6-.6 1-.4.3 0 .5.1.7.3l1 .8c.3.3.6.6.7 1l.5 2.7v3.3a5.9 5.9 0 0 1-1.5 3.5 3 3 0 0 1-2.2 1l-.5-.1s-.2-.1-.2.1c.4.3.8.4 1.3.4h.4v.1a1 1 0 0 1-.7.2l-.7.1-.5-.2v.1z"/><path fill="#010101" d="M49 25.7a4 4 0 0 1-1.2 2.6c-.1.2-.3.2-.5.2-.8-.2-1.3-.8-1.4-1.6-.2-.6-.1-1.2 0-1.8l.7-2.1c0-.3.2-.4.4-.4.6 0 1 .2 1.3.6l.5.9.2 1.6zm4.5-.4l-.3 1.8-.4.7c-.4.4-.8.6-1.4.5a.9.9 0 0 1-.7-.6c-.2-.4-.3-.8-.2-1.3 0-.9.2-1.7.4-2.5l.2-.7c.2-.4.4-.5.8-.4a2 2 0 0 1 1.5 1.6l.1.9z"/><path fill="#020303" d="M65.6 29.4a5.5 5.5 0 0 1-.5 2.2c0 .2 0 .4-.3.5v-.6l.3-1.4c0-.6 0-1.2-.2-1.7l-.4-.9-.8-1.3-.8-.9-.3-.3c0-.1 0-.2.2-.2h.3l.8.7c.6.8 1 1.6 1.4 2.6.2.4.3.9.3 1.3z"/><path fill="#050706" d="M34.6 29.9c0-.5 0-.9.3-1.3l.3-.2h.2v.5c-.4.6-.4 1.2-.2 1.7l.5 1 .1.3c0 .1 0 .1-.1 0h-.1c-.7-.5-1-1.2-1-2z"/><path fill="#090C0B" d="M50.3 50.4a3 3 0 0 1-2.6 0l-1-.5-.6-.5s-.1-.1 0-.2h.4l.8.6a3 3 0 0 0 2 .5h.8s.2-.1.2 0z"/><path fill="#080A0A" d="M33.4 43.9c-.9-.3-1.4-.8-1.6-1.6v-.7l.3-.2.2.3c0 .7.2 1.1.6 1.5l.4.5v.2z"/><path fill="#040605" d="M65.8 41.8a4 4 0 0 0 .4-2v-1l.4.1.1.4v.6c0 .8-.3 1.5-.8 2.1-.2 0-.2 0-.1-.2z"/><path fill="#060807" d="M51 54.7c-.5.6-1.2.8-2 .7l-.6-.3c-.2-.2-.1-.3 0-.4h.3l.2.1c.4.2.9.2 1.3 0l.7-.2c.1 0 .2 0 .1.1z"/><path fill="#090D0C" d="M37.7 23.4l.1-.5h.4v.1a2 2 0 0 0 0 1.1l-.1.2H38l-.3-.9z"/><path fill="#273633" d="M56.5 64.2c-.2.1-.3 0-.4 0a.5.5 0 0 1-.3-.5v-.1h.2l.5.6z"/><path fill="#101412" d="M33 36.2l-.4.4c-.1-.1-.1-.2 0-.4h.3z"/><path fill="#24302D" d="M53.8 9.1v-.2c.2 0 .3.1.3.2l-.1.3c-.2-.1-.2-.2-.2-.3z"/><path fill="#1A2523" d="M50.3 50.4l-.2-.1c.2-.2.4-.1.7-.2-.1.2-.3.3-.5.3z"/><path fill="#151B19" d="M40 66.9a.5.5 0 0 1-.3-.4v-.1h.2l.2.5H40z"/><path fill="#1A2220" d="M65.8 41.8l.1.2c0 .2-.2.3-.3.3h-.1c0-.2.1-.3.3-.5z"/><path fill="#1E2825" d="M57.4 36.6s.2 0 .2-.2c.2 0 .2.1.3.2 0 .1 0 0-.2 0h-.3z"/><path fill="#51746D" d="M57.7 36.7l.2-.1.3.1h-.5z"/><path fill="#293632" d="M59 20.8v.1h-.1v-.2h.2z"/><path fill="#212A28" d="M51 54.7v-.1l.2-.2v.1c0 .1 0 .2-.2.2z"/><path fill="#64958C" d="M40.7 35.3h-.1v-.2l.3.1-.2.1z"/><path fill="#476861" d="M53.6 11.2l.1.2h-.2v-.2z"/><path fill="#2F413D" d="M61.2 39.5l-.2.2v-.1s0-.2.1-.1z"/><path fill="#4F746D" d="M40.5 35.8h-.1v-.1h.1v.1z"/><path fill="#293C38" d="M41 36.5c.1 0 .1.1 0 .1z"/><path fill="#3C5B55" d="M52 49.4s.1.1 0 .2v-.2z"/><path fill="#597A72" d="M51.3 54.5v-.1s0-.1 0 0c.1 0 0 0 0 0v.1z"/><path fill="#446962" d="M65.5 42.3h.1l-.1.1c-.1 0 0 0 0 0z"/><path fill="#0E0B0A" d="M52 49.4l-.1.1z"/><path fill="#282414" d="M46.9 93.3a.9.9 0 0 1-.6-.6v-.1c.2 0 .3.1.4.3.2 0 .4.2.5.3h.1l.1.1v.1h-.3l-.2-.1z"/><path fill="#3A381E" d="M52.8 84.3l-.1-.2.2-.3h.2c0 .2-.2.3-.3.5z"/><path fill="#534D2A" d="M52.8 78.3l.3-.4v.1c0 .2 0 .3-.2.4h-.1z"/><path fill="#464023" d="M45.9 88.9v-.2c.2.1.2.2.3.4H46l-.1-.2z"/><path fill="#8B7F45" d="M53.4 69h-.1v-.2h.2v.3z"/><path fill="#36311B" d="M52.9 65.3l-.1.2-.1-.2V65l.2.2z"/><path fill="#BCB561" d="M60.6 62.5h.2v.2h-.1v-.2z"/><path fill="#4D542E" d="M55.8 73.2h-.1c-.1 0 0 0 0 0-.1 0-.1 0 0 0V73z"/><path fill="#86743F" d="M52.8 65.1l-.1.2c-.1-.1-.2-.2 0-.2z"/><path fill="#747640" d="M46.3 89.3s.1 0 0 0c0 .1 0 .1 0 0h-.1.1z"/><path fill="#796537" d="M53 78l.2-.2v.1H53z"/><path fill="#473F23" d="M47.4 93.4s.2-.1.1 0z"/><path fill="#312615" d="M46.3 89.3h-.1v-.1h.1z"/><path fill="#80743F" d="M46.3 92.6h-.1z"/><path fill="#A4A158" d="M53.3 82h.1v.1h-.1z"/><path fill="#473F23" d="M46.9 93.3h.2c0 .1-.1 0-.2 0z"/><path fill="#262615" d="M53.1 78h.1z"/><path fill="#1B1B0F" d="M46.2 89.2L46 89h.2z"/><path fill="#2F2313" d="M53.1 83.7v.1h-.2l.2-.1z"/><path fill="#1C1E10" d="M55.8 73.2s-.1 0 0-.1z"/><path fill="#090D0C" d="M78.8 55.1a5 5 0 0 0-1.8-1.5l-.4-.2v-.1h.5c.7.4 1.3.8 1.7 1.5l.1.2-.1.1z"/><path fill="#161F1D" d="M75.4 59c-.2 0-.2-.2-.2-.3l-.5-1.5v-.5h.1c.3.7.6 1.4.6 2.3z"/><path fill="#181F1D" d="M64.4 63c-.3.7-.8 1.2-1.3 1.7l-.3.1v-.1l.1-.2 1.4-1.4h.1z"/><path fill="#161F1D" d="M71.6 58.7v.3c-.1 0 0 .3-.3.3V59l-.2-.8h.1c0-.1.1 0 .2 0l.2.5z"/><path fill="#192522" d="M78.8 55.1l.1-.1.1.2v.2a.4.4 0 0 1-.2-.3z"/><path fill="#31403C" d="M79 55.4v-.2l.1.2H79z"/><path fill="#70968D" d="M64.4 63h.1z"/><path fill="#111715" d="M32.6 67.3l-1-.7-.8-.6a79.2 79.2 0 0 1 1.5.8l.5.4s0 .2-.2.1z"/><path fill="#151D1B" d="M25.1 66.6l-.6-1.5v-.3l.2-.2.1.1c0 .6.3 1.2.5 1.8 0 0 0 .1-.2 0z"/><path fill="#101615" d="M19.6 62.3l.5-1.3.3-.3h.3l-.5.9-.4.8h-.2z"/><path fill="#232F2C" d="M32.6 67.3l.2-.1.3.3H33c-.2 0-.3 0-.4-.2z"/><path fill="#39524C" d="M19.6 62.3l.2.1-.1.3h-.2l.1-.4z"/><path fill="#5B8880" d="M25.1 66.6l.2-.1v.2h-.1v-.1z"/><path fill="#65948A" d="M19.5 62.6l.2.1v.1l-.2.1v-.3z"/><path fill="#6D998F" d="M33.2 67.5l.1.2h-.1v-.2z"/><path fill="#2C433F" d="M33.2 67.5v.1l-.2-.1h.1z"/><path fill="#040402" d="M52.3 57.9a9 9 0 0 1-2.8.4 20.5 20.5 0 0 1-6-1.4c-.1 0-.2-.1 0-.3l.1-.1h.2a9 9 0 0 0 2.4.9l3.2.4h2.3c.2 0 .4-.2.6.1z"/><path fill="#554B29" d="M52.3 57.9H52l-.3-.1h1l-.4.1z"/><path fill="#4F4928" d="M37.4 60.5l.1-.1.2.3h-.1l-.2-.2z"/><path fill="#35321C" d="M37.6 60.7h.1s0 .1 0 0h-.1z"/><path fill="#371515" d="M68.4 62.7l.2.2-.5.7s-.1 0 0-.1c0-.3.2-.6.3-.8z"/><path fill="#903837" d="M67.6 64.2l.2-.4h.1a40.4 40.4 0 0 1-.3.4z"/><path fill="#5C2424" d="M68 63.9l-.2-.1.2-.3h.1c0 .2 0 .3-.2.4z"/><path fill="#C24D4C" d="M67.6 64.2h.1l-.1.1v-.1z"/><path fill="#CA4F4E" d="M73 62h.1v.1s0 .1-.1 0V62z"/><path fill="#818448" d="M43 76h.2l-.1.2V76z"/><path fill="#361515" d="M19 68.8l.1.1-.1.8-.1-.2.1-.7z"/><path fill="#582323" d="M18.7 70l.1-.4.1.3v.3l-.2-.1z"/><path fill="#AA4342" d="M18.7 70l.1.2-.1.1v-.2z"/><path fill="#2F1313" d="M19 69.9c-.2 0-.2-.2-.2-.3v-.1l.2.2v.2z"/><path fill="#AC9853" d="M58.9 14.1h-.2c0-.1 0 0 .1 0z"/><path fill="#B8A95B" d="M45.3 15.6l-.2-.1h.2c0-.1 0 0 0 0v.1z"/><path fill="#494224" d="M45.8 16.7h-.2.2c0-.1 0-.1 0 0z"/><path fill="#B09853" d="M45.9 16.6h-.1.1z"/><path fill="#FE605F" d="M47 45.6l-.3-2c0-.3 0-.6-.3-.7l-.1.2-.6 1.7-.6 1.4h-.2a8.5 8.5 0 0 1-.6-4.7l.1-1a58 58 0 0 1 1.4-3.7l.3-.4h.1l.2.2.9 1.9c0 .1 0 .2.2.3l.2-.5.4-1.7.2-.5.1-.2.2.4.1.3.2-.3c.2-.3.2-.6.3-1v-.2h.1l.4 1.3s0 .2.2.3l.2-.7v-.2h.2l.1 1.3.2 1.7.1.3h.2l.6-1.3.7-1.4.2-.5h.1v.1l.5 1 .8 2.3a5 5 0 0 1 0 3.6l-1.5 3.7-.3.6-.1-.2c0-1-.3-2-.6-3l-.2-.7a1 1 0 0 0-.3-.7l-.2.2-.4 2-.2 1.5-.1.5h-.1l-.1-.5c0-.4 0-.8-.2-1.2l-.2-.5H49l-.2.6-.3 1.1-.2.5c-.2-.2-.2-.4-.2-.6l-.2-.8c0-.3 0-.6-.3-1l-.2.3-.4 1h-.2z"/><path fill="#FCFCFC" d="M50.9 46.6l-.2.2v1.1c0 .4-.1.4-.6.4 0-.6.3-3.2.7-4.3v-.2l.6 2.5.1 1.2c0 .2 0 .4-.2.5l-.3-.1v-1.2l-.1-.1zm.5-12.2c.3.1.5.4.6.7v.2c-.2.9-.4 1.7-.8 2.5v.1H51l-.2-.9-.2-2.7v-.2s.1-.1.2 0c.1 0 .2 0 .2.2v.6c0 .5 0 .7.2.6v-.6c.1-.2 0-.3.2-.5z"/><path fill="#FAFAFA" d="M47.4 36v-1.3c0-.2.1-.4.3-.5h.3c.1.8-.3 3-.6 3.6l-1-1.9v-.2l.7-.7.2 1v.1h.1z"/><path fill="#FBFBFB" d="M46 46.5l-.1.6h-.3l-.2-.1c-.1-.1-.2-.2-.1-.4l1-2.4.2.4.1 2.2v.8h-.3l-.1-.2v-.5c0-.2.2-.4-.1-.4zm1.6-.9c.4 1 .4 1.9.4 2.9-.3 0-.7-.2-1-.4a.3.3 0 0 1 0-.3c.1-.7.2-1.5.5-2.2z"/><path fill="#FBFCFC" d="M49.1 45.7l.1.2.4 2.3c0 .2 0 .2-.2.3-.2.1-.5 0-.8 0l-.1-.2v-.7l.5-1.7.1-.2z"/><path fill="#EAE9E9" d="M49.7 35.4l-.2-1.3.2-.2c.3 0 .3 0 .3.3l-.1 1-.2.2z"/><path fill="#EBEBEB" d="M48.7 35.4l-.2-1.4h.3c.2 0 .2 0 .2.2l-.3 1.2z"/><path fill="#4E4848" d="M46 46.5l.2-.3v.5l-.1-.2z"/><path fill="#C94F4E" d="M48.4 36l-.1.1v-.4c.2 0 .2.1.1.2z"/><path fill="#A03C3B" d="M47 45.6h.1v.2H47v-.2z"/><path fill="#FE605F" d="M56.9 23.1a4 4 0 0 1 1.8 1.8l.5 1 1.3 3.8c.2.6.3 1.2.2 1.9a4 4 0 0 1-1.3 2.8 3 3 0 0 1-1.4.7c-.7.1-1.2-.1-1.6-.7-.6-.7-.9-1.5-1-2.4-.2-1.2-.2-2.5 0-3.7.2-1.2.6-2.4 1-3.7l.2-1 .3-.5z"/><path fill="#13818C" d="M54.2 30.4c0-1 .2-1.8.4-2.6l.8-3.4c0-.5.3-.8.6-1.1l.2-.2h.1v.2l-.1.7-.7 2.3a19.7 19.7 0 0 0-.6 2.6v2c0 .7 0 1.4.3 2 .1.2.2.4.1.6-.2 0-.3-.3-.4-.4-.3-.5-.4-1-.5-1.5l-.2-1.2z"/><path fill="#FE605F" d="M42.4 23.4a3 3 0 0 1 1.5 1.3l.4 1.4.3 2.3c0 1 0 2.1-.2 3.2a5 5 0 0 1-1.3 2.4 2 2 0 0 1-1.2.7c-.4 0-.6 0-.8-.3-.4-.8-.7-1.7-.9-2.6a9.6 9.6 0 0 1 1-6.2l1-1.8c0-.2 0-.3.2-.4z"/><path fill="#13818C" d="M39.1 30.5c0-1.5.4-3.1 1-4.6l1-2 .4-.5s0-.2.2-.2h.2v.2l-.2.5-.7 1.3a11.2 11.2 0 0 0-1.3 4.8l.1 1 .3 2 .3.9.2.4h-.1c-.3 0-.5-.3-.7-.5a5.9 5.9 0 0 1-.7-3.3z"/><path fill="#FD605F" d="M47.6 23.4c.3.2.5.5.6.9.4 1 .3 1.9-.1 2.8l-.5.7h-.3l-.4-.9a4 4 0 0 1 .1-2l.4-1.3s0-.2.2-.2z"/><path fill="#10646C" d="M47 23.6v.1a164.5 164.5 0 0 1-.4 1.4h-.1v-.4a35.5 35.5 0 0 1 .4-1.1h.1z"/><path fill="#FD605F" d="M51.9 27.7c-.2-.2-.2-.5-.3-.8l.1-1.3.5-1.8h.3l.3.4c.3 1 .2 2-.1 2.9-.2.3-.4.5-.8.6z"/><path fill="#127B85" d="M51.2 27.3c-.2-.3-.3-.5-.3-.8.2-.8.3-1.7.6-2.5 0-.2 0-.4.2-.5 0 0 0-.1 0 0h.1v.5l-.4 1.6a4 4 0 0 0-.2 1.3c0 .1.1.3 0 .4z"/></g></svg>