<?xml version="1.0" encoding="UTF-8" standalone="no" ?><!DOCTYPE svg PUBLIC "-//W3C//DTD SVG 1.1//EN" "http://www.w3.org/Graphics/SVG/1.1/DTD/svg11.dtd">
<svg xmlns="http://www.w3.org/2000/svg" xmlns:xlink="http://www.w3.org/1999/xlink" version="1.1" width="130" height="190" viewBox="111 110 130 190" xml:space="preserve"><desc>Created with Fabric.js 1.5.0</desc><defs></defs><clipPath id="canvas-clipMask"><rect x="111" y="110" width="130" height="190" /></clipPath> <g id="canvas" style="display:inline" clip-path="url(#canvas-clipMask)" ><g style="stroke: none; stroke-width: 1; stroke-dasharray: ; stroke-linecap: butt; stroke-linejoin: miter; stroke-miterlimit: 10; fill: none; fill-rule: nonzero; opacity: 1;" transform="translate(176 155) rotate(0) scale(0.2 0.2)" ><g transform=""><path d="M 477.311 251.072 c -0.812 0 -1.638 -0.193 -2.405 -0.603 c -13.891 -7.362 -29.901 -15.813 -47.577 -25.114 l -34.404 -18.068 c -8.514 -4.465 -16.783 -8.789 -24.539 -12.857 l -61.031 -32.037 c -3.346 -1.684 -10.328 -4.497 -19.537 -4.497 c -3.344 0 -6.383 0.041 -9.063 0.082 c -10.022 0.152 -16.631 0.244 -23.237 -2.314 c -2.765 -1.07 -4.873 -3.375 -6.484 -6.271 c -1.61 2.896 -3.731 5.2 -6.501 6.271 c -6.611 2.561 -13.225 2.468 -23.232 2.314 c -2.671 -0.041 -5.72 -0.082 -9.075 -0.082 c -4.497 0 -8.902 0.652 -13.154 1.947 l -148.09 76.966 c -7.745 4.078 -15.387 8.127 -22.78 12.043 c -2.513 1.336 -5.634 0.377 -6.974 -2.143 c -1.336 -2.52 -0.365 -5.629 2.156 -6.977 c 7.393 -3.916 15.038 -7.953 22.803 -12.054 l 148.93 -77.402 l 0.438 -0.144 c 5.374 -1.703 10.981 -2.56 16.671 -2.56 c 3.426 0 6.506 0.041 9.229 0.081 c 9.125 0.143 14.638 0.225 19.362 -1.604 c 2.102 -1.102 4.61 -10.573 5.068 -19.118 h 10.3 c 0.459 8.545 2.979 18.018 5.088 19.118 c 4.711 1.825 10.217 1.743 19.334 1.604 c 2.713 -0.04 5.791 -0.081 9.218 -0.081 c 10.8 0 19.146 3.059 24.232 5.618 l 0.076 0.041 l 61.037 32.06 c 7.76 4.067 16.01 8.381 24.555 12.856 l 34.425 18.078 c 17.684 9.299 33.681 17.754 47.589 25.125 c 2.521 1.347 3.478 4.457 2.142 6.984 C 480.947 250.082 479.156 251.072 477.311 251.072" style="stroke: none; stroke-width: 1; stroke-dasharray: ; stroke-linecap: butt; stroke-linejoin: miter; stroke-miterlimit: 10; fill: #808080; fill-rule: nonzero; opacity: 1;" transform="translate(-250 -185)" stroke-linecap="round" /></g><g transform=""><path d="M 249.023 140.925 c -2.85 0 -5.17 -2.305 -5.17 -5.159 v -35.44 c -0.233 -2.545 -1.381 -19.022 6.903 -28.873 c 1.611 -1.901 3.771 -3.895 6.072 -5.985 c 9.438 -8.667 21.193 -19.444 12.354 -37.896 c -4.065 -8.488 -13.511 -14.214 -24.083 -14.604 c -10.666 -0.377 -20.088 4.758 -25.217 13.757 c -3.365 5.878 -4.986 13.296 -4.845 22.045 c 0.063 2.845 -2.207 5.199 -5.047 5.251 c -0.035 0 -0.076 0 -0.097 0 c -2.81 0 -5.114 -2.248 -5.153 -5.067 c -0.194 -10.625 1.875 -19.822 6.179 -27.337 c 7.056 -12.4 19.984 -19.477 34.557 -18.962 c 14.562 0.536 27.222 8.372 33.006 20.461 c 12.136 25.338 -4.647 40.745 -14.685 49.948 c -2.121 1.953 -3.956 3.636 -5.149 5.037 c -4.971 5.92 -4.936 17.451 -4.489 21.402 l 0.016 0.565 v 35.696 C 254.173 138.622 251.868 140.925 249.023 140.925" style="stroke: none; stroke-width: 1; stroke-dasharray: ; stroke-linecap: butt; stroke-linejoin: miter; stroke-miterlimit: 10; fill: #808080; fill-rule: nonzero; opacity: 1;" transform="translate(-250 -185)" stroke-linecap="round" /></g><g transform=""><path d="M 238.847 140.121 c -1.703 0 -3.385 -0.847 -4.375 -2.396 c -1.509 -2.417 -0.795 -5.608 1.622 -7.127 l 20.348 -12.858 c 2.412 -1.529 5.594 -0.806 7.123 1.611 c 1.498 2.396 0.782 5.588 -1.616 7.105 l -20.357 12.868 C 240.733 139.866 239.786 140.121 238.847 140.121" style="stroke: none; stroke-width: 1; stroke-dasharray: ; stroke-linecap: butt; stroke-linejoin: miter; stroke-miterlimit: 10; fill: #808080; fill-rule: nonzero; opacity: 1;" transform="translate(-250 -185)" stroke-linecap="round" /></g><g transform=""><path d="M 249.023 142.853 c -1.703 0 -3.385 -0.856 -4.369 -2.406 c -1.514 -2.416 -0.801 -5.599 1.616 -7.117 l 10.171 -6.434 c 2.412 -1.521 5.594 -0.807 7.11 1.6 c 1.511 2.417 0.808 5.599 -1.604 7.118 l -10.185 6.434 C 250.921 142.587 249.962 142.853 249.023 142.853" style="stroke: none; stroke-width: 1; stroke-dasharray: ; stroke-linecap: butt; stroke-linejoin: miter; stroke-miterlimit: 10; fill: #808080; fill-rule: nonzero; opacity: 1;" transform="translate(-250 -185)" stroke-linecap="round" /></g><g transform=""><path d="M 238.847 130.962 c -1.703 0 -3.385 -0.855 -4.375 -2.405 c -1.509 -2.417 -0.795 -5.599 1.622 -7.117 l 20.348 -12.868 c 2.412 -1.507 5.594 -0.795 7.123 1.611 c 1.498 2.405 0.782 5.598 -1.616 7.116 l -20.357 12.858 C 240.733 130.708 239.786 130.962 238.847 130.962" style="stroke: none; stroke-width: 1; stroke-dasharray: ; stroke-linecap: butt; stroke-linejoin: miter; stroke-miterlimit: 10; fill: #808080; fill-rule: nonzero; opacity: 1;" transform="translate(-250 -185)" stroke-linecap="round" /></g><g transform=""><path d="M 238.847 121.796 c -1.703 0 -3.385 -0.847 -4.375 -2.396 c -1.509 -2.406 -0.795 -5.6 1.622 -7.128 l 20.348 -12.855 c 2.412 -1.514 5.594 -0.801 7.123 1.616 c 1.498 2.396 0.782 5.588 -1.616 7.109 L 241.591 121 C 240.733 121.542 239.786 121.796 238.847 121.796" style="stroke: none; stroke-width: 1; stroke-dasharray: ; stroke-linecap: butt; stroke-linejoin: miter; stroke-miterlimit: 10; fill: #808080; fill-rule: nonzero; opacity: 1;" transform="translate(-250 -185)" stroke-linecap="round" /></g><g transform=""><path d="M 238.847 112.64 c -1.703 0 -3.385 -0.847 -4.375 -2.396 c -1.509 -2.416 -0.795 -5.601 1.622 -7.119 l 20.348 -12.857 c 2.412 -1.529 5.594 -0.807 7.123 1.604 c 1.498 2.401 0.782 5.588 -1.616 7.107 l -20.357 12.864 C 240.733 112.384 239.786 112.64 238.847 112.64" style="stroke: none; stroke-width: 1; stroke-dasharray: ; stroke-linecap: butt; stroke-linejoin: miter; stroke-miterlimit: 10; fill: #808080; fill-rule: nonzero; opacity: 1;" transform="translate(-250 -185)" stroke-linecap="round" /></g><g transform=""><path d="M 238.847 103.486 c -1.703 0 -3.385 -0.846 -4.375 -2.406 c -1.509 -2.406 -0.795 -5.593 1.622 -7.117 L 256.441 81.1 c 2.412 -1.524 5.594 -0.796 7.123 1.615 c 1.498 2.396 0.783 5.582 -1.616 7.112 l -20.357 12.863 C 240.733 103.231 239.786 103.486 238.847 103.486" style="stroke: none; stroke-width: 1; stroke-dasharray: ; stroke-linecap: butt; stroke-linejoin: miter; stroke-miterlimit: 10; fill: #808080; fill-rule: nonzero; opacity: 1;" transform="translate(-250 -185)" stroke-linecap="round" /></g><g transform=""><path d="M 238.847 94.33 c -1.703 0 -3.385 -0.852 -4.375 -2.401 c -1.509 -2.417 -0.795 -5.604 1.622 -7.122 l 10.105 -6.389 c 2.417 -1.52 5.598 -0.806 7.127 1.605 c 1.52 2.401 0.79 5.588 -1.621 7.111 l -10.116 6.396 C 240.733 94.075 239.786 94.33 238.847 94.33" style="stroke: none; stroke-width: 1; stroke-dasharray: ; stroke-linecap: butt; stroke-linejoin: miter; stroke-miterlimit: 10; fill: #808080; fill-rule: nonzero; opacity: 1;" transform="translate(-250 -185)" stroke-linecap="round" /></g><g transform=""><path d="M 31.649 286.281 c 5.517 0 10.028 4.508 10.028 10.022 v 12.031 c 0 4.347 -2.674 8.188 -6.434 9.859 c 4.094 1.512 7.018 5.438 7.018 10.032 v 14.865 c 0 5.52 -4.513 10.035 -10.026 10.035 H 16.524 v -66.85 h 15.125 V 286.281 z M 31.231 316.105 c 2.256 -0.998 6.184 -3.252 6.184 -7.604 v -12.193 c 0 -3.012 -2.505 -5.938 -5.766 -5.938 H 20.703 v 25.734 H 31.231 z M 38.083 328.23 c 0 -4.681 -4.678 -6.941 -6.936 -7.941 H 20.703 v 28.662 h 11.448 c 3.342 0 5.932 -2.674 5.932 -5.854 V 328.23 z" style="stroke: none; stroke-width: 1; stroke-dasharray: ; stroke-linecap: butt; stroke-linejoin: miter; stroke-miterlimit: 10; fill: #808080; fill-rule: nonzero; opacity: 1;" transform="translate(-250 -185)" stroke-linecap="round" /></g><g transform=""><path d="M 78.592 349.787 c 3.845 0 6.938 -3.088 6.938 -6.934 v -6.019 h 4.178 v 6.019 c 0 6.18 -4.93 11.112 -11.115 11.112 h -1.837 c -6.185 0 -11.115 -4.936 -11.115 -11.112 v -26.248 c 0 -6.179 4.93 -11.113 11.115 -11.113 h 1.837 c 6.185 0 11.115 4.936 11.115 11.113 v 10.789 h -19.89 v 15.459 c 0 3.846 3.092 6.934 6.937 6.934 H 78.592 z M 85.529 323.294 v -6.688 c 0 -3.845 -3.092 -6.935 -6.938 -6.935 h -1.837 c -3.844 0 -6.937 3.09 -6.937 6.935 v 6.688 H 85.529 z" style="stroke: none; stroke-width: 1; stroke-dasharray: ; stroke-linecap: butt; stroke-linejoin: miter; stroke-miterlimit: 10; fill: #808080; fill-rule: nonzero; opacity: 1;" transform="translate(-250 -185)" stroke-linecap="round" /></g><g transform=""><path d="M 134.226 286.281 h 4.181 v 55.654 c 0 6.68 -5.349 12.03 -12.035 12.03 H 124.7 c -6.684 0 -12.032 -5.354 -12.032 -12.03 v -55.654 h 4.178 v 55.654 c 0 4.342 3.51 7.852 7.854 7.852 h 1.672 c 4.346 0 7.854 -3.51 7.854 -7.852 V 286.281 z" style="stroke: none; stroke-width: 1; stroke-dasharray: ; stroke-linecap: butt; stroke-linejoin: miter; stroke-miterlimit: 10; fill: #808080; fill-rule: nonzero; opacity: 1;" transform="translate(-250 -185)" stroke-linecap="round" /></g><g transform=""><path d="M 165.043 331.402 c -1.338 0 -2.424 -1.092 -2.424 -2.428 c 0 -1.337 1.086 -2.509 2.424 -2.509 c 1.336 0 2.506 1.172 2.506 2.509 C 167.549 330.311 166.38 331.402 165.043 331.402 z" style="stroke: none; stroke-width: 1; stroke-dasharray: ; stroke-linecap: butt; stroke-linejoin: miter; stroke-miterlimit: 10; fill: #808080; fill-rule: nonzero; opacity: 1;" transform="translate(-250 -185)" stroke-linecap="round" /></g><g transform=""><path d="M 209.154 316.605 c 0 -4.345 -2.588 -6.935 -6.934 -6.935 c -4.35 0 -6.938 3.011 -6.938 6.935 v 1.674 h -4.176 v -1.674 c 0 -6.679 4.926 -11.113 11.115 -11.113 c 6.18 0 11.109 4.436 11.109 11.113 v 36.524 h -4.176 v -5.18 c 0 0 -7.438 6.016 -11.869 6.016 c -4.426 0 -8.025 -3.6 -8.025 -8.024 v -5.771 c 0 -5.844 3.514 -10.278 8.28 -12.114 l 11.614 -3.671 L 209.154 316.605 L 209.154 316.605 z M 193.441 345.941 c 0 1.918 1.922 3.846 3.844 3.846 c 4.431 0 11.869 -6.934 11.869 -6.934 V 328.73 l -9.859 3.09 c -3.932 1.498 -5.854 4.68 -5.854 8.352 V 345.941 z" style="stroke: none; stroke-width: 1; stroke-dasharray: ; stroke-linecap: butt; stroke-linejoin: miter; stroke-miterlimit: 10; fill: #808080; fill-rule: nonzero; opacity: 1;" transform="translate(-250 -185)" stroke-linecap="round" /></g><g transform=""><path d="M 261.613 342.854 c 0 6.098 -4.934 11.112 -11.115 11.112 h -1.842 c -2.671 0 -5.098 -0.918 -6.934 -2.428 v 14.623 h -4.18 v -59.834 h 4.18 v 5.18 c 0 0 7.439 -6.016 11.869 -6.016 c 4.427 0 8.021 3.6 8.021 8.022 L 261.613 342.854 L 261.613 342.854 z M 241.723 342.854 c 0 3.846 3.09 6.934 6.934 6.934 h 1.842 c 3.845 0 6.938 -3.088 6.938 -6.934 v -29.336 c 0 -2.336 -1.93 -3.847 -3.847 -3.847 c -4.43 0 -11.869 6.854 -11.869 6.854 L 241.723 342.854 L 241.723 342.854 z" style="stroke: none; stroke-width: 1; stroke-dasharray: ; stroke-linecap: butt; stroke-linejoin: miter; stroke-miterlimit: 10; fill: #808080; fill-rule: nonzero; opacity: 1;" transform="translate(-250 -185)" stroke-linecap="round" /></g><g transform=""><path d="M 309.895 342.854 c 0 6.098 -4.931 11.112 -11.113 11.112 h -1.842 c -2.672 0 -5.1 -0.918 -6.935 -2.428 v 14.623 h -4.181 v -59.834 h 4.181 v 5.18 c 0 0 7.438 -6.016 11.869 -6.016 c 4.426 0 8.021 3.6 8.021 8.022 V 342.854 L 309.895 342.854 z M 290.005 342.854 c 0 3.846 3.091 6.934 6.935 6.934 h 1.841 c 3.845 0 6.938 -3.088 6.938 -6.934 v -29.336 c 0 -2.336 -1.928 -3.847 -3.844 -3.847 c -4.433 0 -11.869 6.854 -11.869 6.854 V 342.854 z" style="stroke: none; stroke-width: 1; stroke-dasharray: ; stroke-linecap: butt; stroke-linejoin: miter; stroke-miterlimit: 10; fill: #808080; fill-rule: nonzero; opacity: 1;" transform="translate(-250 -185)" stroke-linecap="round" /></g><g transform=""><path d="M 351.909 316.605 c 0 -4.345 -2.591 -6.935 -6.937 -6.935 c -4.35 0 -6.938 3.011 -6.938 6.935 v 1.674 h -4.177 v -1.674 c 0 -6.679 4.927 -11.113 11.113 -11.113 c 6.182 0 11.109 4.436 11.109 11.113 v 36.524 h -4.176 v -5.18 c 0 0 -7.438 6.016 -11.869 6.016 c -4.426 0 -8.025 -3.6 -8.025 -8.024 v -5.771 c 0 -5.844 3.516 -10.278 8.281 -12.114 l 11.613 -3.671 L 351.909 316.605 L 351.909 316.605 z M 336.197 345.941 c 0 1.918 1.922 3.846 3.844 3.846 c 4.432 0 11.869 -6.934 11.869 -6.934 V 328.73 l -9.859 3.09 c -3.932 1.498 -5.854 4.68 -5.854 8.352 V 345.941 L 336.197 345.941 z" style="stroke: none; stroke-width: 1; stroke-dasharray: ; stroke-linecap: butt; stroke-linejoin: miter; stroke-miterlimit: 10; fill: #808080; fill-rule: nonzero; opacity: 1;" transform="translate(-250 -185)" stroke-linecap="round" /></g><g transform=""><path d="M 380.716 353.13 v -46.803 h 4.181 v 5.18 c 0 0 7.436 -6.016 11.868 -6.016 c 4.428 0 8.021 3.6 8.021 8.022 v 8.441 h -4.177 v -8.441 c 0 -2.338 -1.928 -3.846 -3.846 -3.846 c -4.436 0 -11.867 6.854 -11.867 6.854 v 36.605 h -4.182 L 380.716 353.13 L 380.716 353.13 z" style="stroke: none; stroke-width: 1; stroke-dasharray: ; stroke-linecap: butt; stroke-linejoin: miter; stroke-miterlimit: 10; fill: #808080; fill-rule: nonzero; opacity: 1;" transform="translate(-250 -185)" stroke-linecap="round" /></g><g transform=""><path d="M 438.194 349.787 c 3.845 0 6.935 -3.088 6.935 -6.934 v -6.019 h 4.182 v 6.019 c 0 6.18 -4.936 11.112 -11.113 11.112 h -1.84 c -6.188 0 -11.114 -4.936 -11.114 -11.112 v -26.248 c 0 -6.179 4.93 -11.113 11.114 -11.113 h 1.84 c 6.181 0 11.113 4.936 11.113 11.113 v 10.789 h -19.895 v 15.459 c 0 3.846 3.096 6.934 6.938 6.934 H 438.194 z M 445.128 323.294 v -6.688 c 0 -3.845 -3.09 -6.935 -6.935 -6.935 h -1.84 c -3.846 0 -6.938 3.09 -6.938 6.935 v 6.688 H 445.128 z" style="stroke: none; stroke-width: 1; stroke-dasharray: ; stroke-linecap: butt; stroke-linejoin: miter; stroke-miterlimit: 10; fill: #808080; fill-rule: nonzero; opacity: 1;" transform="translate(-250 -185)" stroke-linecap="round" /></g><g transform=""><path d="M 472.686 289.289 h 4.177 v 56.652 c 0 1.674 3.183 3.846 5.519 3.846 v 4.182 c -4.426 0 -9.691 -3.6 -9.691 -8.023 L 472.686 289.289 L 472.686 289.289 z" style="stroke: none; stroke-width: 1; stroke-dasharray: ; stroke-linecap: butt; stroke-linejoin: miter; stroke-miterlimit: 10; fill: #808080; fill-rule: nonzero; opacity: 1;" transform="translate(-250 -185)" stroke-linecap="round" /></g></g><g transform="translate(201.58 237.03) scale(2.09 2.09)">
	<g transform="translate(-6.17 0)">
		<text font-size="30" font-weight="normal" style="stroke: none; stroke-width: 1; stroke-dasharray: ; stroke-linecap: butt; stroke-linejoin: miter; stroke-miterlimit: 10; fill: #000000; fill-rule: nonzero; opacity: 1;" ><tspan x="-2.7637" y="6.738" fill="#000000">F</tspan></text>
	</g>
	<g transform="translate(-0.05 0)">
		<text font-size="30" font-weight="normal" style="stroke: none; stroke-width: 1; stroke-dasharray: ; stroke-linecap: butt; stroke-linejoin: miter; stroke-miterlimit: 10; fill: #000000; fill-rule: nonzero; opacity: 1;" ><tspan x="-2.8076" y="6.738" fill="#000000">g</tspan></text>
	</g>
	<g transform="translate(6.13 0)">
		<text font-size="30" font-weight="normal" style="stroke: none; stroke-width: 1; stroke-dasharray: ; stroke-linecap: butt; stroke-linejoin: miter; stroke-miterlimit: 10; fill: #000000; fill-rule: nonzero; opacity: 1;" ><tspan x="-2.8076" y="6.738" fill="#000000">g</tspan></text>
	</g>
</g>
</g></svg>